<?xml version="1.0" standalone="no"?>
<!DOCTYPE svg PUBLIC "-//W3C//DTD SVG 1.1//EN" "http://www.w3.org/Graphics/SVG/1.1/DTD/svg11.dtd" >
<svg xmlns="http://www.w3.org/2000/svg" xmlns:xlink="http://www.w3.org/1999/xlink" version="1.1">
<metadata>
Created by FontForge 20190801 at Wed Dec 19 17:08:43 2018
 By Unknown
(c) 2018 Typodermic Fonts Inc.
</metadata>
<defs>
<font id="JJ2Rg-Bold" horiz-adv-x="763" >
  <font-face 
    font-family="JJ2 Rg"
    font-weight="700"
    font-stretch="normal"
    units-per-em="1000"
    panose-1="2 11 8 3 4 0 0 2 0 4"
    ascent="787"
    descent="-213"
    x-height="497"
    cap-height="714"
    bbox="-183 -242 1315 957"
    underline-thickness="50"
    underline-position="-100"
    unicode-range="U+0017-FB04"
  />
<missing-glyph horiz-adv-x="832" 
d="M686 -213h-542q-95 0 -95 83v883q0 84 95 84h542q96 0 96 -84v-883q0 -83 -96 -83zM218 203l212 -57q16 47 39.5 73t59.5 43q41 20 64 32t53.5 33t46.5 41.5t27.5 50.5t11.5 66q0 53 -23 98.5t-60 76t-83.5 52.5t-92.5 32t-88 10q-106 0 -183 -64.5t-96 -168.5l199 -54
q36 89 94 89q10 0 23 -2.5t29 -8.5t27 -20t11 -34q0 -27 -23 -50t-58.5 -43t-72.5 -43t-70 -62.5t-47 -89.5zM131 -87l218 -59l53 200l-217 59z" />
    <glyph glyph-name="copyright" unicode="&#x28;C&#x29;" horiz-adv-x="821" 
d="M407 -18q-162 0 -265.5 108t-103.5 272q0 169 109 270.5t270 101.5t263.5 -101.5t102.5 -263.5q0 -166 -106 -276.5t-270 -110.5zM406 53q133 0 218 89t85 223q0 128 -80 213.5t-216 85.5q-138 0 -219 -87.5t-81 -216.5q0 -130 80.5 -218.5t212.5 -88.5zM412 456
q-36 0 -58.5 -24.5t-22.5 -64.5q0 -41 22 -67t58 -26q27 0 49 15t32 39h78q-11 -55 -55.5 -90.5t-104.5 -35.5q-70 0 -115 47.5t-45 116.5t45.5 115t117.5 46q61 0 104.5 -34t53.5 -94h-80q-20 57 -79 57z" />
    <glyph glyph-name="registered" unicode="&#x28;R&#x29;" horiz-adv-x="822" 
d="M408 -18q-162 0 -266 108t-104 272q0 169 109.5 270.5t270.5 101.5t263.5 -101.5t102.5 -263.5q0 -166 -106 -276.5t-270 -110.5zM408 52q132 0 217 89t85 223q0 129 -80 214.5t-216 85.5q-138 0 -219 -87.5t-81 -216.5q0 -130 81 -219t213 -89zM577 206h-86
q-6 10 -13 59q-2 20 -5.5 31t-13.5 21t-26 10h-77v-121h-83v321h167q126 0 126 -90q0 -58 -54 -78v-4q47 -27 51 -102q2 -35 14 -47zM448 462h-92v-70h94q33 0 33 34q0 36 -35 36z" />
    <glyph glyph-name="uni2117" unicode="&#x28;P&#x29;" horiz-adv-x="821" 
d="M407 -18q-162 0 -266 108t-104 272q0 169 109.5 270.5t270.5 101.5t263.5 -101.5t102.5 -263.5q0 -166 -106 -276.5t-270 -110.5zM407 52q132 0 217 89t85 223q0 129 -80 214.5t-216 85.5q-138 0 -219 -87.5t-81 -216.5q0 -130 81 -219t213 -89zM366 196h-80v316h185
q47 0 73 -33.5t26 -75.5q0 -46 -30.5 -75t-73.5 -29h-100v-103zM451 446h-85v-80h89q35 0 35 39q0 41 -39 41z" />
    <glyph glyph-name="ff" unicode="ff" horiz-adv-x="719" 
d="M570 0h-153v385h-153v-385h-152v385h-95v112h95v67q0 99 49.5 144t150.5 45q98 0 174 -55q43 28 119 28q77 0 102 -21v-116q-30 9 -70 9q-67 0 -67 -62v-39h132v-112h-132v-385zM417 536q0 37 8 66q-44 27 -90 27q-38 0 -54.5 -16.5t-16.5 -53.5v-62h153v39z" />
    <glyph glyph-name="fi" unicode="fi" horiz-adv-x="636" 
d="M576 0h-153v385h-159v-385h-152v385h-95v112h95v59q0 106 51 148.5t170 42.5q69 0 143.5 -11t99.5 -23v-130q-18 13 -96 24t-129 11q-46 0 -66.5 -14t-20.5 -48v-59h312v-497z" />
    <glyph glyph-name="fl" unicode="fl" horiz-adv-x="633" 
d="M575 0h-152v608q-28 10 -69 10q-49 0 -69.5 -14t-20.5 -48v-59h102v-112h-102v-385h-152v385h-95v112h95v59q0 105 54 148t184 43q75 0 139.5 -11t85.5 -23v-713z" />
    <glyph glyph-name="ffi" unicode="ffi" horiz-adv-x="941" 
d="M881 0h-152v385h-159v-385h-153v385h-153v-385h-152v385h-95v112h95v67q0 99 48.5 144t150.5 45q91 0 162 -47q53 41 164 41q74 0 147.5 -10.5t96.5 -23.5v-130q-18 13 -95.5 24t-127.5 11q-47 0 -67.5 -14.5t-20.5 -47.5v-59h311v-497zM417 556q0 28 6 49q-40 24 -86 24
q-38 0 -55.5 -16.5t-17.5 -53.5v-62h153v59z" />
    <glyph glyph-name="ffl" unicode="ffl" horiz-adv-x="938" 
d="M311 753q91 0 164 -48q54 42 179 42q75 0 139.5 -11t86.5 -23v-713h-152v606q-32 12 -72 12q-46 0 -66 -14t-20 -48v-59h100v-112h-100v-385h-153v385h-153v-385h-152v385h-95v112h95v67q0 99 48.5 144t150.5 45zM417 556q0 25 5 48q-40 25 -86 25q-72 0 -72 -65v-67h153
v59z" />
    <glyph glyph-name=".notdef" horiz-adv-x="832" 
d="M686 -213h-542q-95 0 -95 83v883q0 84 95 84h542q96 0 96 -84v-883q0 -83 -96 -83zM218 203l212 -57q16 47 39.5 73t59.5 43q41 20 64 32t53.5 33t46.5 41.5t27.5 50.5t11.5 66q0 53 -23 98.5t-60 76t-83.5 52.5t-92.5 32t-88 10q-106 0 -183 -64.5t-96 -168.5l199 -54
q36 89 94 89q10 0 23 -2.5t29 -8.5t27 -20t11 -34q0 -27 -23 -50t-58.5 -43t-72.5 -43t-70 -62.5t-47 -89.5zM131 -87l218 -59l53 200l-217 59z" />
    <glyph glyph-name=".null" horiz-adv-x="0" 
 />
    <glyph glyph-name="nonmarkingreturn" horiz-adv-x="333" 
 />
    <glyph glyph-name="uni0017" horiz-adv-x="269" 
 />
    <glyph glyph-name="space" unicode=" " horiz-adv-x="269" 
 />
    <glyph glyph-name="exclam" unicode="!" horiz-adv-x="324" 
d="M198 245h-71l-61 478h192zM239 0h-156v171h156v-171z" />
    <glyph glyph-name="quotedbl" unicode="&#x22;" horiz-adv-x="449" 
d="M176 448h-94l-16 286h125zM366 448h-94l-16 286h125z" />
    <glyph glyph-name="numbersign" unicode="#" horiz-adv-x="606" 
d="M562 426h-83l-31 -135h87v-92h-107l-45 -199h-105l45 199h-121l-46 -199h-105l46 199h-54v92h75l31 135h-79v92h100l46 196h104l-45 -196h121l45 196h104l-45 -196h62v-92zM253 426l-30 -135h121l31 135h-122z" />
    <glyph glyph-name="dollar" unicode="$" horiz-adv-x="557" 
d="M261 0h-35v89q-73 15 -125.5 57t-57.5 108h110q13 -52 73 -68v136q-34 8 -59 18t-50 27t-38 44.5t-13 63.5q0 69 45.5 108.5t114.5 50.5v80h35v-76q4 0 11 0.5t11 0.5t13.5 -0.5t14.5 -0.5v76h35v-81q129 -25 154 -150h-106q-8 35 -48 51v-128q36 -6 62 -14t51.5 -24
t39 -44.5t13.5 -68.5q0 -76 -46.5 -118t-119.5 -52v-85h-35v83q-6 -1 -18 -1q-14 0 -32 2v-84zM311 307l-50 8v-137q11 -1 50 -1v130zM261 419l50 -7v131q-20 2 -50 2v-126zM411 242q0 47 -65 60v-122q65 11 65 62zM170 482q0 -40 56 -56v114q-56 -14 -56 -58z" />
    <glyph glyph-name="percent" unicode="%" horiz-adv-x="716" 
d="M148 358q-59 0 -97 50.5t-38 139.5q0 93 41 139.5t98 46.5q59 0 96.5 -49t37.5 -135q0 -88 -39 -140t-99 -52zM149 650q-37 0 -37 -104t41 -104q20 0 27 21.5t7 68.5q0 118 -38 118zM172 -20h-116l485 754h114zM564 -18q-59 0 -97 50.5t-38 139.5q0 93 41 139.5t98 46.5
q59 0 96.5 -49t37.5 -135q0 -88 -39 -140t-99 -52zM565 274q-37 0 -37 -104t41 -104q20 0 27 21.5t7 68.5q0 118 -38 118z" />
    <glyph glyph-name="ampersand" unicode="&#x26;" horiz-adv-x="729" 
d="M705 121l9 -103q-36 -36 -116 -36q-76 0 -132 45q-68 -45 -169 -45q-111 0 -189 62t-78 167q0 78 45.5 134.5t124.5 83.5q-35 70 -35 134q0 81 58 126t138 45q76 0 127 -42.5t51 -119.5q0 -126 -158 -193q59 -109 110 -173q57 51 90 145l113 -40q-35 -115 -114 -191v-4
q26 -12 49 -12q50 0 76 17zM247 315q-51 -30 -51 -90q0 -50 28.5 -80t79.5 -30q33 0 59 13q-53 69 -116 187zM324 474q49 21 70 42.5t21 59.5q0 60 -53 60q-60 0 -60 -66q0 -37 22 -96z" />
    <glyph glyph-name="quotesingle" unicode="'" horiz-adv-x="259" 
d="M176 448h-94l-16 286h125z" />
    <glyph glyph-name="parenleft" unicode="(" horiz-adv-x="486" 
d="M243 341q0 -137 65 -249t149 -139l-53 -70q-126 34 -213 152t-87 306t87 305.5t213 151.5l53 -70q-84 -26 -149 -138t-65 -249z" />
    <glyph glyph-name="parenright" unicode=")" horiz-adv-x="486" 
d="M243 341q0 136 -65.5 248.5t-148.5 138.5l53 70q126 -34 213 -151.5t87 -305.5t-87 -306t-213 -152l-53 70q84 27 149 139t65 249z" />
    <glyph glyph-name="asterisk" unicode="*" horiz-adv-x="416" 
d="M231 485q-1 -4 -1 -15t4.5 -42t4.5 -44q0 -43 -32 -43q-31 0 -31 43q0 14 5 45t5 41q0 7 -2 15q-20 -1 -58 -30.5t-60 -29.5q-15 0 -22.5 8t-7.5 20q0 22 29 35.5t59 23t32 20.5q-2 10 -32 19.5t-59 23.5t-29 36q0 11 7.5 20t22.5 9q22 0 60 -30t58 -30q2 8 2 16
q0 10 -5 41t-5 44q0 43 33 43q30 0 30 -43q0 -14 -4.5 -44t-4.5 -41q0 -12 1 -16q20 0 58 30t60 30q16 0 23.5 -10t7.5 -21q0 -26 -59.5 -46t-61.5 -31q2 -9 21.5 -17t41.5 -14t40 -18t18 -29q0 -12 -8.5 -20.5t-23.5 -8.5q-22 0 -59.5 29.5t-57.5 30.5z" />
    <glyph glyph-name="plus" unicode="+" horiz-adv-x="537" 
d="M320 145h-104v152h-150v102h150v152h104v-152h151v-102h-151v-152z" />
    <glyph glyph-name="comma" unicode="," horiz-adv-x="295" 
d="M148 -155h-82l48 105q10 21 10 38v12h-55v171h160v-133q0 -20 -9 -36z" />
    <glyph glyph-name="hyphen" unicode="-" horiz-adv-x="334" 
d="M305 241h-276v98h276v-98z" />
    <glyph glyph-name="period" unicode="." horiz-adv-x="288" 
d="M222 0h-156v171h156v-171z" />
    <glyph glyph-name="slash" unicode="/" horiz-adv-x="445" 
d="M115 -39h-115l330 763h115z" />
    <glyph glyph-name="zero" unicode="0" horiz-adv-x="694" 
d="M344 -18q-132 0 -218 100.5t-86 277.5q0 96 27.5 170.5t73 117.5t100 64.5t113.5 21.5q132 0 216 -98t84 -270q0 -176 -87.5 -280t-222.5 -104zM355 123q65 0 99 50.5t34 174.5q0 244 -139 244q-142 0 -142 -237q0 -232 148 -232z" />
    <glyph glyph-name="one" unicode="1" horiz-adv-x="379" 
d="M313 0h-166v482h-129v130q123 0 156 102h139v-714z" />
    <glyph glyph-name="two" unicode="2" horiz-adv-x="678" 
d="M624 0h-586v121q222 120 335 220q93 83 93 150q0 43 -31 68.5t-81 25.5q-59 0 -97 -34.5t-38 -93.5q0 -18 6 -50h-150q-9 41 -9 75q0 117 83 184.5t201 67.5q114 0 199.5 -62.5t85.5 -172.5q0 -127 -122 -226q-15 -12 -33.5 -24.5t-33.5 -22t-38 -21.5l-34.5 -18
t-36.5 -18.5t-32 -16.5v-4h319v-148z" />
    <glyph glyph-name="three" unicode="3" horiz-adv-x="659" 
d="M364 314h-117v104h84q123 0 123 85q0 89 -120 89q-64 0 -96.5 -30.5t-32.5 -97.5h-136q-2 22 -2 38q0 107 75 169.5t197 62.5q118 0 199.5 -56.5t81.5 -156.5q0 -113 -98 -155v-4q49 -19 76 -64t27 -98q0 -92 -79.5 -155t-210.5 -63q-58 0 -110 13.5t-95.5 42t-69.5 77.5
t-26 114q0 27 4 51h140q0 -74 38.5 -114.5t111.5 -40.5q57 0 93.5 25t36.5 75q0 40 -24.5 64.5t-69.5 24.5z" />
    <glyph glyph-name="four" unicode="4" horiz-adv-x="662" 
d="M538 0h-163v155h-357v120l326 439h194v-422h106v-137h-106v-155zM378 292v248h-4l-186 -248h190z" />
    <glyph glyph-name="five" unicode="5" horiz-adv-x="656" 
d="M566 565h-333l-12 -142h4q63 37 140 37q113 0 183 -59.5t70 -167.5q0 -121 -85 -186t-208 -65q-89 0 -168.5 37t-128.5 113l118 78q41 -49 79 -69.5t97 -20.5q130 0 130 102q0 54 -33.5 81t-92.5 27q-40 0 -78.5 -11.5t-57.5 -32.5l-119 70l27 358h474z" />
    <glyph glyph-name="six" unicode="6" horiz-adv-x="691" 
d="M364 603q-73 0 -115 -55.5t-49 -135.5h4q72 82 185 82q108 0 182.5 -71.5t74.5 -185.5q0 -118 -81 -186.5t-209 -68.5q-153 0 -235.5 97.5t-82.5 255.5q0 57 11 112t36 107.5t62 92t94.5 63.5t127.5 24q105 0 177.5 -51.5t84.5 -150.5h-149q-11 35 -44 53t-74 18z
M348 370q-53 0 -93 -29t-46 -82q0 -56 39.5 -100t104.5 -44q55 0 91 33.5t36 92.5q0 61 -37.5 95t-94.5 34z" />
    <glyph glyph-name="seven" unicode="7" horiz-adv-x="619" 
d="M336 0h-187q7 134 84.5 288.5t178.5 272.5v4h-400v149h588v-136q-208 -217 -264 -578z" />
    <glyph glyph-name="eight" unicode="8" horiz-adv-x="682" 
d="M612 539q0 -52 -26.5 -85t-77.5 -59v-4q140 -44 140 -178q0 -79 -51.5 -133t-124 -76t-158.5 -22q-77 0 -137.5 18.5t-101.5 65t-41 116.5q0 66 34.5 112t93.5 63v4q-59 28 -87 62.5t-28 91.5q0 73 46 124.5t110.5 73t137.5 21.5q51 0 98 -12t86.5 -34.5t63 -61
t23.5 -87.5zM281 313q-92 -23 -92 -97q0 -52 40.5 -78.5t101.5 -26.5q59 0 104.5 23t45.5 61q0 71 -200 118zM383 436q79 26 79 86q0 46 -41 66.5t-91 20.5q-47 0 -81.5 -18t-34.5 -56q0 -32 28 -53.5t60.5 -30t80.5 -15.5z" />
    <glyph glyph-name="nine" unicode="9" horiz-adv-x="688" 
d="M487 303h-4q-70 -81 -185 -81q-109 0 -182.5 71t-73.5 183q0 118 82.5 188t209.5 70q150 0 233 -98t83 -255q0 -57 -11 -111.5t-36 -107.5t-62 -92.5t-94 -63.5t-127 -24q-66 0 -120 20t-93.5 67t-48.5 115h148q11 -35 43.5 -52t73.5 -17q74 0 114.5 53t49.5 135z
M341 350q54 0 93 29.5t45 81.5q0 56 -39.5 99.5t-104.5 43.5q-55 0 -90.5 -32.5t-35.5 -91.5t36.5 -94.5t95.5 -35.5z" />
    <glyph glyph-name="colon" unicode=":" horiz-adv-x="288" 
d="M222 0h-156v171h156v-171zM222 332h-156v170h156v-170z" />
    <glyph glyph-name="semicolon" unicode=";" horiz-adv-x="295" 
d="M148 -155h-82l48 105q10 21 10 38v12h-55v171h160v-133q0 -20 -9 -36zM225 332h-156v170h156v-170z" />
    <glyph glyph-name="less" unicode="&#x3c;" horiz-adv-x="537" 
d="M472 84l-406 224v86l406 225v-122l-294 -145l294 -146v-122z" />
    <glyph glyph-name="equal" unicode="=" horiz-adv-x="537" 
d="M472 405h-406v104h406v-104zM472 188h-406v103h406v-103z" />
    <glyph glyph-name="greater" unicode="&#x3e;" horiz-adv-x="537" 
d="M472 308l-406 -224v122l295 146l-295 145v122l406 -225v-86z" />
    <glyph glyph-name="question" unicode="?" horiz-adv-x="557" 
d="M351 253h-153v17q0 58 27 99q16 23 55.5 52t54.5 46q25 29 25 63q0 68 -81 68q-54 0 -79.5 -32.5t-25.5 -84.5h-143q-1 5 -1 19q0 110 73 172t190 62q36 0 68.5 -6t63.5 -20t53.5 -35.5t36 -54t13.5 -73.5q0 -69 -41 -113q-12 -13 -57 -48.5t-60 -61.5q-18 -31 -19 -69z
M349 0h-156v170h156v-170z" />
    <glyph glyph-name="at" unicode="@" horiz-adv-x="784" 
d="M667 12v-87q-99 -51 -237 -51q-180 0 -286 93t-106 282q0 184 102 290.5t282 106.5q145 0 239 -72.5t94 -220.5q0 -118 -58.5 -183.5t-144.5 -65.5q-71 0 -90 42q-48 -46 -102 -46q-57 0 -86.5 41t-29.5 106q0 88 51.5 139.5t126.5 51.5q45 0 80 -30l7 20h66l-32 -202
q-2 -16 -2 -22q0 -20 24 -20q39 0 73.5 41t34.5 121q0 110 -70 163.5t-183 53.5q-139 0 -213 -79.5t-74 -227.5q0 -298 301 -298q144 0 233 54zM450 218l15 101q-2 19 -14.5 31.5t-33.5 12.5q-35 0 -53.5 -33.5t-18.5 -83.5q0 -71 46 -71q20 0 37.5 11.5t21.5 31.5z" />
    <glyph glyph-name="A" unicode="A" horiz-adv-x="771" 
d="M759 0h-194l-38 94h-290l-38 -94h-187l334 714h96zM478 223l-94 241h-4l-95 -241h193z" />
    <glyph glyph-name="B" unicode="B" horiz-adv-x="745" 
d="M423 0h-357v714h431q80 0 132.5 -48t52.5 -126q0 -57 -30 -97.5t-86 -56.5v-4q147 -37 147 -185q0 -40 -11 -71t-27 -51.5t-42.5 -35t-49.5 -22t-55.5 -11.5t-53.5 -5t-51 -1zM441 312h-201v-169h196q45 0 78.5 20.5t33.5 66.5q0 25 -10.5 42t-28 25.5t-34 11.5t-34.5 3z
M452 429q37 0 55.5 22t18.5 55q0 31 -17.5 52t-53.5 21h-215v-150h212z" />
    <glyph glyph-name="C" unicode="C" horiz-adv-x="813" 
d="M413 734q140 0 241 -80.5t123 -219.5h-171q-22 66 -72 105.5t-121 39.5q-89 0 -145 -60t-56 -158t55.5 -161t142.5 -63q68 0 122 39t75 105h166q-24 -130 -125.5 -214.5t-239.5 -84.5q-159 0 -264.5 109.5t-105.5 268.5t105 266.5t270 107.5z" />
    <glyph glyph-name="D" unicode="D" horiz-adv-x="729" 
d="M331 0h-265v714h265q111 0 195 -52.5t124.5 -133t40.5 -173.5q0 -147 -99 -251t-261 -104zM240 149h84q86 0 139.5 51.5t53.5 152.5q0 100 -53 155.5t-141 55.5h-83v-415z" />
    <glyph glyph-name="E" unicode="E" horiz-adv-x="688" 
d="M638 0h-572v714h571v-146h-397v-131h321v-140h-321v-151h398v-146z" />
    <glyph glyph-name="F" unicode="F" horiz-adv-x="642" 
d="M543 291h-303v-291h-174v714h554v-145h-380v-135h303v-143z" />
    <glyph glyph-name="G" unicode="G" horiz-adv-x="835" 
d="M775 0h-137v96h-4q-33 -50 -96 -82t-148 -32q-106 0 -187 52.5t-123 138t-42 188.5q0 165 105.5 269t269.5 104q129 0 223.5 -67.5t120.5 -195.5h-166q-20 53 -68 80.5t-108 27.5q-90 0 -146.5 -60t-56.5 -164q0 -99 52 -164.5t145 -65.5q65 0 110 32.5t56 83.5h-179v127
h379v-368z" />
    <glyph glyph-name="H" unicode="H" horiz-adv-x="744" 
d="M678 0h-172v267h-266v-267h-174v714h174v-292h266v292h172v-714z" />
    <glyph glyph-name="I" unicode="I" horiz-adv-x="305" 
d="M239 0h-173v714h173v-714z" />
    <glyph glyph-name="J" unicode="J" horiz-adv-x="500" 
d="M164 -18q-54 0 -99 13t-65 30l47 134q47 -22 97 -22q55 0 87.5 29t32.5 82v466h174v-481q0 -120 -77.5 -185.5t-196.5 -65.5z" />
    <glyph glyph-name="K" unicode="K" horiz-adv-x="773" 
d="M741 0h-194l-193 323l-114 -103v-220h-174v714h174v-290l289 290h244l-300 -271z" />
    <glyph glyph-name="L" unicode="L" horiz-adv-x="625" 
d="M613 0h-547v714h174v-559h373v-155z" />
    <glyph glyph-name="M" unicode="M" horiz-adv-x="897" 
d="M831 0h-174v531h-4l-164 -531h-98l-166 531h-4v-531h-155v714h265l119 -440h4l126 440h251v-714z" />
    <glyph glyph-name="N" unicode="N" 
d="M697 0h-150l-324 490h-4v-490h-153v714h224l246 -388h4v388h157v-714z" />
    <glyph glyph-name="O" unicode="O" horiz-adv-x="817" 
d="M406 -18q-160 0 -264 108.5t-104 272.5q0 168 109 269.5t269 101.5t261.5 -101.5t101.5 -263.5q0 -166 -105.5 -276.5t-267.5 -110.5zM407 137q86 0 142.5 63t56.5 158q0 93 -54 157t-144 64q-89 0 -142.5 -63.5t-53.5 -157.5q0 -95 54 -158t141 -63z" />
    <glyph glyph-name="P" unicode="P" horiz-adv-x="741" 
d="M243 0h-177v714h420q56 0 101 -22.5t71.5 -59.5t40.5 -79.5t14 -86.5q0 -102 -68.5 -167t-165.5 -65h-236v-234zM449 566h-209v-186h215q40 0 62 23t22 67q0 46 -24 71t-66 25z" />
    <glyph glyph-name="Q" unicode="Q" horiz-adv-x="817" 
d="M408 -18q-163 0 -266.5 108t-103.5 272q0 169 109 270.5t269 101.5q159 0 261 -101.5t102 -264.5q0 -189 -132 -300q48 -54 127 -90l-64 -120q-42 5 -99 52.5t-84 90.5q-59 -19 -119 -19zM407 137q86 0 142.5 63t56.5 158q0 93 -54 157t-144 64q-89 0 -142.5 -63.5
t-53.5 -157.5q0 -95 54 -158t141 -63z" />
    <glyph glyph-name="R" unicode="R" horiz-adv-x="757" 
d="M737 0h-180q-12 19 -16.5 41.5t-9.5 80.5q-2 26 -4.5 43t-10 39.5t-18 35.5t-29 22.5t-43.5 9.5h-186v-272h-174v714h373q275 0 275 -199q0 -71 -34 -116t-93 -62v-4q64 -26 89.5 -85.5t32.5 -142.5q0 -2 1 -16t1.5 -17t2 -15t3 -16.5t4.5 -13t7 -15t9 -12.5zM454 573
h-214v-164h222q37 0 57.5 21.5t20.5 60.5q0 82 -86 82z" />
    <glyph glyph-name="S" unicode="S" horiz-adv-x="695" 
d="M642 501h-155q-12 92 -146 92q-19 0 -37.5 -2.5t-43.5 -9t-40 -22.5t-15 -40q0 -51 76 -69q21 -5 102 -19t109 -20q84 -19 126 -65.5t42 -128.5q0 -64 -25.5 -111.5t-69 -73.5t-94 -38t-108.5 -12q-133 0 -229.5 62t-113.5 191h156q26 -111 193 -111q19 0 37.5 2t45 9
t42.5 25t16 45t-16.5 41t-48.5 22q-24 6 -101.5 18.5t-117.5 24.5q-79 22 -125 68t-46 130q0 60 25 105t67.5 70.5t91 37.5t103.5 12q79 0 143 -23t108.5 -77.5t48.5 -132.5z" />
    <glyph glyph-name="T" unicode="T" horiz-adv-x="618" 
d="M396 0h-174v559h-210v155h594v-155h-210v-559z" />
    <glyph glyph-name="U" unicode="U" 
d="M535 297v417h166v-441q0 -144 -82 -217.5t-234 -73.5q-159 0 -241 78t-82 224v430h174v-414q0 -80 35.5 -122.5t117.5 -42.5q81 0 113.5 41.5t32.5 120.5z" />
    <glyph glyph-name="V" unicode="V" horiz-adv-x="676" 
d="M420 0h-161l-247 714h182l153 -478h4l147 478h166z" />
    <glyph glyph-name="W" unicode="W" horiz-adv-x="1079" 
d="M870 0h-196l-138 483h-4l-145 -483h-198l-175 714h182l113 -489h4l132 489h184l135 -489h4l129 489h168z" />
    <glyph glyph-name="X" unicode="X" horiz-adv-x="710" 
d="M702 0h-211l-143 242l-153 -242h-187l244 373l-232 341h206l129 -217l133 217h187l-223 -340z" />
    <glyph glyph-name="Y" unicode="Y" horiz-adv-x="698" 
d="M436 0h-173v295l-263 419h200l167 -273l166 273h165l-262 -419v-295z" />
    <glyph glyph-name="Z" unicode="Z" horiz-adv-x="666" 
d="M615 0h-569v85l329 486h-307v143h552v-70l-331 -503h326v-141z" />
    <glyph glyph-name="bracketleft" unicode="[" horiz-adv-x="401" 
d="M363 -125h-240v944h240v-101h-125v-741h125v-102z" />
    <glyph glyph-name="backslash" unicode="\" horiz-adv-x="445" 
d="M445 -39h-115l-330 763h114z" />
    <glyph glyph-name="bracketright" unicode="]" horiz-adv-x="401" 
d="M278 -125h-240v102h125v741h-125v101h240v-944z" />
    <glyph glyph-name="asciicircum" unicode="^" horiz-adv-x="485" 
d="M456 375h-131l-86 217l-85 -217h-126l156 339h111z" />
    <glyph glyph-name="underscore" unicode="_" horiz-adv-x="554" 
d="M547 -124h-539v84h539v-84z" />
    <glyph glyph-name="grave" unicode="`" horiz-adv-x="391" 
d="M324 564h-85l-173 176h159z" />
    <glyph glyph-name="a" unicode="a" horiz-adv-x="592" 
d="M592 115v-110q-40 -23 -107 -23q-49 0 -81.5 22.5t-41.5 67.5h-4q-28 -41 -77.5 -65t-103.5 -24q-70 0 -107.5 41t-37.5 110q0 55 24.5 95t65.5 61t84.5 30t92.5 9q21 0 49 -2v11q0 43 -19 59t-58 16q-38 0 -59.5 -15.5t-27.5 -55.5h-138q4 103 54.5 138t158.5 35
q131 0 185 -45.5t54 -172.5v-133q0 -59 51 -59q20 0 43 10zM351 169v83q-40 4 -43 4q-48 0 -90.5 -25t-42.5 -74q0 -58 65 -58q37 0 68.5 20t42.5 50z" />
    <glyph glyph-name="b" unicode="b" horiz-adv-x="589" 
d="M168 0h-111v734h152v-274h4q47 55 132 55q97 0 155.5 -74t58.5 -184q0 -118 -66.5 -196.5t-170.5 -78.5q-98 0 -142 66h-4zM307 395q-66 0 -98 -67v-148q25 -78 95 -78q53 0 77.5 42.5t24.5 109.5q0 141 -99 141z" />
    <glyph glyph-name="c" unicode="c" horiz-adv-x="610" 
d="M313 515q103 0 176 -56.5t88 -158.5h-143q-10 39 -41 64t-80 25q-62 0 -96 -39.5t-34 -102.5q0 -65 35.5 -102t94.5 -37q50 0 82 25.5t44 66.5h141q-13 -99 -88.5 -158.5t-181.5 -59.5q-117 0 -198.5 70.5t-81.5 191.5t81 196t202 75z" />
    <glyph glyph-name="d" unicode="d" horiz-adv-x="590" 
d="M533 0h-140v45h-4q-21 -31 -60.5 -47t-81.5 -16q-95 0 -156 76t-61 197q0 114 56 187t158 73q85 0 132 -55h4v274h153v-734zM282 395q-99 0 -99 -141q0 -67 24.5 -109.5t77.5 -42.5q70 0 95 78v148q-32 67 -98 67z" />
    <glyph glyph-name="e" unicode="e" horiz-adv-x="609" 
d="M578 235h-402q4 -63 42.5 -98t98.5 -35q82 0 112 63h131q-18 -83 -90.5 -133t-168.5 -50q-120 0 -195.5 77.5t-75.5 192.5q0 118 80 190.5t199 72.5q116 0 193 -69.5t77 -180.5q0 -21 -1 -30zM181 302h245q-4 47 -35.5 75t-83.5 28q-53 0 -85.5 -29t-40.5 -74z" />
    <glyph glyph-name="f" unicode="f" horiz-adv-x="414" 
d="M264 0h-152v385h-95v112h95v59q0 101 46 146t139 45q76 0 105 -21v-118q-29 10 -71 10q-67 0 -67 -62v-59h133v-112h-133v-385z" />
    <glyph glyph-name="g" unicode="g" horiz-adv-x="549" 
d="M537 503v-115q-17 5 -33 5q-32 0 -44 -16q8 -36 8 -61q0 -85 -62.5 -130t-151.5 -45q-51 0 -92 16q-14 -11 -14 -27q0 -39 81 -39q25 0 82 4.5t74 4.5q67 0 109.5 -39t42.5 -102q0 -51 -30 -88t-78 -55.5t-95.5 -26.5t-94.5 -8q-40 0 -77.5 6t-76 20t-62 43t-23.5 70
q0 71 73 102q-38 31 -38 84q0 64 56 93q-48 48 -48 124q0 91 61 141.5t150 50.5q98 0 154 -49q23 41 88 41q17 0 41 -4zM257 230q46 0 68 26t22 69q0 46 -24 72.5t-67 26.5q-45 0 -68 -28.5t-23 -70.5q0 -40 21.5 -67.5t70.5 -27.5zM225 -29q-40 0 -82 13
q-12 -4 -19.5 -15.5t-7.5 -25.5q0 -19 15 -32t39.5 -18.5t42 -7t34.5 -1.5q20 0 42 2t50.5 8t46.5 20.5t18 35.5q0 30 -52 30q-20 0 -62 -4.5t-65 -4.5z" />
    <glyph glyph-name="h" unicode="h" horiz-adv-x="597" 
d="M544 0h-153v323q0 70 -72 70q-35 0 -65.5 -17t-44.5 -44v-332h-152v734h151v-274h4q58 55 146 55q54 0 93 -19.5t58 -51t27 -63t8 -64.5v-317z" />
    <glyph glyph-name="i" unicode="i" horiz-adv-x="266" 
d="M209 0h-152v497h152v-497zM210 577h-154v157h154v-157z" />
    <glyph glyph-name="j" unicode="j" horiz-adv-x="277" 
d="M-15 -208v124q18 -3 31 -3q51 0 51 48v536h153v-536q0 -87 -41.5 -132.5t-119.5 -45.5q-39 0 -74 9zM220 577h-153v157h153v-157z" />
    <glyph glyph-name="k" unicode="k" horiz-adv-x="594" 
d="M594 0h-181l-128 217l-76 -60v-157h-152v734h152v-414l192 177h187l-204 -184z" />
    <glyph glyph-name="l" unicode="l" horiz-adv-x="266" 
d="M209 0h-152v734h152v-734z" />
    <glyph glyph-name="m" unicode="m" horiz-adv-x="880" 
d="M827 0h-151v323q0 30 -19.5 50.5t-52.5 20.5t-56.5 -22t-30.5 -60v-312h-148v326q0 30 -20 48.5t-53 18.5q-67 0 -87 -74v-319h-152v497h152v-56h4q46 74 137 74q105 0 147 -86h4q16 37 55.5 61.5t96.5 24.5q75 0 124.5 -43t49.5 -111v-361z" />
    <glyph glyph-name="n" unicode="n" horiz-adv-x="597" 
d="M544 0h-153v323q0 70 -72 70q-35 0 -65.5 -17t-44.5 -44v-332h-152v497h151v-37h4q61 55 146 55q54 0 93 -19.5t58 -51t27 -63t8 -64.5v-317z" />
    <glyph glyph-name="o" unicode="o" horiz-adv-x="627" 
d="M597 247q0 -118 -81 -191.5t-200 -73.5q-124 0 -205 78t-81 192q0 115 82 189t204 74q123 0 202 -76t79 -192zM445 250q0 67 -36 103t-97 36q-60 0 -94.5 -35.5t-34.5 -100.5t34.5 -105t97.5 -40q62 0 96 39t34 103z" />
    <glyph glyph-name="p" unicode="p" horiz-adv-x="589" 
d="M57 497h139v-46h4q19 29 58.5 46.5t83.5 17.5q94 0 155.5 -75.5t61.5 -199.5q0 -119 -58.5 -188.5t-154.5 -69.5q-85 0 -133 54h-4v-249h-152v710zM307 102q99 0 99 140q0 67 -24.5 109.5t-77.5 42.5q-70 0 -95 -77v-148q31 -67 98 -67z" />
    <glyph glyph-name="q" unicode="q" horiz-adv-x="590" 
d="M421 497h112v-710h-153v250h-4q-46 -55 -131 -55q-97 0 -156 73.5t-59 183.5q0 118 66.5 197t169.5 79q100 0 143 -66h4zM283 102q66 0 97 67v148q-24 77 -95 77q-53 0 -77.5 -42.5t-24.5 -109.5q0 -140 100 -140z" />
    <glyph glyph-name="r" unicode="r" horiz-adv-x="445" 
d="M209 0h-152v497h150v-58h4q71 75 158 75q33 0 59 -12v-142q-45 25 -93 25q-45 0 -79.5 -22t-46.5 -61v-302z" />
    <glyph glyph-name="s" unicode="s" horiz-adv-x="536" 
d="M491 346h-121q-14 56 -103 56q-85 0 -85 -44q0 -27 45 -37q4 -1 85.5 -9.5t118.5 -27.5q72 -36 72 -126q0 -48 -19 -83.5t-52.5 -55t-73 -28.5t-86.5 -9q-102 0 -170 43.5t-74 138.5h128q11 -71 113 -71q91 0 91 50q0 34 -56 46q-6 1 -81 10.5t-110 24.5q-74 33 -74 119
q0 61 36 101.5t84.5 55.5t106.5 15q90 0 154.5 -41t70.5 -128z" />
    <glyph glyph-name="t" unicode="t" horiz-adv-x="434" 
d="M422 132v-97q-13 -28 -51.5 -40t-78.5 -12q-67 0 -120 34t-53 101v267h-102v112h49q34 0 49 13t20 46l17 132h119v-191h146v-112h-146v-222q0 -46 66 -46q49 0 85 15z" />
    <glyph glyph-name="u" unicode="u" horiz-adv-x="616" 
d="M559 0h-153v51h-4q-53 -69 -159 -69q-92 0 -141 52t-49 151v312h153v-299q0 -45 25.5 -68.5t68.5 -23.5q86 0 106 102v289h153v-497z" />
    <glyph glyph-name="v" unicode="v" horiz-adv-x="547" 
d="M357 0h-148l-201 497h166l111 -311h4l109 311h141z" />
    <glyph glyph-name="w" unicode="w" horiz-adv-x="845" 
d="M679 0h-148l-97 331h-4l-94 -331h-162l-166 497h164l91 -322h4l88 322h153l90 -322h4l88 322h147z" />
    <glyph glyph-name="x" unicode="x" horiz-adv-x="600" 
d="M594 0h-192l-118 155l-109 -155h-167l197 250l-199 247h187l104 -140l106 140h171l-194 -238z" />
    <glyph glyph-name="y" unicode="y" horiz-adv-x="601" 
d="M212 -212h-169v127h116q20 0 32.5 15t28.5 52l7 17l-219 498h164l134 -316h4l129 316h154l-226 -538q-35 -83 -71 -127t-84 -44z" />
    <glyph glyph-name="z" unicode="z" horiz-adv-x="539" 
d="M248 116h247v-116h-453v86l232 299h-207v112h420v-75z" />
    <glyph glyph-name="braceleft" unicode="{" horiz-adv-x="423" 
d="M384 -125h-87q-132 0 -132 144v222q0 34 -9.5 46.5t-32.5 12.5h-30v94h30q24 0 33 12t9 47v221q0 145 132 145h87v-104h-67q-22 0 -30 -12t-8 -37v-226q0 -35 -16.5 -59.5t-48.5 -31.5v-4q32 -6 48.5 -31t16.5 -60v-226q0 -26 8.5 -38t29.5 -12h67v-103z" />
    <glyph glyph-name="bar" unicode="|" horiz-adv-x="309" 
d="M205 -166h-101v990h101v-990z" />
    <glyph glyph-name="braceright" unicode="}" horiz-adv-x="423" 
d="M124 -125h-87v103h67q21 0 29.5 12t8.5 38v226q0 35 16.5 60t48.5 31v4q-32 7 -48.5 31.5t-16.5 59.5v226q0 25 -8 37t-30 12h-67v104h87q132 0 132 -145v-221q0 -35 9 -47t33 -12h30v-94h-30q-23 0 -32.5 -12.5t-9.5 -46.5v-222q0 -144 -132 -144z" />
    <glyph glyph-name="asciitilde" unicode="~" horiz-adv-x="648" 
d="M538 412h43q0 -160 -131 -160q-12 0 -24.5 1.5t-21 3.5t-22.5 6.5t-20 6.5t-22 8.5t-21 8.5q-70 27 -122 27q-75 0 -87 -63h-44q0 160 131 160q12 0 24.5 -1.5t21.5 -3.5t23 -6.5t19.5 -6.5t22.5 -8.5t21 -8.5q70 -27 121 -27q76 0 88 63z" />
    <glyph glyph-name="nbspace" unicode="&#xa0;" horiz-adv-x="269" 
 />
    <glyph glyph-name="exclamdown" unicode="&#xa1;" horiz-adv-x="324" 
d="M126 309h71l61 -478h-192zM85 554h156v-171h-156v171z" />
    <glyph glyph-name="cent" unicode="&#xa2;" horiz-adv-x="512" 
d="M293 0h-72v138q-82 13 -132.5 74.5t-50.5 145.5q0 83 50.5 143t132.5 72v141h72v-141q72 -9 121.5 -58.5t58.5 -126.5h-98q-18 71 -82 90v-243q30 8 53 32t30 57h94q-7 -69 -57.5 -121t-119.5 -64v-139zM140 359q0 -46 22 -80t59 -44v242q-38 -10 -59.5 -41.5
t-21.5 -76.5z" />
    <glyph glyph-name="sterling" unicode="&#xa3;" horiz-adv-x="717" 
d="M590 242h94q3 -26 3 -49q0 -93 -43 -152t-133 -59t-165 73q-70 -73 -164 -73q-76 0 -119 40t-43 108q0 67 40.5 102t107.5 35q56 0 100 -25l2 1q-3 31 -23 80h-152v87h113q-24 51 -24 106q0 102 66.5 160t169.5 58q89 0 153 -45t89 -131l-129 -49q-12 39 -33 59.5
t-61 20.5t-64.5 -22t-24.5 -62q0 -38 23 -95h174v-87h-148q12 -38 12 -72q0 -36 -11 -69q9 -15 50 -33.5t71 -18.5q27 0 43.5 18.5t21.5 38.5t5 42q0 10 -1 13zM262 130q-44 35 -83 35q-20 0 -37 -8.5t-17 -29.5q0 -20 16 -31t36 -11q21 0 46 13.5t39 31.5z" />
    <glyph glyph-name="currency" unicode="&#xa4;" horiz-adv-x="680" 
d="M125 338q0 54 28 107l-69 63l82 81l64 -70q49 32 111 32q60 0 110 -32l63 70l82 -81l-67 -62q29 -55 29 -109q0 -56 -29 -105l67 -63l-81 -84l-65 71q-55 -30 -109 -30q-59 0 -109 30l-66 -71l-82 84l69 64q-28 48 -28 105zM481 338q0 61 -40.5 98.5t-99.5 37.5
q-58 0 -97.5 -37.5t-39.5 -98.5t39.5 -98.5t97.5 -37.5q59 0 99.5 37.5t40.5 98.5z" />
    <glyph glyph-name="yen" unicode="&#xa5;" horiz-adv-x="628" 
d="M559 107h-168v-107h-159v107h-167v96h167v103h-167v96h146l-185 312h172l119 -229l118 229h165l-190 -312h149v-96h-168v-103h168v-96z" />
    <glyph glyph-name="brokenbar" unicode="&#xa6;" horiz-adv-x="309" 
d="M205 -166h-101v417h101v-417zM205 426h-101v398h101v-398z" />
    <glyph glyph-name="section" unicode="&#xa7;" horiz-adv-x="672" 
d="M588 526h-140q-13 83 -134 83q-16 0 -32 -2t-38.5 -8t-36.5 -21t-14 -37t16 -37t32.5 -20t45.5 -11q30 -7 73.5 -12.5t62.5 -9.5q92 -18 135 -60t43 -117q0 -91 -65 -139q83 -37 83 -148q0 -73 -38.5 -121.5t-96 -68t-130.5 -19.5q-119 0 -205.5 55.5t-103.5 171.5h141
q13 -54 61 -76.5t108 -22.5q18 0 35.5 2t41.5 8.5t39 22.5t15 40q0 43 -58 56q-22 5 -67.5 12.5t-78.5 13.5t-75 20.5t-68.5 34t-45 54t-18.5 79.5q0 104 80 142q-98 39 -98 144q0 101 76 151t184 50q71 0 129 -21.5t98 -70t44 -118.5zM198 266q0 -27 17 -45.5t45.5 -26
t50.5 -10t45 -2.5q125 0 125 71q0 80 -147 80q-69 0 -102.5 -15.5t-33.5 -51.5z" />
    <glyph glyph-name="dieresis" unicode="&#xa8;" horiz-adv-x="526" 
d="M220 591h-146v136h146v-136zM454 591h-148v136h148v-136z" />
    <glyph glyph-name="ordfeminine" unicode="&#xaa;" horiz-adv-x="395" 
d="M360 503v-70q-22 -13 -67 -13q-29 0 -49.5 13t-24.5 38q-14 -23 -40.5 -37t-55.5 -14q-36 0 -55.5 23t-19.5 61q0 33 15 55.5t42.5 33t50.5 14.5t54 5v7q0 31 -29 31q-28 0 -36 -32h-89q3 57 30.5 76t86.5 19q75 0 105.5 -26t30.5 -96v-65q0 -25 25 -25q18 0 26 2z
M212 528v38q-24 0 -47.5 -10.5t-23.5 -36.5q0 -25 24 -25q15 0 29 9.5t18 24.5z" />
    <glyph glyph-name="guillemotleft" unicode="&#xab;" horiz-adv-x="543" 
d="M231 396l-132 -93l132 -93v-127l-219 168v105l219 168v-128zM494 396l-132 -93l132 -93v-127l-219 168v105l219 168v-128z" />
    <glyph glyph-name="logicalnot" unicode="&#xac;" horiz-adv-x="622" 
d="M556 0h-139v340h-351v146h490v-486z" />
    <glyph glyph-name="macron" unicode="&#xaf;" horiz-adv-x="438" 
d="M373 621h-307v79h307v-79z" />
    <glyph glyph-name="degree" unicode="&#xb0;" horiz-adv-x="296" 
d="M149 456q-62 0 -92 37.5t-30 96.5q0 60 30 97t92 37q61 0 90.5 -37t29.5 -97q0 -59 -29.5 -96.5t-90.5 -37.5zM147 518q30 0 45 20.5t15 52.5t-15 51t-44 19q-59 0 -59 -71q0 -32 14.5 -52t43.5 -20z" />
    <glyph glyph-name="plusminus" unicode="&#xb1;" horiz-adv-x="537" 
d="M320 145h-104v152h-150v102h150v152h104v-152h151v-102h-151v-152zM471 0h-406v103h406v-103z" />
    <glyph glyph-name="twosuperior" unicode="&#xb2;" horiz-adv-x="378" 
d="M335 367h-298v72q67 40 130 87q74 55 74 88q0 32 -44 32q-25 0 -39.5 -14t-14.5 -40q0 -10 2 -22h-89q-5 20 -5 41q0 57 42.5 90t102.5 33q58 0 101 -31t43 -86q0 -50 -36.5 -86t-105.5 -72v-4h137v-88z" />
    <glyph glyph-name="threesuperior" unicode="&#xb3;" horiz-adv-x="370" 
d="M197 519h-56v62h36q55 0 55 35q0 34 -48 34q-28 0 -40 -11t-13 -40h-81q-1 6 -1 20q0 53 38 84t100 31q60 0 102 -28.5t42 -78.5q0 -53 -47 -76v-4q23 -10 35.5 -32.5t12.5 -46.5q0 -46 -43 -78t-104 -32q-60 0 -106.5 32.5t-46.5 90.5q0 18 2 26h84q0 -23 15 -44t51 -21
q50 0 50 38q0 16 -9.5 27.5t-27.5 11.5z" />
    <glyph glyph-name="acute" unicode="&#xb4;" horiz-adv-x="391" 
d="M152 564h-86l100 176h158z" />
    <glyph glyph-name="uni00B5" unicode="&#xb5;" horiz-adv-x="619" 
d="M208 -213h-151v710h151v-300q0 -42 27 -67t70 -25q84 0 105 103v289h152v-497h-152v50h-4q-47 -61 -128 -61q-35 0 -70 15v-217z" />
    <glyph glyph-name="paragraph" unicode="&#xb6;" horiz-adv-x="576" 
d="M298 1h-95v333q-70 11 -117.5 57.5t-47.5 124.5q0 83 55.5 140.5t159.5 57.5h296v-92h-80v-670q0 -32 34 -32q14 0 21 2v-80q-22 -5 -47 -5q-50 0 -76.5 29.5t-26.5 85.5v670h-128q-48 0 -73 -29t-25 -74q0 -44 24 -70.5t67 -26.5q35 0 59 21v-442z" />
    <glyph glyph-name="periodcentered" unicode="&#xb7;" horiz-adv-x="289" 
d="M222 263h-156v171h156v-171z" />
    <glyph glyph-name="cedilla" unicode="&#xb8;" horiz-adv-x="265" 
d="M144 -242h-70l29 50q8 13 8 28v7h-46v116h135v-88q0 -16 -7 -27z" />
    <glyph glyph-name="onesuperior" unicode="&#xb9;" horiz-adv-x="247" 
d="M200 367h-99v232h-63v77q52 0 80 48h82v-357z" />
    <glyph glyph-name="ordmasculine" unicode="&#xba;" horiz-adv-x="410" 
d="M363 565q0 -65 -45 -105t-112 -40q-69 0 -114 42.5t-45 105.5t46 104t113 41q68 0 112.5 -42t44.5 -106zM205 501q29 0 44 18.5t15 48.5q0 63 -60 63q-59 0 -59 -62q0 -31 15 -49.5t45 -18.5z" />
    <glyph glyph-name="guillemotright" unicode="&#xbb;" horiz-adv-x="543" 
d="M144 303l-132 93v128l219 -168v-105l-219 -168v127zM407 303l-132 93v128l219 -168v-105l-219 -168v127z" />
    <glyph glyph-name="onequarter" unicode="&#xbc;" horiz-adv-x="759" 
d="M190 367h-99v232h-63v77q52 0 80 48h82v-357zM136 -20h-116l485 754h114zM651 -9h-97v73h-167v71l149 213h115v-203h53v-81h-53v-73zM556 145v96h-4l-66 -96h70z" />
    <glyph glyph-name="onehalf" unicode="&#xbd;" horiz-adv-x="749" 
d="M190 367h-99v232h-63v77q52 0 80 48h82v-357zM136 -20h-116l485 754h114zM689 -9h-298v72q67 40 130 87q74 55 74 88q0 32 -44 32q-25 0 -39.5 -14t-14.5 -40q0 -10 2 -22h-89q-5 20 -5 41q0 57 42.5 90t102.5 33q58 0 101 -31t43 -86q0 -50 -36.5 -86t-105.5 -72v-4h137
v-88z" />
    <glyph glyph-name="threequarters" unicode="&#xbe;" horiz-adv-x="788" 
d="M183 519h-56v62h36q55 0 55 35q0 34 -48 34q-28 0 -40 -11t-13 -40h-81q-1 6 -1 20q0 53 38 84t100 31q60 0 102 -28.5t42 -78.5q0 -53 -47 -76v-4q23 -10 35.5 -32.5t12.5 -46.5q0 -46 -43 -78t-104 -32q-60 0 -106.5 32.5t-46.5 90.5q0 18 2 26h84q0 -23 15 -44t51 -21
q50 0 50 38q0 16 -9.5 27.5t-27.5 11.5zM201 -20h-116l485 754h114zM680 -9h-97v73h-167v71l149 213h115v-203h53v-81h-53v-73zM585 145v96h-4l-66 -96h70z" />
    <glyph glyph-name="questiondown" unicode="&#xbf;" horiz-adv-x="557" 
d="M206 301h153v-17q0 -58 -27 -99q-16 -23 -55.5 -52t-54.5 -46q-25 -29 -25 -63q0 -68 81 -68q54 0 79.5 32.5t25.5 84.5h143q1 -5 1 -19q0 -110 -73 -172t-190 -62q-36 0 -68.5 6t-63.5 20t-53.5 35.5t-36 54t-13.5 73.5q0 69 41 113q12 13 57 48.5t60 61.5q18 31 19 69z
M208 554h156v-170h-156v170z" />
    <glyph glyph-name="Agrave" unicode="&#xc0;" horiz-adv-x="771" 
d="M759 0h-194l-38 94h-290l-38 -94h-187l334 714h96zM478 223l-94 241h-4l-95 -241h193zM470 781h-85l-173 176h159z" />
    <glyph glyph-name="Aacute" unicode="&#xc1;" horiz-adv-x="771" 
d="M759 0h-194l-38 94h-290l-38 -94h-187l334 714h96zM478 223l-94 241h-4l-95 -241h193zM396 781h-86l100 176h158z" />
    <glyph glyph-name="Acircumflex" unicode="&#xc2;" horiz-adv-x="771" 
d="M759 0h-194l-38 94h-290l-38 -94h-187l334 714h96zM478 223l-94 241h-4l-95 -241h193zM385 887l-71 -106h-102l132 176h82l131 -176h-101z" />
    <glyph glyph-name="Atilde" unicode="&#xc3;" horiz-adv-x="771" 
d="M759 0h-194l-38 94h-290l-38 -94h-187l334 714h96zM478 223l-94 241h-4l-95 -241h193zM255 816h-35q0 125 85 125q33 0 85 -23.5t76 -23.5q43 0 53 48h34q0 -125 -85 -125q-29 0 -82 23.5t-77 23.5q-46 0 -54 -48z" />
    <glyph glyph-name="Adieresis" unicode="&#xc4;" horiz-adv-x="771" 
d="M759 0h-194l-38 94h-290l-38 -94h-187l334 714h96zM478 223l-94 241h-4l-95 -241h193zM341 808h-146v136h146v-136zM575 808h-148v136h148v-136z" />
    <glyph glyph-name="Aring" unicode="&#xc5;" horiz-adv-x="771" 
d="M759 0h-194l-38 94h-290l-38 -94h-187l334 714h96zM478 223l-94 241h-4l-95 -241h193zM393 804q22 0 34 13.5t12 36.5q0 47 -46 47t-46 -47q0 -23 12 -36.5t34 -13.5zM393 747q-49 0 -82 29.5t-33 76.5t33 75.5t82 28.5t82 -28.5t33 -75.5t-33 -76.5t-82 -29.5z" />
    <glyph glyph-name="AE" unicode="&#xc6;" horiz-adv-x="1049" 
d="M502 95h-260l-43 -95h-187l334 714h652v-146h-322v-131h246v-140h-246v-151h323v-146h-497v95zM450 568l-153 -344h205v344h-52z" />
    <glyph glyph-name="Ccedilla" unicode="&#xc7;" horiz-adv-x="813" 
d="M413 734q140 0 241 -80.5t123 -219.5h-171q-22 66 -72 105.5t-121 39.5q-89 0 -145 -60t-56 -158t55.5 -161t142.5 -63q68 0 122 39t75 105h166q-24 -130 -125.5 -214.5t-239.5 -84.5q-159 0 -264.5 109.5t-105.5 268.5t105 266.5t270 107.5zM418 -242h-70l29 50
q8 13 8 28v7h-46v116h135v-88q0 -16 -7 -27z" />
    <glyph glyph-name="Egrave" unicode="&#xc8;" horiz-adv-x="685" 
d="M638 0h-572v714h571v-146h-397v-131h321v-140h-321v-151h398v-146zM426 781h-85l-173 176h159z" />
    <glyph glyph-name="Eacute" unicode="&#xc9;" horiz-adv-x="688" 
d="M638 0h-572v714h571v-146h-397v-131h321v-140h-321v-151h398v-146zM353 781h-86l100 176h158z" />
    <glyph glyph-name="Ecircumflex" unicode="&#xca;" horiz-adv-x="685" 
d="M638 0h-572v714h571v-146h-397v-131h321v-140h-321v-151h398v-146zM351 887l-71 -106h-102l132 176h82l131 -176h-101z" />
    <glyph glyph-name="Edieresis" unicode="&#xcb;" horiz-adv-x="685" 
d="M638 0h-572v714h571v-146h-397v-131h321v-140h-321v-151h398v-146zM298 808h-146v136h146v-136zM532 808h-148v136h148v-136z" />
    <glyph glyph-name="Igrave" unicode="&#xcc;" horiz-adv-x="309" 
d="M243 0h-173v714h173v-714zM232 781h-85l-173 176h159z" />
    <glyph glyph-name="Iacute" unicode="&#xcd;" horiz-adv-x="310" 
d="M239 0h-173v714h173v-714zM164 781h-86l100 176h158z" />
    <glyph glyph-name="Icircumflex" unicode="&#xce;" horiz-adv-x="320" 
d="M247 0h-173v714h173v-714zM161 887l-71 -106h-102l132 176h82l131 -176h-101z" />
    <glyph glyph-name="Idieresis" unicode="&#xcf;" horiz-adv-x="320" 
d="M246 0h-173v714h173v-714zM116 808h-146v136h146v-136zM350 808h-148v136h148v-136z" />
    <glyph glyph-name="Eth" unicode="&#xd0;" horiz-adv-x="729" 
d="M13 297v139h53v278h264q84 0 153.5 -30.5t114 -81t69 -114.5t24.5 -133q0 -147 -99.5 -251t-260.5 -104h-265v297h-53zM239 150h84q87 0 140.5 51.5t53.5 152.5q0 100 -53 155.5t-141 55.5h-84v-129h126v-139h-126v-147z" />
    <glyph glyph-name="Ntilde" unicode="&#xd1;" 
d="M697 0h-150l-324 490h-4v-490h-153v714h224l246 -388h4v388h157v-714zM250 816h-35q0 125 85 125q32 0 85 -23.5t76 -23.5q43 0 53 48h34q0 -125 -85 -125q-29 0 -82 23.5t-77 23.5q-46 0 -54 -48z" />
    <glyph glyph-name="Ograve" unicode="&#xd2;" horiz-adv-x="817" 
d="M406 -18q-160 0 -264 108.5t-104 272.5q0 168 109 269.5t269 101.5t261.5 -101.5t101.5 -263.5q0 -166 -105.5 -276.5t-267.5 -110.5zM407 137q86 0 142.5 63t56.5 158q0 93 -54 157t-144 64q-89 0 -142.5 -63.5t-53.5 -157.5q0 -95 54 -158t141 -63zM484 781h-85
l-173 176h159z" />
    <glyph glyph-name="Oacute" unicode="&#xd3;" horiz-adv-x="817" 
d="M406 -18q-160 0 -264 108.5t-104 272.5q0 168 109 269.5t269 101.5t261.5 -101.5t101.5 -263.5q0 -166 -105.5 -276.5t-267.5 -110.5zM407 137q86 0 142.5 63t56.5 158q0 93 -54 157t-144 64q-89 0 -142.5 -63.5t-53.5 -157.5q0 -95 54 -158t141 -63zM420 781h-86
l100 176h158z" />
    <glyph glyph-name="Ocircumflex" unicode="&#xd4;" horiz-adv-x="817" 
d="M406 -18q-160 0 -264 108.5t-104 272.5q0 168 109 269.5t269 101.5t261.5 -101.5t101.5 -263.5q0 -166 -105.5 -276.5t-267.5 -110.5zM407 137q86 0 142.5 63t56.5 158q0 93 -54 157t-144 64q-89 0 -142.5 -63.5t-53.5 -157.5q0 -95 54 -158t141 -63zM409 887l-71 -106
h-102l132 176h82l131 -176h-101z" />
    <glyph glyph-name="Otilde" unicode="&#xd5;" horiz-adv-x="818" 
d="M406 -18q-160 0 -264 108.5t-104 272.5q0 168 109 269.5t269 101.5t261.5 -101.5t101.5 -263.5q0 -166 -105.5 -276.5t-267.5 -110.5zM407 137q86 0 142.5 63t56.5 158q0 93 -54 157t-144 64q-89 0 -142.5 -63.5t-53.5 -157.5q0 -95 54 -158t141 -63zM278 816h-35
q0 125 85 125q32 0 85 -23.5t76 -23.5q43 0 53 48h34q0 -125 -85 -125q-29 0 -82 23.5t-77 23.5q-46 0 -54 -48z" />
    <glyph glyph-name="Odieresis" unicode="&#xd6;" horiz-adv-x="817" 
d="M406 -18q-160 0 -264 108.5t-104 272.5q0 168 109 269.5t269 101.5t261.5 -101.5t101.5 -263.5q0 -166 -105.5 -276.5t-267.5 -110.5zM407 137q86 0 142.5 63t56.5 158q0 93 -54 157t-144 64q-89 0 -142.5 -63.5t-53.5 -157.5q0 -95 54 -158t141 -63zM365 808h-146v136
h146v-136zM599 808h-148v136h148v-136z" />
    <glyph glyph-name="multiply" unicode="&#xd7;" horiz-adv-x="537" 
d="M162 168l-73 73l107 108l-107 107l73 71l107 -106l106 107l73 -72l-107 -108l106 -107l-72 -73l-106 107z" />
    <glyph glyph-name="Oslash" unicode="&#xd8;" horiz-adv-x="818" 
d="M408 -18q-108 0 -192 50l-58 -76l-63 48l57 75q-54 51 -84 126t-30 160q0 165 109 267t267 102q105 0 190 -47l52 70l65 -45l-53 -71q111 -101 111 -272q0 -166 -105.5 -276.5t-265.5 -110.5zM212 357q0 -83 41 -141l252 338q-44 25 -99 25q-87 0 -140.5 -63t-53.5 -159z
M408 137q85 0 141.5 63t56.5 156q0 85 -44 144l-250 -338q44 -25 96 -25z" />
    <glyph glyph-name="Ugrave" unicode="&#xd9;" 
d="M535 297v417h166v-441q0 -144 -82 -217.5t-234 -73.5q-159 0 -241 78t-82 224v430h174v-414q0 -80 35.5 -122.5t117.5 -42.5q81 0 113.5 41.5t32.5 120.5zM457 781h-85l-173 176h159z" />
    <glyph glyph-name="Uacute" unicode="&#xda;" 
d="M535 297v417h166v-441q0 -144 -82 -217.5t-234 -73.5q-159 0 -241 78t-82 224v430h174v-414q0 -80 35.5 -122.5t117.5 -42.5q81 0 113.5 41.5t32.5 120.5zM393 781h-86l100 176h158z" />
    <glyph glyph-name="Ucircumflex" unicode="&#xdb;" 
d="M535 297v417h166v-441q0 -144 -82 -217.5t-234 -73.5q-159 0 -241 78t-82 224v430h174v-414q0 -80 35.5 -122.5t117.5 -42.5q81 0 113.5 41.5t32.5 120.5zM382 887l-71 -106h-102l132 176h82l131 -176h-101z" />
    <glyph glyph-name="Udieresis" unicode="&#xdc;" 
d="M535 297v417h166v-441q0 -144 -82 -217.5t-234 -73.5q-159 0 -241 78t-82 224v430h174v-414q0 -80 35.5 -122.5t117.5 -42.5q81 0 113.5 41.5t32.5 120.5zM338 808h-146v136h146v-136zM572 808h-148v136h148v-136z" />
    <glyph glyph-name="Yacute" unicode="&#xdd;" horiz-adv-x="698" 
d="M436 0h-173v295l-263 419h200l167 -273l166 273h165l-262 -419v-295zM369 781h-86l100 176h158z" />
    <glyph glyph-name="Thorn" unicode="&#xde;" horiz-adv-x="741" 
d="M240 714v-113h248q107 0 166 -77.5t59 -173.5q0 -104 -69 -169.5t-165 -65.5h-236v-115h-177v714h174zM446 453h-206v-192h212q40 0 63.5 24.5t23.5 69.5q0 46 -24.5 72t-68.5 26z" />
    <glyph glyph-name="germandbls" unicode="&#xdf;" horiz-adv-x="676" 
d="M260 -21l45 115q33 -23 73 -23q54 0 81 36t27 86q0 58 -34 99.5t-89 41.5h-88v131h62q33 0 48.5 21.5t15.5 52.5q0 39 -25.5 61.5t-75.5 22.5q-49 0 -70 -25t-21 -76v-521h-152v526q0 74 40 125t96.5 72t123.5 21q104 0 167 -52.5t63 -141.5q0 -85 -59 -134v-4
q67 -22 108.5 -87t41.5 -141q0 -100 -68 -171.5t-175 -71.5q-70 0 -135 37z" />
    <glyph glyph-name="agrave" unicode="&#xe0;" horiz-adv-x="592" 
d="M592 115v-110q-40 -23 -107 -23q-49 0 -81.5 22.5t-41.5 67.5h-4q-28 -41 -77.5 -65t-103.5 -24q-70 0 -107.5 41t-37.5 110q0 55 24.5 95t65.5 61t84.5 30t92.5 9q21 0 49 -2v11q0 43 -19 59t-58 16q-38 0 -59.5 -15.5t-27.5 -55.5h-138q4 103 54.5 138t158.5 35
q131 0 185 -45.5t54 -172.5v-133q0 -59 51 -59q20 0 43 10zM351 169v83q-40 4 -43 4q-48 0 -90.5 -25t-42.5 -74q0 -58 65 -58q37 0 68.5 20t42.5 50zM357 564h-85l-173 176h159z" />
    <glyph glyph-name="aacute" unicode="&#xe1;" horiz-adv-x="592" 
d="M592 115v-110q-40 -23 -107 -23q-49 0 -81.5 22.5t-41.5 67.5h-4q-28 -41 -77.5 -65t-103.5 -24q-70 0 -107.5 41t-37.5 110q0 55 24.5 95t65.5 61t84.5 30t92.5 9q21 0 49 -2v11q0 43 -19 59t-58 16q-38 0 -59.5 -15.5t-27.5 -55.5h-138q4 103 54.5 138t158.5 35
q131 0 185 -45.5t54 -172.5v-133q0 -59 51 -59q20 0 43 10zM351 169v83q-40 4 -43 4q-48 0 -90.5 -25t-42.5 -74q0 -58 65 -58q37 0 68.5 20t42.5 50zM293 564h-86l100 176h158z" />
    <glyph glyph-name="acircumflex" unicode="&#xe2;" horiz-adv-x="592" 
d="M592 115v-110q-40 -23 -107 -23q-49 0 -81.5 22.5t-41.5 67.5h-4q-28 -41 -77.5 -65t-103.5 -24q-70 0 -107.5 41t-37.5 110q0 55 24.5 95t65.5 61t84.5 30t92.5 9q21 0 49 -2v11q0 43 -19 59t-58 16q-38 0 -59.5 -15.5t-27.5 -55.5h-138q4 103 54.5 138t158.5 35
q131 0 185 -45.5t54 -172.5v-133q0 -59 51 -59q20 0 43 10zM351 169v83q-40 4 -43 4q-48 0 -90.5 -25t-42.5 -74q0 -58 65 -58q37 0 68.5 20t42.5 50zM282 670l-71 -106h-102l132 176h82l131 -176h-101z" />
    <glyph glyph-name="atilde" unicode="&#xe3;" horiz-adv-x="592" 
d="M592 115v-110q-40 -23 -107 -23q-49 0 -81.5 22.5t-41.5 67.5h-4q-28 -41 -77.5 -65t-103.5 -24q-70 0 -107.5 41t-37.5 110q0 55 24.5 95t65.5 61t84.5 30t92.5 9q21 0 49 -2v11q0 43 -19 59t-58 16q-38 0 -59.5 -15.5t-27.5 -55.5h-138q4 103 54.5 138t158.5 35
q131 0 185 -45.5t54 -172.5v-133q0 -59 51 -59q20 0 43 10zM351 169v83q-40 4 -43 4q-48 0 -90.5 -25t-42.5 -74q0 -58 65 -58q37 0 68.5 20t42.5 50zM151 599h-35q0 125 85 125q32 0 84.5 -23.5t76.5 -23.5q43 0 53 48h34q0 -125 -85 -125q-29 0 -82 23.5t-77 23.5
q-46 0 -54 -48z" />
    <glyph glyph-name="adieresis" unicode="&#xe4;" horiz-adv-x="592" 
d="M592 115v-110q-40 -23 -107 -23q-49 0 -81.5 22.5t-41.5 67.5h-4q-28 -41 -77.5 -65t-103.5 -24q-70 0 -107.5 41t-37.5 110q0 55 24.5 95t65.5 61t84.5 30t92.5 9q21 0 49 -2v11q0 43 -19 59t-58 16q-38 0 -59.5 -15.5t-27.5 -55.5h-138q4 103 54.5 138t158.5 35
q131 0 185 -45.5t54 -172.5v-133q0 -59 51 -59q20 0 43 10zM351 169v83q-40 4 -43 4q-48 0 -90.5 -25t-42.5 -74q0 -58 65 -58q37 0 68.5 20t42.5 50zM238 591h-146v136h146v-136zM472 591h-148v136h148v-136z" />
    <glyph glyph-name="aring" unicode="&#xe5;" horiz-adv-x="592" 
d="M592 115v-110q-40 -23 -107 -23q-49 0 -81.5 22.5t-41.5 67.5h-4q-28 -41 -77.5 -65t-103.5 -24q-70 0 -107.5 41t-37.5 110q0 55 24.5 95t65.5 61t84.5 30t92.5 9q21 0 49 -2v11q0 43 -19 59t-58 16q-38 0 -59.5 -15.5t-27.5 -55.5h-138q4 103 54.5 138t158.5 35
q131 0 185 -45.5t54 -172.5v-133q0 -59 51 -59q20 0 43 10zM351 169v83q-40 4 -43 4q-48 0 -90.5 -25t-42.5 -74q0 -58 65 -58q37 0 68.5 20t42.5 50zM272 611q22 0 34 13.5t12 36.5q0 47 -46 47t-46 -47q0 -23 12 -36.5t34 -13.5zM272 554q-49 0 -82 29.5t-33 76.5t33 75.5
t82 28.5t82 -28.5t33 -75.5t-33 -76.5t-82 -29.5z" />
    <glyph glyph-name="ae" unicode="&#xe6;" horiz-adv-x="923" 
d="M891 235h-401q4 -64 43 -98.5t98 -34.5q80 0 111 61h131q-19 -82 -91 -131.5t-168 -49.5q-146 0 -221 109h-7q-26 -49 -83.5 -78.5t-120.5 -29.5q-73 0 -111 40.5t-38 110.5q0 56 24.5 96t65.5 60.5t84.5 29.5t92.5 9q21 0 49 -2v11q0 43 -19 59t-58 16
q-38 0 -59.5 -15.5t-27.5 -55.5h-138q4 103 54.5 138t158.5 35q144 0 194 -53q68 53 171 53q114 0 191 -69.5t77 -178.5q0 -14 -2 -32zM239 99q34 0 66.5 19t50.5 51q-12 39 -12 83q-20 4 -35 4q-47 0 -90 -25t-43 -74q0 -58 63 -58zM494 302h245q-3 47 -35 75t-83 28
t-84.5 -28t-42.5 -75z" />
    <glyph glyph-name="ccedilla" unicode="&#xe7;" horiz-adv-x="610" 
d="M313 515q103 0 176 -56.5t88 -158.5h-143q-10 39 -41 64t-80 25q-62 0 -96 -39.5t-34 -102.5q0 -65 35.5 -102t94.5 -37q50 0 82 25.5t44 66.5h141q-13 -99 -88.5 -158.5t-181.5 -59.5q-117 0 -198.5 70.5t-81.5 191.5t81 196t202 75zM317 -242h-70l29 50q8 13 8 28v7
h-46v116h135v-88q0 -16 -7 -27z" />
    <glyph glyph-name="egrave" unicode="&#xe8;" horiz-adv-x="609" 
d="M578 235h-402q4 -63 42.5 -98t98.5 -35q82 0 112 63h131q-18 -83 -90.5 -133t-168.5 -50q-120 0 -195.5 77.5t-75.5 192.5q0 118 80 190.5t199 72.5q116 0 193 -69.5t77 -180.5q0 -21 -1 -30zM181 302h245q-4 47 -35.5 75t-83.5 28q-53 0 -85.5 -29t-40.5 -74zM380 564
h-85l-173 176h159z" />
    <glyph glyph-name="eacute" unicode="&#xe9;" horiz-adv-x="609" 
d="M578 235h-402q4 -63 42.5 -98t98.5 -35q82 0 112 63h131q-18 -83 -90.5 -133t-168.5 -50q-120 0 -195.5 77.5t-75.5 192.5q0 118 80 190.5t199 72.5q116 0 193 -69.5t77 -180.5q0 -21 -1 -30zM181 302h245q-4 47 -35.5 75t-83.5 28q-53 0 -85.5 -29t-40.5 -74zM316 564
h-86l100 176h158z" />
    <glyph glyph-name="ecircumflex" unicode="&#xea;" horiz-adv-x="609" 
d="M578 235h-402q4 -63 42.5 -98t98.5 -35q82 0 112 63h131q-18 -83 -90.5 -133t-168.5 -50q-120 0 -195.5 77.5t-75.5 192.5q0 118 80 190.5t199 72.5q116 0 193 -69.5t77 -180.5q0 -21 -1 -30zM181 302h245q-4 47 -35.5 75t-83.5 28q-53 0 -85.5 -29t-40.5 -74zM305 670
l-71 -106h-102l132 176h82l131 -176h-101z" />
    <glyph glyph-name="edieresis" unicode="&#xeb;" horiz-adv-x="609" 
d="M578 235h-402q4 -63 42.5 -98t98.5 -35q82 0 112 63h131q-18 -83 -90.5 -133t-168.5 -50q-120 0 -195.5 77.5t-75.5 192.5q0 118 80 190.5t199 72.5q116 0 193 -69.5t77 -180.5q0 -21 -1 -30zM181 302h245q-4 47 -35.5 75t-83.5 28q-53 0 -85.5 -29t-40.5 -74zM260 591
h-146v136h146v-136zM494 591h-148v136h148v-136z" />
    <glyph glyph-name="igrave" unicode="&#xec;" horiz-adv-x="296" 
d="M239 0h-152v497h152v-497zM239 564h-85l-173 176h159z" />
    <glyph glyph-name="iacute" unicode="&#xed;" horiz-adv-x="296" 
d="M209 0h-152v497h152v-497zM145 564h-86l100 176h158z" />
    <glyph glyph-name="icircumflex" unicode="&#xee;" horiz-adv-x="276" 
d="M214 0h-152v497h152v-497zM139 670l-71 -106h-102l132 176h82l131 -176h-101z" />
    <glyph glyph-name="idieresis" unicode="&#xef;" horiz-adv-x="380" 
d="M265 0h-152v497h152v-497zM146 591h-146v136h146v-136zM380 591h-148v136h148v-136z" />
    <glyph glyph-name="eth" unicode="&#xf0;" horiz-adv-x="577" 
d="M490 659l-71 -40q57 -62 89 -159t32 -193q0 -140 -69 -212.5t-183 -72.5q-113 0 -185.5 67.5t-72.5 178.5q0 100 60.5 166t168.5 66q93 0 139 -46h4q-12 71 -83 150l-123 -70l-37 70l88 51v6q-43 28 -97 49l35 81q96 -22 171 -75l97 54zM289 97q57 0 87.5 36.5t30.5 94.5
q0 63 -35 93.5t-88 30.5q-55 0 -84.5 -32t-29.5 -89q0 -60 31.5 -97t87.5 -37z" />
    <glyph glyph-name="ntilde" unicode="&#xf1;" horiz-adv-x="597" 
d="M544 0h-153v323q0 70 -72 70q-35 0 -65.5 -17t-44.5 -44v-332h-152v497h151v-37h4q61 55 146 55q54 0 93 -19.5t58 -51t27 -63t8 -64.5v-317zM152 599h-35q0 125 85 125q33 0 85.5 -23.5t75.5 -23.5q43 0 53 48h34q0 -125 -85 -125q-29 0 -82 23.5t-77 23.5
q-46 0 -54 -48z" />
    <glyph glyph-name="ograve" unicode="&#xf2;" horiz-adv-x="627" 
d="M597 247q0 -118 -81 -191.5t-200 -73.5q-124 0 -205 78t-81 192q0 115 82 189t204 74q123 0 202 -76t79 -192zM445 250q0 67 -36 103t-97 36q-60 0 -94.5 -35.5t-34.5 -100.5t34.5 -105t97.5 -40q62 0 96 39t34 103zM389 564h-85l-173 176h159z" />
    <glyph glyph-name="oacute" unicode="&#xf3;" horiz-adv-x="627" 
d="M597 247q0 -118 -81 -191.5t-200 -73.5q-124 0 -205 78t-81 192q0 115 82 189t204 74q123 0 202 -76t79 -192zM445 250q0 67 -36 103t-97 36q-60 0 -94.5 -35.5t-34.5 -100.5t34.5 -105t97.5 -40q62 0 96 39t34 103zM325 564h-86l100 176h158z" />
    <glyph glyph-name="ocircumflex" unicode="&#xf4;" horiz-adv-x="627" 
d="M597 247q0 -118 -81 -191.5t-200 -73.5q-124 0 -205 78t-81 192q0 115 82 189t204 74q123 0 202 -76t79 -192zM445 250q0 67 -36 103t-97 36q-60 0 -94.5 -35.5t-34.5 -100.5t34.5 -105t97.5 -40q62 0 96 39t34 103zM314 670l-71 -106h-102l132 176h82l131 -176h-101z
" />
    <glyph glyph-name="otilde" unicode="&#xf5;" horiz-adv-x="627" 
d="M597 247q0 -118 -81 -191.5t-200 -73.5q-124 0 -205 78t-81 192q0 115 82 189t204 74q123 0 202 -76t79 -192zM445 250q0 67 -36 103t-97 36q-60 0 -94.5 -35.5t-34.5 -100.5t34.5 -105t97.5 -40q62 0 96 39t34 103zM183 599h-35q0 125 85 125q33 0 85 -23.5t76 -23.5
q43 0 53 48h34q0 -125 -85 -125q-29 0 -82 23.5t-77 23.5q-46 0 -54 -48z" />
    <glyph glyph-name="odieresis" unicode="&#xf6;" horiz-adv-x="627" 
d="M597 247q0 -118 -81 -191.5t-200 -73.5q-124 0 -205 78t-81 192q0 115 82 189t204 74q123 0 202 -76t79 -192zM445 250q0 67 -36 103t-97 36q-60 0 -94.5 -35.5t-34.5 -100.5t34.5 -105t97.5 -40q62 0 96 39t34 103zM269 591h-146v136h146v-136zM503 591h-148v136h148
v-136z" />
    <glyph glyph-name="divide" unicode="&#xf7;" horiz-adv-x="537" 
d="M472 297h-406v103h406v-103zM346 463h-156v171h156v-171zM346 64h-156v171h156v-171z" />
    <glyph glyph-name="oslash" unicode="&#xf8;" horiz-adv-x="628" 
d="M597 246q0 -117 -81 -190.5t-203 -73.5q-72 0 -132 30l-42 -56l-59 45l39 52q-89 79 -89 199q0 115 82.5 189t202.5 74q70 0 128 -26l46 61l61 -43l-43 -58q90 -77 90 -203zM445 250q0 49 -20 81h-6l-159 -213q21 -10 54 -10q63 0 97 38.5t34 103.5zM183 252
q0 -51 18 -81h6l156 210q-24 8 -52 8q-60 0 -94 -36t-34 -101z" />
    <glyph glyph-name="ugrave" unicode="&#xf9;" horiz-adv-x="616" 
d="M559 0h-153v51h-4q-53 -69 -159 -69q-92 0 -141 52t-49 151v312h153v-299q0 -45 25.5 -68.5t68.5 -23.5q86 0 106 102v289h153v-497zM383 564h-85l-173 176h159z" />
    <glyph glyph-name="uacute" unicode="&#xfa;" horiz-adv-x="616" 
d="M559 0h-153v51h-4q-53 -69 -159 -69q-92 0 -141 52t-49 151v312h153v-299q0 -45 25.5 -68.5t68.5 -23.5q86 0 106 102v289h153v-497zM319 564h-86l100 176h158z" />
    <glyph glyph-name="ucircumflex" unicode="&#xfb;" horiz-adv-x="616" 
d="M559 0h-153v51h-4q-53 -69 -159 -69q-92 0 -141 52t-49 151v312h153v-299q0 -45 25.5 -68.5t68.5 -23.5q86 0 106 102v289h153v-497zM308 670l-71 -106h-102l132 176h82l131 -176h-101z" />
    <glyph glyph-name="udieresis" unicode="&#xfc;" horiz-adv-x="616" 
d="M559 0h-153v51h-4q-53 -69 -159 -69q-92 0 -141 52t-49 151v312h153v-299q0 -45 25.5 -68.5t68.5 -23.5q86 0 106 102v289h153v-497zM264 591h-146v136h146v-136zM498 591h-148v136h148v-136z" />
    <glyph glyph-name="yacute" unicode="&#xfd;" horiz-adv-x="601" 
d="M212 -212h-169v127h116q20 0 32.5 15t28.5 52l7 17l-219 498h164l134 -316h4l129 316h154l-226 -538q-35 -83 -71 -127t-84 -44zM315 564h-86l100 176h158z" />
    <glyph glyph-name="thorn" unicode="&#xfe;" horiz-adv-x="589" 
d="M209 -213h-152v947h152v-274h4q47 55 132 55q96 0 155 -73.5t59 -198.5q0 -124 -58.5 -192.5t-154.5 -68.5q-87 0 -133 54h-4v-249zM209 328v-159q31 -67 98 -67q99 0 99 147q0 146 -99 146q-66 0 -98 -67z" />
    <glyph glyph-name="ydieresis" unicode="&#xff;" horiz-adv-x="601" 
d="M212 -212h-169v127h116q20 0 32.5 15t28.5 52l7 17l-219 498h164l134 -316h4l129 316h154l-226 -538q-35 -83 -71 -127t-84 -44zM257 591h-146v136h146v-136zM491 591h-148v136h148v-136z" />
    <glyph glyph-name="Amacron" unicode="&#x100;" horiz-adv-x="771" 
d="M759 0h-194l-38 94h-290l-38 -94h-187l334 714h96zM478 223l-94 241h-4l-95 -241h193zM539 838h-307v79h307v-79z" />
    <glyph glyph-name="amacron" unicode="&#x101;" horiz-adv-x="592" 
d="M592 115v-110q-40 -23 -107 -23q-49 0 -81.5 22.5t-41.5 67.5h-4q-28 -41 -77.5 -65t-103.5 -24q-70 0 -107.5 41t-37.5 110q0 55 24.5 95t65.5 61t84.5 30t92.5 9q21 0 49 -2v11q0 43 -19 59t-58 16q-38 0 -59.5 -15.5t-27.5 -55.5h-138q4 103 54.5 138t158.5 35
q131 0 185 -45.5t54 -172.5v-133q0 -59 51 -59q20 0 43 10zM351 169v83q-40 4 -43 4q-48 0 -90.5 -25t-42.5 -74q0 -58 65 -58q37 0 68.5 20t42.5 50zM436 621h-307v79h307v-79z" />
    <glyph glyph-name="Abreve" unicode="&#x102;" horiz-adv-x="771" 
d="M759 0h-194l-38 94h-290l-38 -94h-187l334 714h96zM478 223l-94 241h-4l-95 -241h193zM385 781q-83 0 -133 47t-58 129h80q21 -119 111 -119q89 0 111 119h79q-8 -82 -58 -129t-132 -47z" />
    <glyph glyph-name="abreve" unicode="&#x103;" horiz-adv-x="592" 
d="M592 115v-110q-40 -23 -107 -23q-49 0 -81.5 22.5t-41.5 67.5h-4q-28 -41 -77.5 -65t-103.5 -24q-70 0 -107.5 41t-37.5 110q0 55 24.5 95t65.5 61t84.5 30t92.5 9q21 0 49 -2v11q0 43 -19 59t-58 16q-38 0 -59.5 -15.5t-27.5 -55.5h-138q4 103 54.5 138t158.5 35
q131 0 185 -45.5t54 -172.5v-133q0 -59 51 -59q20 0 43 10zM351 169v83q-40 4 -43 4q-48 0 -90.5 -25t-42.5 -74q0 -58 65 -58q37 0 68.5 20t42.5 50zM282 564q-83 0 -133 47t-58 129h80q21 -119 111 -119q89 0 111 119h79q-8 -82 -58 -129t-132 -47z" />
    <glyph glyph-name="Aogonek" unicode="&#x104;" horiz-adv-x="771" 
d="M759 -242h-73q-75 0 -113 30t-38 84q0 58 41 90t112 38h-123l-38 94h-290l-38 -94h-187l334 714h96l317 -714q-75 -12 -102.5 -29.5t-27.5 -47.5q0 -52 70 -52h60v-113zM478 223l-94 241h-4l-95 -241h193z" />
    <glyph glyph-name="aogonek" unicode="&#x105;" horiz-adv-x="592" 
d="M580 -242h-73q-75 0 -112.5 30t-37.5 84q0 83 81 113v4q-67 19 -77 81h-4q-29 -41 -77.5 -64t-101.5 -23q-70 0 -108 41t-38 110q0 55 24.5 95t65.5 61t84.5 30t92.5 9q21 0 49 -2v11q0 43 -19 59t-58 16q-38 0 -59.5 -15.5t-27.5 -55.5h-138q4 103 54.5 138t158.5 35
q131 0 185 -45.5t54 -172.5v-133q0 -59 51 -59q20 0 43 10v-110q-14 -7 -88 -22q-54 -12 -54 -59q0 -26 15.5 -39.5t54.5 -13.5h60v-113zM351 169v83q-40 4 -43 4q-48 0 -90.5 -25t-42.5 -74q0 -58 65 -58q37 0 68.5 20t42.5 50z" />
    <glyph glyph-name="Cacute" unicode="&#x106;" horiz-adv-x="813" 
d="M413 734q140 0 241 -80.5t123 -219.5h-171q-22 66 -72 105.5t-121 39.5q-89 0 -145 -60t-56 -158t55.5 -161t142.5 -63q68 0 122 39t75 105h166q-24 -130 -125.5 -214.5t-239.5 -84.5q-159 0 -264.5 109.5t-105.5 268.5t105 266.5t270 107.5zM417 781h-86l100 176h158z
" />
    <glyph glyph-name="cacute" unicode="&#x107;" horiz-adv-x="610" 
d="M313 515q103 0 176 -56.5t88 -158.5h-143q-10 39 -41 64t-80 25q-62 0 -96 -39.5t-34 -102.5q0 -65 35.5 -102t94.5 -37q50 0 82 25.5t44 66.5h141q-13 -99 -88.5 -158.5t-181.5 -59.5q-117 0 -198.5 70.5t-81.5 191.5t81 196t202 75zM316 564h-86l100 176h158z" />
    <glyph glyph-name="Cdotaccent" unicode="&#x10a;" horiz-adv-x="813" 
d="M413 734q140 0 241 -80.5t123 -219.5h-171q-22 66 -72 105.5t-121 39.5q-89 0 -145 -60t-56 -158t55.5 -161t142.5 -63q68 0 122 39t75 105h166q-24 -130 -125.5 -214.5t-239.5 -84.5q-159 0 -264.5 109.5t-105.5 268.5t105 266.5t270 107.5zM479 808h-146v136h146v-136z
" />
    <glyph glyph-name="cdotaccent" unicode="&#x10b;" horiz-adv-x="610" 
d="M313 515q103 0 176 -56.5t88 -158.5h-143q-10 39 -41 64t-80 25q-62 0 -96 -39.5t-34 -102.5q0 -65 35.5 -102t94.5 -37q50 0 82 25.5t44 66.5h141q-13 -99 -88.5 -158.5t-181.5 -59.5q-117 0 -198.5 70.5t-81.5 191.5t81 196t202 75zM377 591h-146v136h146v-136z" />
    <glyph glyph-name="Ccaron" unicode="&#x10c;" horiz-adv-x="813" 
d="M413 734q140 0 241 -80.5t123 -219.5h-171q-22 66 -72 105.5t-121 39.5q-89 0 -145 -60t-56 -158t55.5 -161t142.5 -63q68 0 122 39t75 105h166q-24 -130 -125.5 -214.5t-239.5 -84.5q-159 0 -264.5 109.5t-105.5 268.5t105 266.5t270 107.5zM406 851l71 106h101
l-131 -176h-82l-132 176h102z" />
    <glyph glyph-name="ccaron" unicode="&#x10d;" horiz-adv-x="610" 
d="M313 515q103 0 176 -56.5t88 -158.5h-143q-10 39 -41 64t-80 25q-62 0 -96 -39.5t-34 -102.5q0 -65 35.5 -102t94.5 -37q50 0 82 25.5t44 66.5h141q-13 -99 -88.5 -158.5t-181.5 -59.5q-117 0 -198.5 70.5t-81.5 191.5t81 196t202 75zM305 634l71 106h101l-131 -176h-82
l-132 176h102z" />
    <glyph glyph-name="Dcaron" unicode="&#x10e;" horiz-adv-x="729" 
d="M331 0h-265v714h265q111 0 195 -52.5t124.5 -133t40.5 -173.5q0 -147 -99 -251t-261 -104zM240 149h84q86 0 139.5 51.5t53.5 152.5q0 100 -53 155.5t-141 55.5h-83v-415zM329 851l71 106h101l-131 -176h-82l-132 176h102z" />
    <glyph glyph-name="dcaron" unicode="&#x10f;" horiz-adv-x="718" 
d="M533 0h-140v45h-4q-21 -31 -60.5 -47t-81.5 -16q-95 0 -156 76t-61 197q0 114 56 187t158 73q85 0 132 -55h4v274h153v-734zM282 395q-99 0 -99 -141q0 -67 24.5 -109.5t77.5 -42.5q70 0 95 78v148q-32 67 -98 67zM652 474h-78l31 62q10 19 10 35v12h-53v151h156v-117
q0 -16 -10 -34z" />
    <glyph glyph-name="Dcroat" unicode="&#x110;" horiz-adv-x="729" 
d="M13 297v139h53v278h264q84 0 153.5 -30.5t114 -81t69 -114.5t24.5 -133q0 -147 -99.5 -251t-260.5 -104h-265v297h-53zM239 150h84q87 0 140.5 51.5t53.5 152.5q0 100 -53 155.5t-141 55.5h-84v-129h126v-139h-126v-147z" />
    <glyph glyph-name="dcroat" unicode="&#x111;" horiz-adv-x="589" 
d="M533 0h-140v50q-19 -32 -60.5 -50t-86.5 -18q-94 0 -155 76.5t-61 196.5q0 114 56 187t156 73q91 0 138 -59v118h-105v79h105v81h153v-81h48v-79h-48v-574zM282 395q-99 0 -99 -141q0 -67 24.5 -109.5t77.5 -42.5q70 0 95 78v148q-32 67 -98 67z" />
    <glyph glyph-name="Emacron" unicode="&#x112;" horiz-adv-x="688" 
d="M638 0h-572v714h571v-146h-397v-131h321v-140h-321v-151h398v-146zM505 838h-307v79h307v-79z" />
    <glyph glyph-name="emacron" unicode="&#x113;" horiz-adv-x="609" 
d="M578 235h-402q4 -63 42.5 -98t98.5 -35q82 0 112 63h131q-18 -83 -90.5 -133t-168.5 -50q-120 0 -195.5 77.5t-75.5 192.5q0 118 80 190.5t199 72.5q116 0 193 -69.5t77 -180.5q0 -21 -1 -30zM181 302h245q-4 47 -35.5 75t-83.5 28q-53 0 -85.5 -29t-40.5 -74zM458 621
h-307v79h307v-79z" />
    <glyph glyph-name="Ebreve" unicode="&#x114;" horiz-adv-x="688" 
d="M638 0h-572v714h571v-146h-397v-131h321v-140h-321v-151h398v-146zM342 781q-83 0 -133 47t-58 129h80q21 -119 111 -119q89 0 111 119h79q-8 -82 -58 -129t-132 -47z" />
    <glyph glyph-name="ebreve" unicode="&#x115;" horiz-adv-x="609" 
d="M578 235h-402q4 -63 42.5 -98t98.5 -35q82 0 112 63h131q-18 -83 -90.5 -133t-168.5 -50q-120 0 -195.5 77.5t-75.5 192.5q0 118 80 190.5t199 72.5q116 0 193 -69.5t77 -180.5q0 -21 -1 -30zM181 302h245q-4 47 -35.5 75t-83.5 28q-53 0 -85.5 -29t-40.5 -74zM305 564
q-83 0 -133 47t-58 129h80q21 -119 111 -119q89 0 111 119h79q-8 -82 -58 -129t-132 -47z" />
    <glyph glyph-name="Edotaccent" unicode="&#x116;" horiz-adv-x="688" 
d="M638 0h-572v714h571v-146h-397v-131h321v-140h-321v-151h398v-146zM424 808h-146v136h146v-136z" />
    <glyph glyph-name="edotaccent" unicode="&#x117;" horiz-adv-x="609" 
d="M578 235h-402q4 -63 42.5 -98t98.5 -35q82 0 112 63h131q-18 -83 -90.5 -133t-168.5 -50q-120 0 -195.5 77.5t-75.5 192.5q0 118 80 190.5t199 72.5q116 0 193 -69.5t77 -180.5q0 -21 -1 -30zM181 302h245q-4 47 -35.5 75t-83.5 28q-53 0 -85.5 -29t-40.5 -74zM377 591
h-146v136h146v-136z" />
    <glyph glyph-name="Eogonek" unicode="&#x118;" horiz-adv-x="688" 
d="M638 -242h-73q-75 0 -113 30t-38 84q0 101 120 124v4h-468v714h571v-146h-397v-131h321v-140h-321v-151h398v-146q-75 -12 -102.5 -29.5t-27.5 -47.5q0 -52 70 -52h60v-113z" />
    <glyph glyph-name="eogonek" unicode="&#x119;" horiz-adv-x="609" 
d="M402 -242h-72q-151 0 -151 114q0 76 67 107v8q-98 17 -157 90.5t-59 174.5q0 118 80 190.5t199 72.5q116 0 193 -69.5t77 -180.5q0 -21 -1 -30h-402q4 -63 42.5 -98t98.5 -35q87 0 115 69h129q-14 -79 -78.5 -129t-154.5 -58q-31 -11 -43.5 -25t-12.5 -36q0 -52 70 -52
h60v-113zM181 302h245q-4 47 -35.5 75t-83.5 28q-53 0 -85.5 -29t-40.5 -74z" />
    <glyph glyph-name="Ecaron" unicode="&#x11a;" horiz-adv-x="688" 
d="M638 0h-572v714h571v-146h-397v-131h321v-140h-321v-151h398v-146zM351 851l71 106h101l-131 -176h-82l-132 176h102z" />
    <glyph glyph-name="ecaron" unicode="&#x11b;" horiz-adv-x="609" 
d="M578 235h-402q4 -63 42.5 -98t98.5 -35q82 0 112 63h131q-18 -83 -90.5 -133t-168.5 -50q-120 0 -195.5 77.5t-75.5 192.5q0 118 80 190.5t199 72.5q116 0 193 -69.5t77 -180.5q0 -21 -1 -30zM181 302h245q-4 47 -35.5 75t-83.5 28q-53 0 -85.5 -29t-40.5 -74zM305 634
l71 106h101l-131 -176h-82l-132 176h102z" />
    <glyph glyph-name="Gbreve" unicode="&#x11e;" horiz-adv-x="835" 
d="M775 0h-137v96h-4q-33 -50 -96 -82t-148 -32q-106 0 -187 52.5t-123 138t-42 188.5q0 165 105.5 269t269.5 104q129 0 223.5 -67.5t120.5 -195.5h-166q-20 53 -68 80.5t-108 27.5q-90 0 -146.5 -60t-56.5 -164q0 -99 52 -164.5t145 -65.5q65 0 110 32.5t56 83.5h-179v127
h379v-368zM415 781q-83 0 -133 47t-58 129h80q21 -119 111 -119q89 0 111 119h79q-8 -82 -58 -129t-132 -47z" />
    <glyph glyph-name="gbreve" unicode="&#x11f;" horiz-adv-x="549" 
d="M537 503v-115q-17 5 -33 5q-32 0 -44 -16q8 -36 8 -61q0 -85 -62.5 -130t-151.5 -45q-51 0 -92 16q-14 -11 -14 -27q0 -39 81 -39q25 0 82 4.5t74 4.5q67 0 109.5 -39t42.5 -102q0 -51 -30 -88t-78 -55.5t-95.5 -26.5t-94.5 -8q-40 0 -77.5 6t-76 20t-62 43t-23.5 70
q0 71 73 102q-38 31 -38 84q0 64 56 93q-48 48 -48 124q0 91 61 141.5t150 50.5q98 0 154 -49q23 41 88 41q17 0 41 -4zM257 230q46 0 68 26t22 69q0 46 -24 72.5t-67 26.5q-45 0 -68 -28.5t-23 -70.5q0 -40 21.5 -67.5t70.5 -27.5zM225 -29q-40 0 -82 13
q-12 -4 -19.5 -15.5t-7.5 -25.5q0 -19 15 -32t39.5 -18.5t42 -7t34.5 -1.5q20 0 42 2t50.5 8t46.5 20.5t18 35.5q0 30 -52 30q-20 0 -62 -4.5t-65 -4.5zM260 564q-83 0 -133 47t-58 129h80q21 -119 111 -119q89 0 111 119h79q-8 -82 -58 -129t-132 -47z" />
    <glyph glyph-name="Gdotaccent" unicode="&#x120;" horiz-adv-x="835" 
d="M775 0h-137v96h-4q-33 -50 -96 -82t-148 -32q-106 0 -187 52.5t-123 138t-42 188.5q0 165 105.5 269t269.5 104q129 0 223.5 -67.5t120.5 -195.5h-166q-20 53 -68 80.5t-108 27.5q-90 0 -146.5 -60t-56.5 -164q0 -99 52 -164.5t145 -65.5q65 0 110 32.5t56 83.5h-179v127
h379v-368zM479 808h-146v136h146v-136z" />
    <glyph glyph-name="gdotaccent" unicode="&#x121;" horiz-adv-x="549" 
d="M537 503v-115q-17 5 -33 5q-32 0 -44 -16q8 -36 8 -61q0 -85 -62.5 -130t-151.5 -45q-51 0 -92 16q-14 -11 -14 -27q0 -39 81 -39q25 0 82 4.5t74 4.5q67 0 109.5 -39t42.5 -102q0 -51 -30 -88t-78 -55.5t-95.5 -26.5t-94.5 -8q-40 0 -77.5 6t-76 20t-62 43t-23.5 70
q0 71 73 102q-38 31 -38 84q0 64 56 93q-48 48 -48 124q0 91 61 141.5t150 50.5q98 0 154 -49q23 41 88 41q17 0 41 -4zM257 230q46 0 68 26t22 69q0 46 -24 72.5t-67 26.5q-45 0 -68 -28.5t-23 -70.5q0 -40 21.5 -67.5t70.5 -27.5zM225 -29q-40 0 -82 13
q-12 -4 -19.5 -15.5t-7.5 -25.5q0 -19 15 -32t39.5 -18.5t42 -7t34.5 -1.5q20 0 42 2t50.5 8t46.5 20.5t18 35.5q0 30 -52 30q-20 0 -62 -4.5t-65 -4.5zM332 591h-146v136h146v-136z" />
    <glyph glyph-name="Gcommaaccent" unicode="&#x122;" horiz-adv-x="835" 
d="M775 0h-137v96h-4q-33 -50 -96 -82t-148 -32q-106 0 -187 52.5t-123 138t-42 188.5q0 165 105.5 269t269.5 104q129 0 223.5 -67.5t120.5 -195.5h-166q-20 53 -68 80.5t-108 27.5q-90 0 -146.5 -60t-56.5 -164q0 -99 52 -164.5t145 -65.5q65 0 110 32.5t56 83.5h-179v127
h379v-368zM427 -242h-70l29 50q8 13 8 28v7h-46v116h135v-88q0 -16 -7 -27z" />
    <glyph glyph-name="gcommaaccent" unicode="&#x123;" horiz-adv-x="549" 
d="M537 503v-115q-17 5 -33 5q-32 0 -44 -16q8 -36 8 -61q0 -85 -62.5 -130t-151.5 -45q-51 0 -92 16q-14 -11 -14 -27q0 -39 81 -39q25 0 82 4.5t74 4.5q67 0 109.5 -39t42.5 -102q0 -51 -30 -88t-78 -55.5t-95.5 -26.5t-94.5 -8q-40 0 -77.5 6t-76 20t-62 43t-23.5 70
q0 71 73 102q-38 31 -38 84q0 64 56 93q-48 48 -48 124q0 91 61 141.5t150 50.5q98 0 154 -49q23 41 88 41q17 0 41 -4zM257 230q46 0 68 26t22 69q0 46 -24 72.5t-67 26.5q-45 0 -68 -28.5t-23 -70.5q0 -40 21.5 -67.5t70.5 -27.5zM225 -29q-40 0 -82 13
q-12 -4 -19.5 -15.5t-7.5 -25.5q0 -19 15 -32t39.5 -18.5t42 -7t34.5 -1.5q20 0 42 2t50.5 8t46.5 20.5t18 35.5q0 30 -52 30q-20 0 -62 -4.5t-65 -4.5zM228 760h70l-29 -50q-8 -13 -8 -28v-7h46v-116h-135v88q0 16 7 27z" />
    <glyph glyph-name="Hbar" unicode="&#x126;" horiz-adv-x="744" 
d="M678 0h-172v267h-266v-267h-174v714h174v-111h266v111h172v-714zM240 422h266v102h-266v-102z" />
    <glyph glyph-name="hbar" unicode="&#x127;" horiz-adv-x="597" 
d="M544 0h-153v323q0 70 -72 70q-35 0 -65.5 -17t-44.5 -44v-332h-152v573h-49v79h49v82h151v-82h106v-79h-106v-108h9q58 50 141 50q54 0 93 -19.5t58 -51t27 -63t8 -64.5v-317z" />
    <glyph glyph-name="uni012A" unicode="&#x12a;" horiz-adv-x="313" 
d="M243 0h-173v714h173v-714zM311 838h-307v79h307v-79z" />
    <glyph glyph-name="imacron" unicode="&#x12b;" horiz-adv-x="284" 
d="M218 0h-152v497h152v-497zM296 621h-307v79h307v-79z" />
    <glyph glyph-name="Ibreve" unicode="&#x12c;" horiz-adv-x="305" 
d="M239 0h-173v714h173v-714zM157 781q-83 0 -133 47t-58 129h80q21 -119 111 -119q89 0 111 119h79q-8 -82 -58 -129t-132 -47z" />
    <glyph glyph-name="ibreve" unicode="&#x12d;" horiz-adv-x="302" 
d="M227 0h-152v497h152v-497zM152 564q-83 0 -133 47t-58 129h80q21 -119 111 -119q89 0 111 119h79q-8 -82 -58 -129t-132 -47z" />
    <glyph glyph-name="Iogonek" unicode="&#x12e;" horiz-adv-x="305" 
d="M239 -242h-72q-151 0 -151 114q0 98 111 122v6h-61v714h173v-714q-75 -12 -102.5 -29.5t-27.5 -47.5q0 -52 70 -52h60v-113z" />
    <glyph glyph-name="iogonek" unicode="&#x12f;" horiz-adv-x="266" 
d="M209 -242h-73q-75 0 -113 30t-38 84q0 92 100 119v9h-28v497h152v-497q-75 -12 -102.5 -29.5t-27.5 -47.5q0 -52 70 -52h60v-113zM210 577h-154v157h154v-157z" />
    <glyph glyph-name="Idotaccent" unicode="&#x130;" horiz-adv-x="305" 
d="M239 0h-173v714h173v-714zM226 808h-146v136h146v-136z" />
    <glyph glyph-name="dotlessi" unicode="&#x131;" horiz-adv-x="266" 
d="M209 0h-152v497h152v-497z" />
    <glyph glyph-name="IJ" unicode="&#x132;" horiz-adv-x="812" 
d="M239 0h-173v714h173v-714zM476 -18q-54 0 -99 13t-65 30l47 134q47 -22 97 -22q55 0 87.5 29t32.5 82v466h174v-481q0 -120 -77.5 -185.5t-196.5 -65.5z" />
    <glyph glyph-name="ij" unicode="&#x133;" horiz-adv-x="533" 
d="M209 0h-152v497h152v-497zM210 577h-154v157h154v-157zM241 -208v124q18 -3 31 -3q51 0 51 48v536h153v-536q0 -87 -41.5 -132.5t-119.5 -45.5q-39 0 -74 9zM476 577h-153v157h153v-157z" />
    <glyph glyph-name="Kcommaaccent" unicode="&#x136;" horiz-adv-x="773" 
d="M741 0h-194l-193 323l-114 -103v-220h-174v714h174v-290l289 290h244l-300 -271zM398 -242h-70l29 50q8 13 8 28v7h-46v116h135v-88q0 -16 -7 -27z" />
    <glyph glyph-name="kcommaaccent" unicode="&#x137;" horiz-adv-x="594" 
d="M594 0h-181l-128 217l-76 -60v-157h-152v734h152v-414l192 177h187l-204 -184zM332 -242h-70l29 50q8 13 8 28v7h-46v116h135v-88q0 -16 -7 -27z" />
    <glyph glyph-name="Lacute" unicode="&#x139;" horiz-adv-x="625" 
d="M613 0h-547v714h174v-559h373v-155zM165 781h-86l100 176h158z" />
    <glyph glyph-name="lacute" unicode="&#x13a;" horiz-adv-x="267" 
d="M209 0h-152v734h152v-734zM145 781h-86l100 176h158z" />
    <glyph glyph-name="Lcommaaccent" unicode="&#x13b;" horiz-adv-x="625" 
d="M613 0h-547v714h174v-559h373v-155zM373 -242h-70l29 50q8 13 8 28v7h-46v116h135v-88q0 -16 -7 -27z" />
    <glyph glyph-name="lcommaaccent" unicode="&#x13c;" horiz-adv-x="267" 
d="M209 0h-152v734h152v-734zM145 -242h-70l29 50q8 13 8 28v7h-46v116h135v-88q0 -16 -7 -27z" />
    <glyph glyph-name="Lcaron" unicode="&#x13d;" horiz-adv-x="625" 
d="M613 0h-547v714h174v-559h373v-155zM468 454h-78l31 62q10 19 10 35v12h-53v151h156v-117q0 -16 -10 -34z" />
    <glyph glyph-name="lcaron" unicode="&#x13e;" horiz-adv-x="395" 
d="M209 0h-152v734h152v-734zM329 474h-78l31 62q10 19 10 35v12h-53v151h156v-117q0 -16 -10 -34z" />
    <glyph glyph-name="Lslash" unicode="&#x141;" horiz-adv-x="666" 
d="M384 359l-144 -38v-166h414v-155h-587v275l-67 -17v102l67 17v337h173v-291l144 38v-102z" />
    <glyph glyph-name="lslash" unicode="&#x142;" horiz-adv-x="315" 
d="M230 0h-152v312l-78 -23v99l78 23v323h152v-278l85 25v-101l-85 -25v-355z" />
    <glyph glyph-name="Nacute" unicode="&#x143;" 
d="M697 0h-150l-324 490h-4v-490h-153v714h224l246 -388h4v388h157v-714zM392 781h-86l100 176h158z" />
    <glyph glyph-name="nacute" unicode="&#x144;" horiz-adv-x="597" 
d="M544 0h-153v323q0 70 -72 70q-35 0 -65.5 -17t-44.5 -44v-332h-152v497h151v-37h4q61 55 146 55q54 0 93 -19.5t58 -51t27 -63t8 -64.5v-317zM294 564h-86l100 176h158z" />
    <glyph glyph-name="Ncommaaccent" unicode="&#x145;" 
d="M697 0h-150l-324 490h-4v-490h-153v714h224l246 -388h4v388h157v-714zM392 -242h-70l29 50q8 13 8 28v7h-46v116h135v-88q0 -16 -7 -27z" />
    <glyph glyph-name="ncommaaccent" unicode="&#x146;" horiz-adv-x="597" 
d="M544 0h-153v323q0 70 -72 70q-35 0 -65.5 -17t-44.5 -44v-332h-152v497h151v-37h4q61 55 146 55q54 0 93 -19.5t58 -51t27 -63t8 -64.5v-317zM295 -242h-70l29 50q8 13 8 28v7h-46v116h135v-88q0 -16 -7 -27z" />
    <glyph glyph-name="Ncaron" unicode="&#x147;" 
d="M697 0h-150l-324 490h-4v-490h-153v714h224l246 -388h4v388h157v-714zM381 851l71 106h101l-131 -176h-82l-132 176h102z" />
    <glyph glyph-name="ncaron" unicode="&#x148;" horiz-adv-x="597" 
d="M544 0h-153v323q0 70 -72 70q-35 0 -65.5 -17t-44.5 -44v-332h-152v497h151v-37h4q61 55 146 55q54 0 93 -19.5t58 -51t27 -63t8 -64.5v-317zM283 634l71 106h101l-131 -176h-82l-132 176h102z" />
    <glyph glyph-name="Eng" unicode="&#x14a;" 
d="M461 -234v125q19 -3 31 -3q52 0 52 48v68l-319 482h-6v-486h-153v714h224l245 -386h5v386h157v-778q0 -87 -42 -132.5t-120 -45.5q-36 0 -74 8z" />
    <glyph glyph-name="eng" unicode="&#x14b;" horiz-adv-x="587" 
d="M298 -234v125q20 -3 33 -3q50 0 50 48v387q0 34 -20 52t-55 18q-69 0 -97 -61v-332h-152v497h151v-35h5q54 53 135 53q54 0 92.5 -19.5t58 -51t27.5 -63t8 -64.5v-381q0 -87 -41.5 -132.5t-119.5 -45.5q-37 0 -75 8z" />
    <glyph glyph-name="Omacron" unicode="&#x14c;" horiz-adv-x="817" 
d="M406 -18q-160 0 -264 108.5t-104 272.5q0 168 109 269.5t269 101.5t261.5 -101.5t101.5 -263.5q0 -166 -105.5 -276.5t-267.5 -110.5zM407 137q86 0 142.5 63t56.5 158q0 93 -54 157t-144 64q-89 0 -142.5 -63.5t-53.5 -157.5q0 -95 54 -158t141 -63zM563 838h-307v79
h307v-79z" />
    <glyph glyph-name="omacron" unicode="&#x14d;" horiz-adv-x="627" 
d="M597 247q0 -118 -81 -191.5t-200 -73.5q-124 0 -205 78t-81 192q0 115 82 189t204 74q123 0 202 -76t79 -192zM445 250q0 67 -36 103t-97 36q-60 0 -94.5 -35.5t-34.5 -100.5t34.5 -105t97.5 -40q62 0 96 39t34 103zM467 621h-307v79h307v-79z" />
    <glyph glyph-name="Obreve" unicode="&#x14e;" horiz-adv-x="817" 
d="M406 -18q-160 0 -264 108.5t-104 272.5q0 168 109 269.5t269 101.5t261.5 -101.5t101.5 -263.5q0 -166 -105.5 -276.5t-267.5 -110.5zM407 137q86 0 142.5 63t56.5 158q0 93 -54 157t-144 64q-89 0 -142.5 -63.5t-53.5 -157.5q0 -95 54 -158t141 -63zM409 781
q-83 0 -133 47t-58 129h80q21 -119 111 -119q89 0 111 119h79q-8 -82 -58 -129t-132 -47z" />
    <glyph glyph-name="obreve" unicode="&#x14f;" horiz-adv-x="627" 
d="M597 247q0 -118 -81 -191.5t-200 -73.5q-124 0 -205 78t-81 192q0 115 82 189t204 74q123 0 202 -76t79 -192zM445 250q0 67 -36 103t-97 36q-60 0 -94.5 -35.5t-34.5 -100.5t34.5 -105t97.5 -40q62 0 96 39t34 103zM314 564q-83 0 -133 47t-58 129h80q21 -119 111 -119
q89 0 111 119h79q-8 -82 -58 -129t-132 -47z" />
    <glyph glyph-name="Ohungarumlaut" unicode="&#x150;" horiz-adv-x="817" 
d="M406 -18q-160 0 -264 108.5t-104 272.5q0 168 109 269.5t269 101.5t261.5 -101.5t101.5 -263.5q0 -166 -105.5 -276.5t-267.5 -110.5zM407 137q86 0 142.5 63t56.5 158q0 93 -54 157t-144 64q-89 0 -142.5 -63.5t-53.5 -157.5q0 -95 54 -158t141 -63zM339 808h-81l78 149
h93zM523 808h-80l75 149h95z" />
    <glyph glyph-name="ohungarumlaut" unicode="&#x151;" horiz-adv-x="627" 
d="M597 247q0 -118 -81 -191.5t-200 -73.5q-124 0 -205 78t-81 192q0 115 82 189t204 74q123 0 202 -76t79 -192zM445 250q0 67 -36 103t-97 36q-60 0 -94.5 -35.5t-34.5 -100.5t34.5 -105t97.5 -40q62 0 96 39t34 103zM244 591h-81l78 149h93zM428 591h-80l75 149h95z" />
    <glyph glyph-name="OE" unicode="&#x152;" horiz-adv-x="1079" 
d="M1029 0h-504q-54 -18 -115 -18q-164 0 -268 108t-104 272q0 168 108.5 270t267.5 102q67 0 129 -20h485v-146h-301q34 -60 47 -131h177v-140h-177q-13 -81 -59 -151h314v-146zM407 137q86 0 142.5 63t56.5 158q0 93 -54 157t-144 64q-89 0 -142.5 -63.5t-53.5 -157.5
q0 -95 54 -158t141 -63z" />
    <glyph glyph-name="oe" unicode="&#x153;" horiz-adv-x="1004" 
d="M972 235h-402q6 -66 45 -99.5t97 -33.5q82 0 111 62h131q-19 -83 -90.5 -132.5t-168.5 -49.5q-116 0 -191 75q-69 -75 -190 -75q-122 0 -203 78t-81 192q0 115 82.5 189t202.5 74q122 0 189 -75q78 75 199 75q116 0 193.5 -69t77.5 -178q0 -15 -2 -33zM315 108
q87 0 118 75q-8 35 -8 68q0 30 7 65q-31 73 -121 73q-60 0 -94 -35.5t-34 -100.5t34.5 -105t97.5 -40zM575 302h245q-3 47 -35 75t-83 28t-84.5 -28t-42.5 -75z" />
    <glyph glyph-name="Racute" unicode="&#x154;" horiz-adv-x="757" 
d="M737 0h-180q-12 19 -16.5 41.5t-9.5 80.5q-2 26 -4.5 43t-10 39.5t-18 35.5t-29 22.5t-43.5 9.5h-186v-272h-174v714h373q275 0 275 -199q0 -71 -34 -116t-93 -62v-4q64 -26 89.5 -85.5t32.5 -142.5q0 -2 1 -16t1.5 -17t2 -15t3 -16.5t4.5 -13t7 -15t9 -12.5zM454 573
h-214v-164h222q37 0 57.5 21.5t20.5 60.5q0 82 -86 82zM383 781h-86l100 176h158z" />
    <glyph glyph-name="racute" unicode="&#x155;" horiz-adv-x="445" 
d="M209 0h-152v497h150v-58h4q71 75 158 75q33 0 59 -12v-142q-45 25 -93 25q-45 0 -79.5 -22t-46.5 -61v-302zM236 564h-86l100 176h158z" />
    <glyph glyph-name="Rcommaaccent" unicode="&#x156;" horiz-adv-x="757" 
d="M737 0h-180q-12 19 -16.5 41.5t-9.5 80.5q-2 26 -4.5 43t-10 39.5t-18 35.5t-29 22.5t-43.5 9.5h-186v-272h-174v714h373q275 0 275 -199q0 -71 -34 -116t-93 -62v-4q64 -26 89.5 -85.5t32.5 -142.5q0 -2 1 -16t1.5 -17t2 -15t3 -16.5t4.5 -13t7 -15t9 -12.5zM454 573
h-214v-164h222q37 0 57.5 21.5t20.5 60.5q0 82 -86 82zM393 -242h-70l29 50q8 13 8 28v7h-46v116h135v-88q0 -16 -7 -27z" />
    <glyph glyph-name="rcommaaccent" unicode="&#x157;" horiz-adv-x="445" 
d="M209 0h-152v497h150v-58h4q71 75 158 75q33 0 59 -12v-142q-45 25 -93 25q-45 0 -79.5 -22t-46.5 -61v-302zM145 -242h-70l29 50q8 13 8 28v7h-46v116h135v-88q0 -16 -7 -27z" />
    <glyph glyph-name="Rcaron" unicode="&#x158;" horiz-adv-x="757" 
d="M737 0h-180q-12 19 -16.5 41.5t-9.5 80.5q-2 26 -4.5 43t-10 39.5t-18 35.5t-29 22.5t-43.5 9.5h-186v-272h-174v714h373q275 0 275 -199q0 -71 -34 -116t-93 -62v-4q64 -26 89.5 -85.5t32.5 -142.5q0 -2 1 -16t1.5 -17t2 -15t3 -16.5t4.5 -13t7 -15t9 -12.5zM454 573
h-214v-164h222q37 0 57.5 21.5t20.5 60.5q0 82 -86 82zM372 851l71 106h101l-131 -176h-82l-132 176h102z" />
    <glyph glyph-name="rcaron" unicode="&#x159;" horiz-adv-x="449" 
d="M213 0h-152v497h150v-58h4q71 75 158 75q33 0 59 -12v-142q-45 25 -93 25q-45 0 -79.5 -22t-46.5 -61v-302zM230 634l71 106h101l-131 -176h-82l-132 176h102z" />
    <glyph glyph-name="Sacute" unicode="&#x15a;" horiz-adv-x="695" 
d="M642 501h-155q-12 92 -146 92q-19 0 -37.5 -2.5t-43.5 -9t-40 -22.5t-15 -40q0 -51 76 -69q21 -5 102 -19t109 -20q84 -19 126 -65.5t42 -128.5q0 -64 -25.5 -111.5t-69 -73.5t-94 -38t-108.5 -12q-133 0 -229.5 62t-113.5 191h156q26 -111 193 -111q19 0 37.5 2t45 9
t42.5 25t16 45t-16.5 41t-48.5 22q-24 6 -101.5 18.5t-117.5 24.5q-79 22 -125 68t-46 130q0 60 25 105t67.5 70.5t91 37.5t103.5 12q79 0 143 -23t108.5 -77.5t48.5 -132.5zM350 781h-86l100 176h158z" />
    <glyph glyph-name="sacute" unicode="&#x15b;" horiz-adv-x="536" 
d="M491 346h-121q-14 56 -103 56q-85 0 -85 -44q0 -27 45 -37q4 -1 85.5 -9.5t118.5 -27.5q72 -36 72 -126q0 -48 -19 -83.5t-52.5 -55t-73 -28.5t-86.5 -9q-102 0 -170 43.5t-74 138.5h128q11 -71 113 -71q91 0 91 50q0 34 -56 46q-6 1 -81 10.5t-110 24.5q-74 33 -74 119
q0 61 36 101.5t84.5 55.5t106.5 15q90 0 154.5 -41t70.5 -128zM276 564h-86l100 176h158z" />
    <glyph glyph-name="Scedilla" unicode="&#x15e;" horiz-adv-x="695" 
d="M642 501h-155q-12 92 -146 92q-19 0 -37.5 -2.5t-43.5 -9t-40 -22.5t-15 -40q0 -51 76 -69q21 -5 102 -19t109 -20q84 -19 126 -65.5t42 -128.5q0 -64 -25.5 -111.5t-69 -73.5t-94 -38t-108.5 -12q-133 0 -229.5 62t-113.5 191h156q26 -111 193 -111q19 0 37.5 2t45 9
t42.5 25t16 45t-16.5 41t-48.5 22q-24 6 -101.5 18.5t-117.5 24.5q-79 22 -125 68t-46 130q0 60 25 105t67.5 70.5t91 37.5t103.5 12q79 0 143 -23t108.5 -77.5t48.5 -132.5zM351 -242h-70l29 50q8 13 8 28v7h-46v116h135v-88q0 -16 -7 -27z" />
    <glyph glyph-name="scedilla" unicode="&#x15f;" horiz-adv-x="536" 
d="M491 346h-121q-14 56 -103 56q-85 0 -85 -44q0 -27 45 -37q4 -1 85.5 -9.5t118.5 -27.5q72 -36 72 -126q0 -48 -19 -83.5t-52.5 -55t-73 -28.5t-86.5 -9q-102 0 -170 43.5t-74 138.5h128q11 -71 113 -71q91 0 91 50q0 34 -56 46q-6 1 -81 10.5t-110 24.5q-74 33 -74 119
q0 61 36 101.5t84.5 55.5t106.5 15q90 0 154.5 -41t70.5 -128zM276 -242h-70l29 50q8 13 8 28v7h-46v116h135v-88q0 -16 -7 -27z" />
    <glyph glyph-name="Scaron" unicode="&#x160;" horiz-adv-x="695" 
d="M642 501h-155q-12 92 -146 92q-19 0 -37.5 -2.5t-43.5 -9t-40 -22.5t-15 -40q0 -51 76 -69q21 -5 102 -19t109 -20q84 -19 126 -65.5t42 -128.5q0 -64 -25.5 -111.5t-69 -73.5t-94 -38t-108.5 -12q-133 0 -229.5 62t-113.5 191h156q26 -111 193 -111q19 0 37.5 2t45 9
t42.5 25t16 45t-16.5 41t-48.5 22q-24 6 -101.5 18.5t-117.5 24.5q-79 22 -125 68t-46 130q0 60 25 105t67.5 70.5t91 37.5t103.5 12q79 0 143 -23t108.5 -77.5t48.5 -132.5zM339 851l71 106h101l-131 -176h-82l-132 176h102z" />
    <glyph glyph-name="scaron" unicode="&#x161;" horiz-adv-x="536" 
d="M491 346h-121q-14 56 -103 56q-85 0 -85 -44q0 -27 45 -37q4 -1 85.5 -9.5t118.5 -27.5q72 -36 72 -126q0 -48 -19 -83.5t-52.5 -55t-73 -28.5t-86.5 -9q-102 0 -170 43.5t-74 138.5h128q11 -71 113 -71q91 0 91 50q0 34 -56 46q-6 1 -81 10.5t-110 24.5q-74 33 -74 119
q0 61 36 101.5t84.5 55.5t106.5 15q90 0 154.5 -41t70.5 -128zM265 634l71 106h101l-131 -176h-82l-132 176h102z" />
    <glyph glyph-name="Tcommaaccent" unicode="&#x162;" horiz-adv-x="618" 
d="M396 0h-174v559h-210v155h594v-155h-210v-559zM306 -242h-70l29 50q8 13 8 28v7h-46v116h135v-88q0 -16 -7 -27z" />
    <glyph glyph-name="tcommaaccent" unicode="&#x163;" horiz-adv-x="434" 
d="M422 132v-97q-13 -28 -51.5 -40t-78.5 -12q-67 0 -120 34t-53 101v267h-102v112h49q34 0 49 13t20 46l17 132h119v-191h146v-112h-146v-222q0 -46 66 -46q49 0 85 15zM265 -242h-70l29 50q8 13 8 28v7h-46v116h135v-88q0 -16 -7 -27z" />
    <glyph glyph-name="Tcaron" unicode="&#x164;" horiz-adv-x="618" 
d="M396 0h-174v559h-210v155h594v-155h-210v-559zM295 851l71 106h101l-131 -176h-82l-132 176h102z" />
    <glyph glyph-name="tcaron" unicode="&#x165;" horiz-adv-x="566" 
d="M422 132v-97q-13 -28 -51.5 -40t-78.5 -12q-67 0 -120 34t-53 101v267h-102v112h49q34 0 49 13t20 46l17 132h119v-191h146v-112h-146v-222q0 -46 66 -46q49 0 85 15zM500 474h-78l31 62q10 19 10 35v12h-53v151h156v-117q0 -16 -10 -34z" />
    <glyph glyph-name="Tbar" unicode="&#x166;" horiz-adv-x="618" 
d="M396 0h-174v241h-96v98h96v220h-210v155h594v-155h-210v-220h96v-98h-96v-241z" />
    <glyph glyph-name="tbar" unicode="&#x167;" horiz-adv-x="434" 
d="M392 205h-121v-42q0 -46 66 -46q49 0 85 15v-97q-13 -28 -51.5 -40t-78.5 -12q-67 0 -120 34t-53 101v87h-75v98h75v82h-102v112h49q34 0 49 13t20 46l17 132h119v-191h146v-112h-146v-82h121v-98z" />
    <glyph glyph-name="Utilde" unicode="&#x168;" 
d="M535 297v417h166v-441q0 -144 -82 -217.5t-234 -73.5q-159 0 -241 78t-82 224v430h174v-414q0 -80 35.5 -122.5t117.5 -42.5q81 0 113.5 41.5t32.5 120.5zM250 816h-35q0 125 85 125q32 0 85 -23.5t76 -23.5q43 0 53 48h34q0 -125 -85 -125q-29 0 -82 23.5t-77 23.5
q-46 0 -54 -48z" />
    <glyph glyph-name="utilde" unicode="&#x169;" horiz-adv-x="616" 
d="M559 0h-153v51h-4q-53 -69 -159 -69q-92 0 -141 52t-49 151v312h153v-299q0 -45 25.5 -68.5t68.5 -23.5q86 0 106 102v289h153v-497zM177 599h-35q0 125 85 125q33 0 85 -23.5t76 -23.5q43 0 53 48h34q0 -125 -85 -125q-29 0 -82 23.5t-77 23.5q-46 0 -54 -48z" />
    <glyph glyph-name="Umacron" unicode="&#x16a;" 
d="M535 297v417h166v-441q0 -144 -82 -217.5t-234 -73.5q-159 0 -241 78t-82 224v430h174v-414q0 -80 35.5 -122.5t117.5 -42.5q81 0 113.5 41.5t32.5 120.5zM535 838h-307v79h307v-79z" />
    <glyph glyph-name="umacron" unicode="&#x16b;" horiz-adv-x="616" 
d="M559 0h-153v51h-4q-53 -69 -159 -69q-92 0 -141 52t-49 151v312h153v-299q0 -45 25.5 -68.5t68.5 -23.5q86 0 106 102v289h153v-497zM461 621h-307v79h307v-79z" />
    <glyph glyph-name="Ubreve" unicode="&#x16c;" 
d="M535 297v417h166v-441q0 -144 -82 -217.5t-234 -73.5q-159 0 -241 78t-82 224v430h174v-414q0 -80 35.5 -122.5t117.5 -42.5q81 0 113.5 41.5t32.5 120.5zM382 781q-83 0 -133 47t-58 129h80q21 -119 111 -119q89 0 111 119h79q-8 -82 -58 -129t-132 -47z" />
    <glyph glyph-name="ubreve" unicode="&#x16d;" horiz-adv-x="616" 
d="M559 0h-153v51h-4q-53 -69 -159 -69q-92 0 -141 52t-49 151v312h153v-299q0 -45 25.5 -68.5t68.5 -23.5q86 0 106 102v289h153v-497zM308 564q-83 0 -133 47t-58 129h80q21 -119 111 -119q89 0 111 119h79q-8 -82 -58 -129t-132 -47z" />
    <glyph glyph-name="Uring" unicode="&#x16e;" 
d="M535 297v417h166v-441q0 -144 -82 -217.5t-234 -73.5q-159 0 -241 78t-82 224v430h174v-414q0 -80 35.5 -122.5t117.5 -42.5q81 0 113.5 41.5t32.5 120.5zM381 804q22 0 34 13.5t12 36.5q0 47 -46 47t-46 -47q0 -23 12 -36.5t34 -13.5zM381 747q-49 0 -82 29.5t-33 76.5
t33 75.5t82 28.5t82 -28.5t33 -75.5t-33 -76.5t-82 -29.5z" />
    <glyph glyph-name="uring" unicode="&#x16f;" horiz-adv-x="616" 
d="M559 0h-153v51h-4q-53 -69 -159 -69q-92 0 -141 52t-49 151v312h153v-299q0 -45 25.5 -68.5t68.5 -23.5q86 0 106 102v289h153v-497zM307 612q22 0 34 13.5t12 36.5q0 47 -46 47t-46 -47q0 -23 12 -36.5t34 -13.5zM307 555q-49 0 -82 29.5t-33 76.5t33 75.5t82 28.5
t82 -28.5t33 -75.5t-33 -76.5t-82 -29.5z" />
    <glyph glyph-name="Uhungarumlaut" unicode="&#x170;" 
d="M535 297v417h166v-441q0 -144 -82 -217.5t-234 -73.5q-159 0 -241 78t-82 224v430h174v-414q0 -80 35.5 -122.5t117.5 -42.5q81 0 113.5 41.5t32.5 120.5zM311 808h-81l78 149h93zM495 808h-80l75 149h95z" />
    <glyph glyph-name="uhungarumlaut" unicode="&#x171;" horiz-adv-x="616" 
d="M559 0h-153v51h-4q-53 -69 -159 -69q-92 0 -141 52t-49 151v312h153v-299q0 -45 25.5 -68.5t68.5 -23.5q86 0 106 102v289h153v-497zM238 591h-81l78 149h93zM422 591h-80l75 149h95z" />
    <glyph glyph-name="Uogonek" unicode="&#x172;" 
d="M515 -242h-73q-151 0 -151 114q0 72 64 106v5q-141 6 -217 83.5t-76 217.5v430h174v-414q0 -80 35.5 -122.5t117.5 -42.5q81 0 113.5 41.5t32.5 120.5v417h166v-441q0 -256 -250 -286q-39 -11 -53 -27t-14 -38q0 -51 70 -51h61v-113z" />
    <glyph glyph-name="uogonek" unicode="&#x173;" horiz-adv-x="616" 
d="M559 -242h-73q-75 0 -113 30t-38 84q0 99 115 123v5h-44v48h-6q-54 -66 -157 -66q-92 0 -141 52t-49 151v312h153v-299q0 -45 25.5 -68.5t68.5 -23.5q86 0 106 102v289h153v-497q-75 -12 -102.5 -29.5t-27.5 -47.5q0 -52 70 -52h60v-113z" />
    <glyph glyph-name="Wcircumflex" unicode="&#x174;" horiz-adv-x="1079" 
d="M870 0h-196l-138 483h-4l-145 -483h-198l-175 714h182l113 -489h4l132 489h184l135 -489h4l129 489h168zM536 887l-71 -106h-102l132 176h82l131 -176h-101z" />
    <glyph glyph-name="wcircumflex" unicode="&#x175;" horiz-adv-x="845" 
d="M679 0h-148l-97 331h-4l-94 -331h-162l-166 497h164l91 -322h4l88 322h153l90 -322h4l88 322h147zM432 670l-71 -106h-102l132 176h82l131 -176h-101z" />
    <glyph glyph-name="Ycircumflex" unicode="&#x176;" horiz-adv-x="698" 
d="M436 0h-173v295l-263 419h200l167 -273l166 273h165l-262 -419v-295zM363 887l-71 -106h-102l132 176h82l131 -176h-101z" />
    <glyph glyph-name="ycircumflex" unicode="&#x177;" horiz-adv-x="601" 
d="M212 -212h-169v127h116q20 0 32.5 15t28.5 52l7 17l-219 498h164l134 -316h4l129 316h154l-226 -538q-35 -83 -71 -127t-84 -44zM304 670l-71 -106h-102l132 176h82l131 -176h-101z" />
    <glyph glyph-name="Ydieresis" unicode="&#x178;" horiz-adv-x="698" 
d="M436 0h-173v295l-263 419h200l167 -273l166 273h165l-262 -419v-295zM305 808h-146v136h146v-136zM539 808h-148v136h148v-136z" />
    <glyph glyph-name="Zacute" unicode="&#x179;" horiz-adv-x="666" 
d="M615 0h-569v85l329 486h-307v143h552v-70l-331 -503h326v-141zM345 781h-86l100 176h158z" />
    <glyph glyph-name="zacute" unicode="&#x17a;" horiz-adv-x="539" 
d="M248 116h247v-116h-453v86l232 299h-207v112h420v-75zM275 564h-86l100 176h158z" />
    <glyph glyph-name="Zdotaccent" unicode="&#x17b;" horiz-adv-x="666" 
d="M615 0h-569v85l329 486h-307v143h552v-70l-331 -503h326v-141zM415 808h-146v136h146v-136z" />
    <glyph glyph-name="zdotaccent" unicode="&#x17c;" horiz-adv-x="539" 
d="M248 116h247v-116h-453v86l232 299h-207v112h420v-75zM346 591h-146v136h146v-136z" />
    <glyph glyph-name="Zcaron" unicode="&#x17d;" horiz-adv-x="666" 
d="M615 0h-569v85l329 486h-307v143h552v-70l-331 -503h326v-141zM334 851l71 106h101l-131 -176h-82l-132 176h102z" />
    <glyph glyph-name="zcaron" unicode="&#x17e;" horiz-adv-x="539" 
d="M248 116h247v-116h-453v86l232 299h-207v112h420v-75zM264 634l71 106h101l-131 -176h-82l-132 176h102z" />
    <glyph glyph-name="florin" unicode="&#x192;" horiz-adv-x="512" 
d="M100 -143h-62v106h33q33 0 47 12t18 46l58 395h-84v111h98l8 37q20 92 57.5 121t135.5 29h57v-105h-55q-48 0 -53 -47l-4 -35h110v-111h-125l-60 -411q-13 -87 -49.5 -117.5t-129.5 -30.5z" />
    <glyph glyph-name="Scommaaccent" unicode="&#x218;" horiz-adv-x="695" 
d="M642 501h-155q-12 92 -146 92q-19 0 -37.5 -2.5t-43.5 -9t-40 -22.5t-15 -40q0 -51 76 -69q21 -5 102 -19t109 -20q84 -19 126 -65.5t42 -128.5q0 -64 -25.5 -111.5t-69 -73.5t-94 -38t-108.5 -12q-133 0 -229.5 62t-113.5 191h156q26 -111 193 -111q19 0 37.5 2t45 9
t42.5 25t16 45t-16.5 41t-48.5 22q-24 6 -101.5 18.5t-117.5 24.5q-79 22 -125 68t-46 130q0 60 25 105t67.5 70.5t91 37.5t103.5 12q79 0 143 -23t108.5 -77.5t48.5 -132.5zM351 -242h-70l29 50q8 13 8 28v7h-46v116h135v-88q0 -16 -7 -27z" />
    <glyph glyph-name="scommaaccent" unicode="&#x219;" horiz-adv-x="536" 
d="M491 346h-121q-14 56 -103 56q-85 0 -85 -44q0 -27 45 -37q4 -1 85.5 -9.5t118.5 -27.5q72 -36 72 -126q0 -48 -19 -83.5t-52.5 -55t-73 -28.5t-86.5 -9q-102 0 -170 43.5t-74 138.5h128q11 -71 113 -71q91 0 91 50q0 34 -56 46q-6 1 -81 10.5t-110 24.5q-74 33 -74 119
q0 61 36 101.5t84.5 55.5t106.5 15q90 0 154.5 -41t70.5 -128zM276 -242h-70l29 50q8 13 8 28v7h-46v116h135v-88q0 -16 -7 -27z" />
    <glyph glyph-name="uni021A" unicode="&#x21a;" horiz-adv-x="618" 
d="M396 0h-174v559h-210v155h594v-155h-210v-559zM306 -242h-70l29 50q8 13 8 28v7h-46v116h135v-88q0 -16 -7 -27z" />
    <glyph glyph-name="uni021B" unicode="&#x21b;" horiz-adv-x="434" 
d="M422 132v-97q-13 -28 -51.5 -40t-78.5 -12q-67 0 -120 34t-53 101v267h-102v112h49q34 0 49 13t20 46l17 132h119v-191h146v-112h-146v-222q0 -46 66 -46q49 0 85 15zM265 -242h-70l29 50q8 13 8 28v7h-46v116h135v-88q0 -16 -7 -27z" />
    <glyph glyph-name="circumflex" unicode="&#x2c6;" horiz-adv-x="478" 
d="M239 670l-71 -106h-102l132 176h82l131 -176h-101z" />
    <glyph glyph-name="caron" unicode="&#x2c7;" horiz-adv-x="478" 
d="M239 634l71 106h101l-131 -176h-82l-132 176h102z" />
    <glyph glyph-name="breve" unicode="&#x2d8;" horiz-adv-x="514" 
d="M257 564q-83 0 -133 47t-58 129h80q21 -119 111 -119q89 0 111 119h79q-8 -82 -58 -129t-132 -47z" />
    <glyph glyph-name="dotaccent" unicode="&#x2d9;" horiz-adv-x="278" 
d="M212 591h-146v136h146v-136z" />
    <glyph glyph-name="ring" unicode="&#x2da;" horiz-adv-x="320" 
d="M159 587q22 0 34 13.5t12 36.5q0 47 -46 47t-46 -47q0 -23 12 -36.5t34 -13.5zM159 530q-49 0 -82 29.5t-33 76.5t33 75.5t82 28.5t82 -28.5t33 -75.5t-33 -76.5t-82 -29.5z" />
    <glyph glyph-name="ogonek" unicode="&#x2db;" horiz-adv-x="295" 
d="M260 -242h-73q-151 0 -151 114q0 58 40.5 90t112.5 38h71q-76 -12 -103.5 -29.5t-27.5 -47.5q0 -52 70 -52h61v-113z" />
    <glyph glyph-name="tilde" unicode="&#x2dc;" horiz-adv-x="465" 
d="M101 599h-35q0 125 85 125q33 0 85 -23.5t76 -23.5q43 0 53 48h34q0 -125 -85 -125q-29 0 -82 23.5t-77 23.5q-46 0 -54 -48z" />
    <glyph glyph-name="hungarumlaut" unicode="&#x2dd;" horiz-adv-x="488" 
d="M147 591h-81l78 149h93zM331 591h-80l75 149h95z" />
    <glyph glyph-name="Delta" unicode="&#x394;" horiz-adv-x="772" 
d="M12 0l334 714h97l317 -714h-748zM508 155l-124 308h-4l-124 -308h252z" />
    <glyph glyph-name="Omega" unicode="&#x3a9;" horiz-adv-x="730" 
d="M662 0h-244v137q45 32 63 88t18 157q0 51 -5 85t-19 64t-42.5 44.5t-73.5 14.5q-76 0 -101.5 -45.5t-25.5 -154.5q0 -197 81 -253v-137h-245v155h129q-76 62 -109 122t-33 167q0 65 13.5 114t46.5 90.5t96 63.5t155 22t155 -22t95.5 -63.5t46 -90.5t13.5 -115
q0 -103 -32.5 -164t-109.5 -124h128v-155z" />
    <glyph glyph-name="mu" unicode="&#x3bc;" horiz-adv-x="619" 
d="M208 -213h-151v710h151v-300q0 -42 27 -67t70 -25q84 0 105 103v289h152v-497h-152v50h-4q-47 -61 -128 -61q-35 0 -70 15v-217z" />
    <glyph glyph-name="pi" unicode="&#x3c0;" horiz-adv-x="644" 
d="M209 0h-152v497h436v-341q0 -39 66 -39q54 0 85 15v-97q-12 -28 -51 -40t-79 -12q-68 0 -121 34t-53 101v267h-131v-385z" />
    <glyph glyph-name="uni0400" unicode="&#x400;" horiz-adv-x="688" 
d="M638 0h-572v714h571v-146h-397v-131h321v-140h-321v-151h398v-146zM433 781h-85l-173 176h159z" />
    <glyph glyph-name="uni0401" unicode="&#x401;" horiz-adv-x="688" 
d="M638 0h-572v714h571v-146h-397v-131h321v-140h-321v-151h398v-146zM307 808h-146v136h146v-136zM541 808h-148v136h148v-136z" />
    <glyph glyph-name="uni0402" unicode="&#x402;" horiz-adv-x="793" 
d="M396 0h-174v559h-210v155h594v-155h-210v-126h8q54 49 141 49q103 0 160 -63t57 -183q0 -125 -64.5 -189.5t-186.5 -64.5q-42 0 -82 10v140q29 -22 77 -22q104 0 104 121q0 129 -107 129q-80 0 -107 -61v-299z" />
    <glyph glyph-name="uni0403" unicode="&#x403;" horiz-adv-x="616" 
d="M66 714h538v-155h-364v-559h-174v714zM346 781h-86l100 176h158z" />
    <glyph glyph-name="uni0404" unicode="&#x404;" horiz-adv-x="813" 
d="M545 305h-328q14 -78 67 -123t127 -45q62 0 113 33t77 92h168q-29 -124 -129.5 -202t-232.5 -78q-159 0 -264 109t-105 269q0 159 105 266.5t270 107.5q135 0 234.5 -74.5t125.5 -204.5h-174q-25 58 -73 91t-111 33q-71 0 -124 -40t-71 -111h325v-123z" />
    <glyph glyph-name="uni0405" unicode="&#x405;" horiz-adv-x="695" 
d="M642 501h-155q-12 92 -146 92q-19 0 -37.5 -2.5t-43.5 -9t-40 -22.5t-15 -40q0 -51 76 -69q21 -5 102 -19t109 -20q84 -19 126 -65.5t42 -128.5q0 -64 -25.5 -111.5t-69 -73.5t-94 -38t-108.5 -12q-133 0 -229.5 62t-113.5 191h156q26 -111 193 -111q19 0 37.5 2t45 9
t42.5 25t16 45t-16.5 41t-48.5 22q-24 6 -101.5 18.5t-117.5 24.5q-79 22 -125 68t-46 130q0 60 25 105t67.5 70.5t91 37.5t103.5 12q79 0 143 -23t108.5 -77.5t48.5 -132.5z" />
    <glyph glyph-name="uni0406" unicode="&#x406;" horiz-adv-x="305" 
d="M239 0h-173v714h173v-714z" />
    <glyph glyph-name="uni0407" unicode="&#x407;" horiz-adv-x="320" 
d="M246 0h-173v714h173v-714zM116 808h-146v136h146v-136zM350 808h-148v136h148v-136z" />
    <glyph glyph-name="uni0408" unicode="&#x408;" horiz-adv-x="500" 
d="M164 -18q-54 0 -99 13t-65 30l47 134q47 -22 97 -22q55 0 87.5 29t32.5 82v466h174v-481q0 -120 -77.5 -185.5t-196.5 -65.5z" />
    <glyph glyph-name="uni0409" unicode="&#x409;" horiz-adv-x="1266" 
d="M235 714h533v-234h236q97 0 165.5 -65t68.5 -167q0 -44 -14 -86.5t-40.5 -79.5t-71.5 -59.5t-101 -22.5h-418v569h-197v-185q0 -135 -12 -207t-43 -114q-60 -81 -189 -81q-51 0 -93.5 12t-58.5 31l42 129q34 -22 76 -22q59 0 86 32q19 21 25 69.5t6 193.5v287zM765 148
h209q42 0 66 25t24 71q0 44 -22 67t-62 23h-215v-186z" />
    <glyph glyph-name="uni040A" unicode="&#x40a;" horiz-adv-x="1179" 
d="M506 714h175v-258h236q99 0 166.5 -59.5t67.5 -160.5q0 -94 -58.5 -165t-168.5 -71h-418v310h-266v-310h-174v714h174v-258h266v258zM678 148h209q90 0 90 84q0 78 -84 78h-215v-162z" />
    <glyph glyph-name="uni040B" unicode="&#x40b;" horiz-adv-x="804" 
d="M737 0h-174v289q0 37 -21 55t-52 18q-69 0 -94 -77v-285h-174v559h-210v155h594v-155h-210v-129h5q51 52 140 52q196 0 196 -215v-267z" />
    <glyph glyph-name="uni040C" unicode="&#x40c;" horiz-adv-x="773" 
d="M741 0h-228l-273 330v-330h-174v714h174v-289l298 289h235l-358 -316zM381 781h-86l100 176h158z" />
    <glyph glyph-name="uni040D" unicode="&#x40d;" horiz-adv-x="744" 
d="M678 0h-172v426h-4l-262 -426h-174v714h174v-443h4l262 443h172v-714zM455 781h-85l-173 176h159z" />
    <glyph glyph-name="uni040E" unicode="&#x40e;" horiz-adv-x="685" 
d="M0 714h197l146 -299h4l152 299h186l-380 -714h-187l135 254zM359 781q-83 0 -133 47t-58 129h80q21 -119 111 -119q89 0 111 119h79q-8 -82 -58 -129t-132 -47z" />
    <glyph glyph-name="uni040F" unicode="&#x40f;" horiz-adv-x="744" 
d="M446 -170h-152v170h-228v714h172v-569h266v569h174v-714h-232v-170z" />
    <glyph glyph-name="uni0410" unicode="&#x410;" horiz-adv-x="771" 
d="M759 0h-194l-38 94h-290l-38 -94h-187l334 714h96zM478 223l-94 241h-4l-95 -241h193z" />
    <glyph glyph-name="uni0411" unicode="&#x411;" horiz-adv-x="741" 
d="M66 714h437v-155h-260v-89h236q106 0 170 -61.5t64 -167.5q0 -44 -12 -84.5t-37 -77t-71 -58t-107 -21.5h-420v714zM240 148h209q43 0 66.5 23t23.5 68q0 85 -84 85h-215v-176z" />
    <glyph glyph-name="uni0412" unicode="&#x412;" horiz-adv-x="746" 
d="M423 0h-357v714h431q80 0 132.5 -48t52.5 -126q0 -57 -30 -97.5t-86 -56.5v-4q147 -37 147 -185q0 -40 -11 -71t-27 -51.5t-42.5 -35t-49.5 -22t-55.5 -11.5t-53.5 -5t-51 -1zM441 312h-201v-169h196q45 0 78.5 20.5t33.5 66.5q0 25 -10.5 42t-28 25.5t-34 11.5t-34.5 3z
M452 429q37 0 55.5 22t18.5 55q0 31 -17.5 52t-53.5 21h-215v-150h212z" />
    <glyph glyph-name="uni0413" unicode="&#x413;" horiz-adv-x="616" 
d="M66 714h538v-155h-364v-559h-174v714z" />
    <glyph glyph-name="uni0414" unicode="&#x414;" horiz-adv-x="915" 
d="M165 -170h-152v288h133q28 15 50 47q18 27 24.5 72t6.5 190v287h532v-596h143v-288h-153v170h-584v-170zM375 196q-6 -35 -32 -78h242v451h-202v-185q0 -140 -8 -188z" />
    <glyph glyph-name="uni0415" unicode="&#x415;" horiz-adv-x="688" 
d="M638 0h-572v714h571v-146h-397v-131h321v-140h-321v-151h398v-146z" />
    <glyph glyph-name="uni0416" unicode="&#x416;" horiz-adv-x="1133" 
d="M1098 0h-215l-232 330v-330h-169v330l-232 -330h-215l278 398l-305 316h220l254 -289v289h169v-289l254 289h220l-305 -316z" />
    <glyph glyph-name="uni0417" unicode="&#x417;" horiz-adv-x="705" 
d="M382 314h-111v104h78q72 0 107.5 19t35.5 64q0 91 -135 91q-154 0 -154 -128h-136q-2 22 -2 39q0 110 74.5 170.5t219.5 60.5q139 0 219 -55.5t80 -160.5q0 -118 -98 -152v-4q49 -19 76 -61.5t27 -97.5q0 -99 -81 -160t-230 -61q-67 0 -123 13.5t-101 42t-70.5 77.5
t-25.5 114q0 27 4 51h140q0 -75 43.5 -115t128.5 -40q67 0 107.5 24.5t40.5 74.5q0 41 -29 65.5t-85 24.5z" />
    <glyph glyph-name="uni0418" unicode="&#x418;" horiz-adv-x="744" 
d="M678 0h-172v426h-4l-262 -426h-174v714h174v-443h4l262 443h172v-714z" />
    <glyph glyph-name="uni0419" unicode="&#x419;" horiz-adv-x="744" 
d="M678 0h-172v426h-4l-262 -426h-174v714h174v-443h4l262 443h172v-714zM379 781q-83 0 -133 47t-58 129h80q21 -119 111 -119q89 0 111 119h79q-8 -82 -58 -129t-132 -47z" />
    <glyph glyph-name="uni041A" unicode="&#x41a;" horiz-adv-x="773" 
d="M741 0h-228l-273 330v-330h-174v714h174v-289l298 289h235l-358 -316z" />
    <glyph glyph-name="uni041B" unicode="&#x41b;" horiz-adv-x="833" 
d="M152 -18q-51 0 -93.5 12t-58.5 31l42 129q34 -22 76 -22q59 0 86 32q19 21 25 69.5t6 193.5v287h532v-714h-174v569h-197v-185q0 -135 -12 -207t-43 -114q-60 -81 -189 -81z" />
    <glyph glyph-name="uni041C" unicode="&#x41c;" horiz-adv-x="897" 
d="M831 0h-174v531h-4l-164 -531h-98l-166 531h-4v-531h-155v714h265l119 -440h4l126 440h251v-714z" />
    <glyph glyph-name="uni041D" unicode="&#x41d;" horiz-adv-x="744" 
d="M678 0h-172v267h-266v-267h-174v714h174v-292h266v292h172v-714z" />
    <glyph glyph-name="uni041E" unicode="&#x41e;" horiz-adv-x="817" 
d="M406 -18q-160 0 -264 108.5t-104 272.5q0 168 109 269.5t269 101.5t261.5 -101.5t101.5 -263.5q0 -166 -105.5 -276.5t-267.5 -110.5zM407 137q86 0 142.5 63t56.5 158q0 93 -54 157t-144 64q-89 0 -142.5 -63.5t-53.5 -157.5q0 -95 54 -158t141 -63z" />
    <glyph glyph-name="uni041F" unicode="&#x41f;" horiz-adv-x="744" 
d="M678 0h-172v569h-266v-569h-174v714h612v-714z" />
    <glyph glyph-name="uni0420" unicode="&#x420;" horiz-adv-x="741" 
d="M243 0h-177v714h420q56 0 101 -22.5t71.5 -59.5t40.5 -79.5t14 -86.5q0 -102 -68.5 -167t-165.5 -65h-236v-234zM449 566h-209v-186h215q40 0 62 23t22 67q0 46 -24 71t-66 25z" />
    <glyph glyph-name="uni0421" unicode="&#x421;" horiz-adv-x="813" 
d="M413 734q140 0 241 -80.5t123 -219.5h-171q-22 66 -72 105.5t-121 39.5q-89 0 -145 -60t-56 -158t55.5 -161t142.5 -63q68 0 122 39t75 105h166q-24 -130 -125.5 -214.5t-239.5 -84.5q-159 0 -264.5 109.5t-105.5 268.5t105 266.5t270 107.5z" />
    <glyph glyph-name="uni0422" unicode="&#x422;" horiz-adv-x="618" 
d="M396 0h-174v559h-210v155h594v-155h-210v-559z" />
    <glyph glyph-name="uni0423" unicode="&#x423;" horiz-adv-x="685" 
d="M0 714h197l146 -299h4l152 299h186l-380 -714h-187l135 254z" />
    <glyph glyph-name="uni0424" unicode="&#x424;" horiz-adv-x="912" 
d="M543 0h-174v90h-22q-147 0 -228 68.5t-81 201.5q0 130 79.5 197t229.5 67h22v90h174v-90h22q150 0 229.5 -67t79.5 -197q0 -133 -81 -201.5t-228 -68.5h-22v-90zM543 219h11q75 0 110.5 29t35.5 104t-36.5 108.5t-110.5 33.5h-10v-275zM358 219h11v275h-10
q-74 0 -110.5 -33.5t-36.5 -108.5t35.5 -104t110.5 -29z" />
    <glyph glyph-name="uni0425" unicode="&#x425;" horiz-adv-x="710" 
d="M702 0h-211l-143 242l-153 -242h-187l244 373l-232 341h206l129 -217l133 217h187l-223 -340z" />
    <glyph glyph-name="uni0426" unicode="&#x426;" horiz-adv-x="834" 
d="M668 0h-602v714h172v-569h266v569h174v-596h143v-288h-153v170z" />
    <glyph glyph-name="uni0427" unicode="&#x427;" horiz-adv-x="714" 
d="M63 714h174v-305q0 -37 28.5 -55t74.5 -18q51 0 86.5 20.5t47.5 56.5v301h174v-714h-174v274q-50 -58 -172 -58q-117 0 -178 54t-61 161v283z" />
    <glyph glyph-name="uni0428" unicode="&#x428;" horiz-adv-x="1025" 
d="M790 714h169v-714h-893v714h171v-569h194v569h165v-569h194v569z" />
    <glyph glyph-name="uni0429" unicode="&#x429;" horiz-adv-x="1115" 
d="M949 0h-883v714h171v-569h194v569h165v-569h194v569h169v-596h143v-288h-153v170z" />
    <glyph glyph-name="uni042A" unicode="&#x42a;" horiz-adv-x="897" 
d="M642 0h-420v559h-210v155h387v-234h236q97 0 165.5 -65t68.5 -167q0 -44 -14 -86.5t-40.5 -79.5t-71.5 -59.5t-101 -22.5zM396 148h209q42 0 66 25t24 71q0 44 -22 67t-62 23h-215v-186z" />
    <glyph glyph-name="uni042B" unicode="&#x42b;" horiz-adv-x="1038" 
d="M66 714h177v-234h236q97 0 165.5 -65t68.5 -167q0 -44 -14 -86.5t-40.5 -79.5t-71.5 -59.5t-101 -22.5h-420v714zM240 148h209q42 0 66 25t24 71q0 44 -22 67t-62 23h-215v-186zM972 0h-173v714h173v-714z" />
    <glyph glyph-name="uni042C" unicode="&#x42c;" horiz-adv-x="741" 
d="M66 714h177v-234h236q97 0 165.5 -65t68.5 -167q0 -44 -14 -86.5t-40.5 -79.5t-71.5 -59.5t-101 -22.5h-420v714zM240 148h209q42 0 66 25t24 71q0 44 -22 67t-62 23h-215v-186z" />
    <glyph glyph-name="uni042D" unicode="&#x42d;" horiz-adv-x="813" 
d="M596 305h-328v123h325q-18 71 -71 111t-124 40q-63 0 -111 -33t-73 -91h-174q26 130 125.5 204.5t234.5 74.5q165 0 270 -107.5t105 -266.5q0 -160 -105 -269t-264 -109q-132 0 -232.5 78t-129.5 202h168q26 -59 77 -92t113 -33q74 0 127 45t67 123z" />
    <glyph glyph-name="uni042E" unicode="&#x42e;" horiz-adv-x="1112" 
d="M239 0h-173v714h173v-286h97q21 138 125.5 222t248.5 84q160 0 261.5 -102t101.5 -264q0 -165 -105.5 -275.5t-267.5 -110.5q-144 0 -245 89.5t-119 233.5h-97v-305zM701 137q86 0 142.5 63t56.5 158q0 93 -54 157t-144 64q-89 0 -142.5 -63.5t-53.5 -157.5
q0 -95 54 -158t141 -63z" />
    <glyph glyph-name="uni042F" unicode="&#x42f;" horiz-adv-x="757" 
d="M200 0h-180q5 6 9 12.5t7 15t4.5 13t3 16.5t2 15t1.5 17t1 16q8 98 37 151q32 58 85 77v4q-127 41 -127 177q0 200 275 200h373v-714h-174v272h-186q-71 0 -93 -73q-8 -26 -14.5 -101.5t-23.5 -97.5zM517 573h-214q-86 0 -86 -82q0 -39 20.5 -60.5t57.5 -21.5h222v164z
" />
    <glyph glyph-name="uni0430" unicode="&#x430;" horiz-adv-x="592" 
d="M592 115v-110q-40 -23 -107 -23q-49 0 -81.5 22.5t-41.5 67.5h-4q-28 -41 -77.5 -65t-103.5 -24q-70 0 -107.5 41t-37.5 110q0 55 24.5 95t65.5 61t84.5 30t92.5 9q21 0 49 -2v11q0 43 -19 59t-58 16q-38 0 -59.5 -15.5t-27.5 -55.5h-138q4 103 54.5 138t158.5 35
q131 0 185 -45.5t54 -172.5v-133q0 -59 51 -59q20 0 43 10zM351 169v83q-40 4 -43 4q-48 0 -90.5 -25t-42.5 -74q0 -58 65 -58q37 0 68.5 20t42.5 50z" />
    <glyph glyph-name="uni0431" unicode="&#x431;" horiz-adv-x="565" 
d="M532 746v-118q-27 -50 -93 -50q-40 0 -107 20t-94 20q-48 0 -73 -41q-24 -38 -30 -121h4q44 50 136 50q118 0 190 -70t72 -188q0 -119 -72.5 -192.5t-180.5 -73.5t-180 70q-45 45 -61 117t-16 195q0 228 57 308q52 74 161 74q42 0 104 -15.5t96 -15.5q56 0 87 31z
M400 250q0 67 -32 103t-87 36q-54 0 -85 -35.5t-31 -100.5t31 -105t87 -40t86.5 38.5t30.5 103.5z" />
    <glyph glyph-name="uni0432" unicode="&#x432;" horiz-adv-x="602" 
d="M336 0h-279v497h336q63 0 104 -33.5t41 -86.5q0 -40 -23.5 -69.5t-65.5 -38.5v-4q50 -11 81.5 -42.5t31.5 -87.5q0 -27 -8.5 -48.5t-21.5 -35.5t-33.5 -24t-38.5 -15t-43.5 -8t-41.5 -3.5t-39 -0.5zM346 217h-139v-104h135q31 0 54 12t23 41q0 28 -22.5 39.5t-50.5 11.5z
M353 287q25 0 38 13.5t13 33.5q0 19 -12 32t-37 13h-148v-92h146z" />
    <glyph glyph-name="uni0433" unicode="&#x433;" horiz-adv-x="410" 
d="M209 0h-152v497h336v-118h-184v-379z" />
    <glyph glyph-name="uni0434" unicode="&#x434;" horiz-adv-x="742" 
d="M144 -170h-131v288h72q39 27 54.5 72.5t15.5 161.5v145h462v-379h112v-288h-131v170h-454v-170zM297 319q0 -103 -8 -139.5t-27 -61.5h202v261h-167v-60z" />
    <glyph glyph-name="uni0435" unicode="&#x435;" horiz-adv-x="610" 
d="M578 235h-402q4 -63 42.5 -98t98.5 -35q82 0 112 63h131q-18 -83 -90.5 -133t-168.5 -50q-120 0 -195.5 77.5t-75.5 192.5q0 118 80 190.5t199 72.5q116 0 193 -69.5t77 -180.5q0 -21 -1 -30zM181 302h245q-4 47 -35.5 75t-83.5 28q-53 0 -85.5 -29t-40.5 -74z" />
    <glyph glyph-name="uni0436" unicode="&#x436;" horiz-adv-x="813" 
d="M798 0h-169l-151 242v-242h-142v242l-151 -242h-169l172 273l-167 224h165l150 -219v219h142v-219l150 219h165l-167 -224z" />
    <glyph glyph-name="uni0437" unicode="&#x437;" horiz-adv-x="580" 
d="M310 217h-78v73h53q59 0 83.5 9.5t24.5 39.5q0 29 -24 41.5t-79 12.5q-59 0 -82.5 -15t-28.5 -54h-121q-2 14 -2 28q0 77 62.5 120t180.5 43q111 0 174 -39t63 -113q0 -84 -68 -108v-5q36 -13 54.5 -43t18.5 -68q0 -70 -64 -113.5t-185 -43.5q-113 0 -182 42t-69 132
q0 20 4 37h123q5 -44 33 -65.5t91 -21.5q103 0 103 60q0 26 -19.5 38.5t-65.5 12.5z" />
    <glyph glyph-name="uni0438" unicode="&#x438;" horiz-adv-x="587" 
d="M530 0h-147v295h-4l-174 -295h-148v497h148v-307h4l174 307h147v-497z" />
    <glyph glyph-name="uni0439" unicode="&#x439;" horiz-adv-x="587" 
d="M530 0h-147v295h-4l-174 -295h-148v497h148v-307h4l174 307h147v-497zM299 564q-83 0 -133 47t-58 129h80q21 -119 111 -119q89 0 111 119h79q-8 -82 -58 -129t-132 -47z" />
    <glyph glyph-name="uni043A" unicode="&#x43a;" horiz-adv-x="584" 
d="M584 0h-186l-189 242v-242h-152v497h152v-219l188 219h181l-209 -224z" />
    <glyph glyph-name="uni043B" unicode="&#x43b;" horiz-adv-x="644" 
d="M111 -13q-83 0 -111 30l29 107q20 -15 50 -15q37 0 56 22q13 16 17 47.5t4 135.5v183h431v-497h-153v379h-136v-112q0 -104 -8.5 -147.5t-31.5 -75.5q-46 -57 -147 -57z" />
    <glyph glyph-name="uni043C" unicode="&#x43c;" horiz-adv-x="793" 
d="M736 0h-155v367h-4l-141 -367h-95l-142 367h-4v-367h-138v497h238l102 -306h4l109 306h226v-497z" />
    <glyph glyph-name="uni043D" unicode="&#x43d;" horiz-adv-x="587" 
d="M209 0h-152v497h152v-186h168v186h153v-497h-153v193h-168v-193z" />
    <glyph glyph-name="uni043E" unicode="&#x43e;" horiz-adv-x="628" 
d="M597 247q0 -118 -81 -191.5t-200 -73.5q-124 0 -205 78t-81 192q0 115 82 189t204 74q123 0 202 -76t79 -192zM445 250q0 67 -36 103t-97 36q-60 0 -94.5 -35.5t-34.5 -100.5t34.5 -105t97.5 -40q62 0 96 39t34 103z" />
    <glyph glyph-name="uni043F" unicode="&#x43f;" horiz-adv-x="587" 
d="M209 0h-152v497h473v-497h-153v379h-168v-379z" />
    <glyph glyph-name="uni0440" unicode="&#x440;" horiz-adv-x="591" 
d="M57 497h139v-46h4q19 29 58.5 46.5t83.5 17.5q94 0 155.5 -75.5t61.5 -199.5q0 -119 -58.5 -188.5t-154.5 -69.5q-85 0 -133 54h-4v-249h-152v710zM307 102q99 0 99 140q0 67 -24.5 109.5t-77.5 42.5q-70 0 -95 -77v-148q31 -67 98 -67z" />
    <glyph glyph-name="uni0441" unicode="&#x441;" horiz-adv-x="610" 
d="M313 515q103 0 176 -56.5t88 -158.5h-143q-10 39 -41 64t-80 25q-62 0 -96 -39.5t-34 -102.5q0 -65 35.5 -102t94.5 -37q50 0 82 25.5t44 66.5h141q-13 -99 -88.5 -158.5t-181.5 -59.5q-117 0 -198.5 70.5t-81.5 191.5t81 196t202 75z" />
    <glyph glyph-name="uni0442" unicode="&#x442;" horiz-adv-x="514" 
d="M333 0h-152v379h-164v118h480v-118h-164v-379z" />
    <glyph glyph-name="uni0443" unicode="&#x443;" horiz-adv-x="601" 
d="M212 -212h-169v127h116q20 0 32.5 15t28.5 52l7 17l-219 498h164l134 -316h4l129 316h154l-226 -538q-35 -83 -71 -127t-84 -44z" />
    <glyph glyph-name="uni0444" unicode="&#x444;" horiz-adv-x="817" 
d="M485 -213h-153v213h-94q-81 0 -143.5 66t-62.5 190q0 115 57.5 178t151.5 63h91v237h153v-237h91q94 0 151.5 -63t57.5 -178q0 -123 -62 -189.5t-144 -66.5h-94v-213zM332 377h-52q-95 0 -95 -125q0 -132 102 -132h45v257zM537 377h-52v-257h45q102 0 102 132
q0 125 -95 125z" />
    <glyph glyph-name="uni0445" unicode="&#x445;" horiz-adv-x="600" 
d="M594 0h-192l-118 155l-109 -155h-167l197 250l-199 247h187l104 -140l106 140h171l-194 -238z" />
    <glyph glyph-name="uni0446" unicode="&#x446;" horiz-adv-x="655" 
d="M511 0h-454v497h153v-379h168v379h152v-379h112v-288h-131v170z" />
    <glyph glyph-name="uni0447" unicode="&#x447;" horiz-adv-x="577" 
d="M49 497h152v-205q0 -37 21 -55t52 -18q69 0 94 77v201h152v-497h-152v153h-4q-55 -54 -136 -54q-179 0 -179 215v183z" />
    <glyph glyph-name="uni0448" unicode="&#x448;" horiz-adv-x="882" 
d="M675 497h149v-497h-767v497h149v-379h160v379h149v-379h160v379z" />
    <glyph glyph-name="uni0449" unicode="&#x449;" horiz-adv-x="949" 
d="M805 0h-748v497h149v-379h160v379h149v-379h160v379h149v-379h112v-288h-131v170z" />
    <glyph glyph-name="uni044A" unicode="&#x44a;" horiz-adv-x="722" 
d="M17 497h316v-144h153q86 0 143.5 -45t57.5 -125q0 -75 -50 -129t-145 -54h-311v379h-164v118zM331 118h129q38 0 57.5 13t19.5 49q0 31 -17 43.5t-55 12.5h-134v-118z" />
    <glyph glyph-name="uni044B" unicode="&#x44b;" horiz-adv-x="851" 
d="M57 497h152v-144h153q86 0 143.5 -45t57.5 -125q0 -75 -50 -129t-145 -54h-311v497zM207 118h129q38 0 57.5 13t19.5 49q0 31 -17 43.5t-55 12.5h-134v-118zM793 0h-152v497h152v-497z" />
    <glyph glyph-name="uni044C" unicode="&#x44c;" horiz-adv-x="598" 
d="M57 497h152v-144h153q86 0 143.5 -45t57.5 -125q0 -75 -50 -129t-145 -54h-311v497zM207 118h129q38 0 57.5 13t19.5 49q0 31 -17 43.5t-55 12.5h-134v-118z" />
    <glyph glyph-name="uni044D" unicode="&#x44d;" horiz-adv-x="610" 
d="M427 203h-199v90h198q-11 46 -45 73t-83 27q-84 0 -117 -78h-145q19 94 89.5 147t170.5 53q122 0 203 -75t81 -196t-81.5 -191.5t-198.5 -70.5q-103 0 -176.5 55.5t-90.5 145.5h144q34 -79 122 -79q49 0 83.5 25.5t44.5 73.5z" />
    <glyph glyph-name="uni044E" unicode="&#x44e;" horiz-adv-x="883" 
d="M211 0h-152v497h152v-189h80q19 93 96.5 150t183.5 57q122 0 201.5 -75.5t79.5 -192.5q0 -118 -80.5 -191.5t-201.5 -73.5q-108 0 -184 60.5t-96 155.5h-79v-198zM700 250q0 67 -36 103t-97 36q-60 0 -94.5 -35.5t-34.5 -100.5t34.5 -105t97.5 -40q62 0 96 39t34 103z
" />
    <glyph glyph-name="uni044F" unicode="&#x44f;" horiz-adv-x="602" 
d="M194 0h-155q17 21 21 73q5 58 21 92q23 48 70 64v4q-95 31 -95 126q0 138 208 138h281v-497h-150v185h-102q-41 0 -57 -24.5t-21 -65.5q-1 -9 -3 -27.5t-3 -28t-5 -21t-10 -18.5zM395 379h-124q-64 0 -64 -47t58 -47h130v94z" />
    <glyph glyph-name="uni0450" unicode="&#x450;" horiz-adv-x="610" 
d="M578 235h-402q4 -63 42.5 -98t98.5 -35q82 0 112 63h131q-18 -83 -90.5 -133t-168.5 -50q-120 0 -195.5 77.5t-75.5 192.5q0 118 80 190.5t199 72.5q116 0 193 -69.5t77 -180.5q0 -21 -1 -30zM181 302h245q-4 47 -35.5 75t-83.5 28q-53 0 -85.5 -29t-40.5 -74zM380 564
h-85l-173 176h159z" />
    <glyph glyph-name="uni0451" unicode="&#x451;" horiz-adv-x="610" 
d="M578 235h-402q4 -63 42.5 -98t98.5 -35q82 0 112 63h131q-18 -83 -90.5 -133t-168.5 -50q-120 0 -195.5 77.5t-75.5 192.5q0 118 80 190.5t199 72.5q116 0 193 -69.5t77 -180.5q0 -21 -1 -30zM181 302h245q-4 47 -35.5 75t-83.5 28q-53 0 -85.5 -29t-40.5 -74zM263 591
h-146v136h146v-136zM497 591h-148v136h148v-136z" />
    <glyph glyph-name="uni0452" unicode="&#x452;" horiz-adv-x="582" 
d="M293 -234v125q19 -3 33 -3q50 0 50 48v386q0 37 -21 55t-52 18q-69 0 -94 -77v-318h-152v573h-49v79h49v82h152v-82h105v-79h-105v-108h7q51 50 134 50q178 0 178 -215v-364q0 -87 -41.5 -132.5t-118.5 -45.5q-37 0 -75 8z" />
    <glyph glyph-name="uni0453" unicode="&#x453;" horiz-adv-x="410" 
d="M209 0h-152v497h336v-118h-184v-379zM212 564h-86l100 176h158z" />
    <glyph glyph-name="uni0454" unicode="&#x454;" horiz-adv-x="610" 
d="M312 393q-46 0 -79.5 -24.5t-46.5 -67.5h196v-109h-197q12 -43 46 -65.5t80 -22.5q87 0 122 79h144q-17 -90 -90.5 -145.5t-176.5 -55.5q-117 0 -198.5 70.5t-81.5 191.5t81 196t203 75q100 0 170.5 -53t89.5 -147h-145q-33 78 -117 78z" />
    <glyph glyph-name="uni0455" unicode="&#x455;" horiz-adv-x="536" 
d="M491 346h-121q-14 56 -103 56q-85 0 -85 -44q0 -27 45 -37q4 -1 85.5 -9.5t118.5 -27.5q72 -36 72 -126q0 -48 -19 -83.5t-52.5 -55t-73 -28.5t-86.5 -9q-102 0 -170 43.5t-74 138.5h128q11 -71 113 -71q91 0 91 50q0 34 -56 46q-6 1 -81 10.5t-110 24.5q-74 33 -74 119
q0 61 36 101.5t84.5 55.5t106.5 15q90 0 154.5 -41t70.5 -128z" />
    <glyph glyph-name="uni0456" unicode="&#x456;" horiz-adv-x="266" 
d="M209 0h-152v497h152v-497zM210 577h-154v157h154v-157z" />
    <glyph glyph-name="uni0457" unicode="&#x457;" horiz-adv-x="380" 
d="M265 0h-152v497h152v-497zM146 591h-146v136h146v-136zM380 591h-148v136h148v-136z" />
    <glyph glyph-name="uni0458" unicode="&#x458;" horiz-adv-x="277" 
d="M-15 -208v124q18 -3 31 -3q51 0 51 48v536h153v-536q0 -87 -41.5 -132.5t-119.5 -45.5q-39 0 -74 9zM220 577h-153v157h153v-157z" />
    <glyph glyph-name="uni0459" unicode="&#x459;" horiz-adv-x="992" 
d="M130 -13q-83 0 -111 30l29 107q20 -15 50 -15q37 0 56 22q13 16 17 47.5t4 135.5v183h429v-144h152q86 0 143.5 -45t57.5 -125q0 -75 -50 -129t-145 -54h-309v379h-136v-112q0 -104 -8.5 -147.5t-31.5 -75.5q-46 -57 -147 -57zM735 236h-131v-118h126q38 0 57.5 13
t19.5 49q0 31 -17 43.5t-55 12.5z" />
    <glyph glyph-name="uni045A" unicode="&#x45a;" horiz-adv-x="914" 
d="M377 497h149v-144h152q86 0 143.5 -45t57.5 -125q0 -75 -50 -129t-145 -54h-307v236h-168v-236h-152v497h152v-144h168v144zM523 118h129q38 0 57.5 13t19.5 49q0 31 -17 43.5t-55 12.5h-134v-118z" />
    <glyph glyph-name="uni045B" unicode="&#x45b;" horiz-adv-x="597" 
d="M544 0h-153v323q0 70 -72 70q-35 0 -65.5 -17t-44.5 -44v-332h-152v573h-49v79h49v82h151v-82h106v-79h-106v-108h9q58 50 141 50q54 0 93 -19.5t58 -51t27 -63t8 -64.5v-317z" />
    <glyph glyph-name="uni045C" unicode="&#x45c;" horiz-adv-x="584" 
d="M584 0h-186l-189 242v-242h-152v497h152v-219l188 219h181l-209 -224zM284 564h-86l100 176h158z" />
    <glyph glyph-name="uni045D" unicode="&#x45d;" horiz-adv-x="587" 
d="M530 0h-147v295h-4l-174 -295h-148v497h148v-307h4l174 307h147v-497zM395 564h-85l-173 176h159z" />
    <glyph glyph-name="uni045E" unicode="&#x45e;" horiz-adv-x="601" 
d="M212 -212h-169v127h116q20 0 32.5 15t28.5 52l7 17l-219 498h164l134 -316h4l129 316h154l-226 -538q-35 -83 -71 -127t-84 -44zM308 564q-83 0 -133 47t-58 129h80q21 -119 111 -119q89 0 111 119h79q-8 -82 -58 -129t-132 -47z" />
    <glyph glyph-name="uni045F" unicode="&#x45f;" horiz-adv-x="587" 
d="M231 0h-174v497h153v-379h168v379h152v-497h-168v-170h-131v170z" />
    <glyph glyph-name="uni0490" unicode="&#x490;" horiz-adv-x="616" 
d="M66 714h385v133h153v-288h-364v-559h-174v714z" />
    <glyph glyph-name="uni0491" unicode="&#x491;" horiz-adv-x="410" 
d="M209 0h-152v497h205v170h131v-288h-184v-379z" />
    <glyph glyph-name="uni058F" unicode="&#x58f;" horiz-adv-x="611" 
d="M589 129h-54v-129h-156v129h-165v79h165v47h-165v79h165v80q0 86 -22 125.5t-93 39.5q-37 0 -60.5 -10.5t-34 -34.5t-13.5 -49t-3 -68v-59h-133v83q0 147 62.5 219t192.5 72q136 0 198 -76.5t62 -225.5v-96h54v-79h-54v-47h54v-79z" />
    <glyph glyph-name="Wgrave" unicode="&#x1e80;" horiz-adv-x="1079" 
d="M870 0h-196l-138 483h-4l-145 -483h-198l-175 714h182l113 -489h4l132 489h184l135 -489h4l129 489h168zM614 781h-85l-173 176h159z" />
    <glyph glyph-name="wgrave" unicode="&#x1e81;" horiz-adv-x="845" 
d="M679 0h-148l-97 331h-4l-94 -331h-162l-166 497h164l91 -322h4l88 322h153l90 -322h4l88 322h147zM498 564h-85l-173 176h159z" />
    <glyph glyph-name="Wacute" unicode="&#x1e82;" horiz-adv-x="1079" 
d="M870 0h-196l-138 483h-4l-145 -483h-198l-175 714h182l113 -489h4l132 489h184l135 -489h4l129 489h168zM545 781h-86l100 176h158z" />
    <glyph glyph-name="wacute" unicode="&#x1e83;" horiz-adv-x="845" 
d="M679 0h-148l-97 331h-4l-94 -331h-162l-166 497h164l91 -322h4l88 322h153l90 -322h4l88 322h147zM443 564h-86l100 176h158z" />
    <glyph glyph-name="Wdieresis" unicode="&#x1e84;" horiz-adv-x="1079" 
d="M870 0h-196l-138 483h-4l-145 -483h-198l-175 714h182l113 -489h4l132 489h184l135 -489h4l129 489h168zM495 808h-146v136h146v-136zM729 808h-148v136h148v-136z" />
    <glyph glyph-name="wdieresis" unicode="&#x1e85;" horiz-adv-x="845" 
d="M679 0h-148l-97 331h-4l-94 -331h-162l-166 497h164l91 -322h4l88 322h153l90 -322h4l88 322h147zM379 591h-146v136h146v-136zM613 591h-148v136h148v-136z" />
    <glyph glyph-name="Ygrave" unicode="&#x1ef2;" horiz-adv-x="698" 
d="M436 0h-173v295l-263 419h200l167 -273l166 273h165l-262 -419v-295zM436 781h-85l-173 176h159z" />
    <glyph glyph-name="ygrave" unicode="&#x1ef3;" horiz-adv-x="601" 
d="M212 -212h-169v127h116q20 0 32.5 15t28.5 52l7 17l-219 498h164l134 -316h4l129 316h154l-226 -538q-35 -83 -71 -127t-84 -44zM384 564h-85l-173 176h159z" />
    <glyph glyph-name="endash" unicode="&#x2013;" horiz-adv-x="591" 
d="M561 241h-532v98h532v-98z" />
    <glyph glyph-name="emdash" unicode="&#x2014;" horiz-adv-x="881" 
d="M871 241h-861v98h861v-98z" />
    <glyph glyph-name="quoteleft" unicode="&#x2018;" horiz-adv-x="253" 
d="M114 766h79l-33 -63q-9 -18 -9 -35v-12h53v-151h-156v117q0 16 9 34z" />
    <glyph glyph-name="quoteright" unicode="&#x2019;" horiz-adv-x="253" 
d="M138 474h-78l31 62q10 19 10 35v12h-53v151h156v-117q0 -16 -10 -34z" />
    <glyph glyph-name="quotesinglbase" unicode="&#x201a;" horiz-adv-x="253" 
d="M138 -111h-78l31 64q10 19 10 34v13h-53v151h156v-117q0 -12 -10 -34z" />
    <glyph glyph-name="quotedblleft" unicode="&#x201c;" horiz-adv-x="472" 
d="M114 766h79l-33 -63q-9 -18 -9 -35v-12h53v-151h-156v117q0 16 9 34zM333 766h79l-33 -63q-9 -18 -9 -35v-12h53v-151h-156v117q0 16 9 34z" />
    <glyph glyph-name="quotedblright" unicode="&#x201d;" horiz-adv-x="472" 
d="M138 474h-78l31 62q10 19 10 35v12h-53v151h156v-117q0 -16 -10 -34zM357 474h-78l31 62q10 19 10 35v12h-53v151h156v-117q0 -16 -10 -34z" />
    <glyph glyph-name="quotedblbase" unicode="&#x201e;" horiz-adv-x="472" 
d="M138 -111h-78l31 64q10 19 10 34v13h-53v151h156v-117q0 -12 -10 -34zM357 -111h-78l31 64q10 19 10 34v13h-53v151h156v-117q0 -12 -10 -34z" />
    <glyph glyph-name="dagger" unicode="&#x2020;" horiz-adv-x="412" 
d="M206 710q29 0 29 -39q0 -11 -4.5 -39.5t-4.5 -46.5v-43h40q14 0 43 5t41 5q38 0 38 -30q0 -29 -38 -29q-12 0 -42 5t-44 5h-38v-33q0 -30 8.5 -41.5t35.5 -19.5q-5 -179 -18 -268.5t-46 -151.5q-33 63 -46.5 153t-18.5 267q27 8 36 19.5t9 41.5v33h-39q-13 0 -43.5 -5
t-42.5 -5q-38 0 -38 29q0 30 38 30q12 0 42 -5t43 -5h40v43q0 18 -5 46t-5 40q0 39 30 39z" />
    <glyph glyph-name="daggerdbl" unicode="&#x2021;" horiz-adv-x="413" 
d="M138 347q24 7 36 42.5t12 79.5v33h-40q-12 0 -40 -5t-42 -5q-41 0 -41 31q0 30 41 30q14 0 41.5 -5t39.5 -5h41v42q0 13 -5.5 42t-5.5 43q0 40 31 40q30 0 30 -40q0 -14 -5 -43t-5 -42v-42h42q12 0 38.5 5t40.5 5q42 0 42 -30q0 -31 -42 -31q-14 0 -41 5t-39 5h-41v-33
q0 -44 11.5 -79.5t36.5 -42.5q-25 -7 -36.5 -42.5t-11.5 -80.5v-33h41q12 0 39 5t40 5q43 0 43 -31t-42 -31q-14 0 -40.5 5t-38.5 5h-42v-43q0 -14 5 -42.5t5 -40.5q0 -39 -30 -39q-31 0 -31 39q0 12 5.5 40.5t5.5 42.5v43h-41q-12 0 -39.5 -5t-40.5 -5q-42 0 -42 31t42 31
q13 0 41 -5t40 -5h40v33q0 44 -12 80t-36 43z" />
    <glyph glyph-name="bullet" unicode="&#x2022;" horiz-adv-x="400" 
d="M198 204q-56 0 -94 39t-38 99t38 98t94 38q57 0 95.5 -38t38.5 -98t-39 -99t-95 -39z" />
    <glyph glyph-name="ellipsis" unicode="&#x2026;" horiz-adv-x="1382" 
d="M222 0h-156v171h156v-171zM768 0h-156v171h156v-171zM1315 0h-156v171h156v-171z" />
    <glyph glyph-name="perthousand" unicode="&#x2030;" horiz-adv-x="1044" 
d="M153 358q-59 0 -97 50.5t-38 139.5q0 93 41 139.5t98 46.5q59 0 96.5 -49t37.5 -135q0 -88 -39 -140t-99 -52zM154 650q-37 0 -37 -104t41 -104q20 0 27 21.5t7 68.5q0 118 -38 118zM158 -20h-116l485 754h114zM533 -18q-59 0 -97 50.5t-38 139.5q0 93 41 139.5t98 46.5
q59 0 96.5 -49t37.5 -135q0 -88 -39 -140t-99 -52zM534 274q-37 0 -37 -104t41 -104q20 0 27 21.5t7 68.5q0 118 -38 118zM852 -18q-59 0 -97 50.5t-38 139.5q0 93 41 139.5t98 46.5q59 0 96.5 -49t37.5 -135q0 -88 -39 -140t-99 -52zM853 274q-37 0 -37 -104t41 -104
q20 0 27 21.5t7 68.5q0 118 -38 118z" />
    <glyph glyph-name="guilsinglleft" unicode="&#x2039;" horiz-adv-x="279" 
d="M249 396l-132 -93l132 -93v-127l-219 168v105l219 168v-128z" />
    <glyph glyph-name="guilsinglright" unicode="&#x203a;" horiz-adv-x="279" 
d="M162 303l-132 93v128l219 -168v-105l-219 -168v127z" />
    <glyph glyph-name="fraction" unicode="&#x2044;" horiz-adv-x="233" 
d="M-67 -20h-116l485 754h114z" />
    <glyph glyph-name="zerosuperior" unicode="&#x2070;" horiz-adv-x="353" 
d="M175 358q-59 0 -97 50.5t-38 139.5q0 93 41 139.5t98 46.5q59 0 96.5 -49t37.5 -135q0 -88 -39 -140t-99 -52zM176 650q-37 0 -37 -104t41 -104q20 0 27 21.5t7 68.5q0 118 -38 118z" />
    <glyph glyph-name="foursuperior" unicode="&#x2074;" horiz-adv-x="386" 
d="M297 367h-97v73h-167v71l149 213h115v-203h53v-81h-53v-73zM202 521v96h-4l-66 -96h70z" />
    <glyph glyph-name="fivesuperior" unicode="&#x2075;" horiz-adv-x="368" 
d="M305 636h-158l-5 -52q34 13 63 13q55 0 90.5 -30t35.5 -84q0 -60 -43 -92.5t-105 -32.5q-103 0 -151 75l69 46q20 -22 37 -30.5t44 -8.5q51 0 51 37q0 43 -52 43q-43 0 -57 -16l-70 41l13 179h241z" />
    <glyph glyph-name="sixsuperior" unicode="&#x2076;" horiz-adv-x="383" 
d="M337 633h-89q-9 23 -48 23q-29 0 -46.5 -21.5t-21.5 -53.5h4q34 33 80 33q53 0 90.5 -36.5t37.5 -93.5q0 -58 -40.5 -92t-102.5 -34q-75 0 -120.5 50t-45.5 129q0 47 15.5 90t55.5 75t97 32q51 0 88.5 -24.5t45.5 -76.5zM194 434q23 0 37 13t14 37q0 25 -15 39.5
t-38 14.5t-39.5 -13.5t-16.5 -34.5q0 -22 16 -39t42 -17z" />
    <glyph glyph-name="sevensuperior" unicode="&#x2077;" horiz-adv-x="375" 
d="M214 367h-112q2 60 39 133.5t86 135.5h-188v88h299v-81q-96 -103 -124 -276z" />
    <glyph glyph-name="eightsuperior" unicode="&#x2078;" horiz-adv-x="389" 
d="M332 637q0 -43 -47 -69v-4q28 -7 46.5 -30t18.5 -58q0 -60 -50.5 -89t-119.5 -29q-61 0 -101 24.5t-40 76.5q0 62 56 83v4q-50 26 -50 76q0 55 44.5 83.5t104.5 28.5q56 0 97 -25.5t41 -71.5zM161 516q-30 -11 -30 -38q0 -21 16.5 -32.5t42.5 -11.5q24 0 42.5 9t18.5 22
q0 28 -90 51zM215 592q28 12 28 34q0 34 -56 34q-43 0 -43 -26q0 -34 71 -42z" />
    <glyph glyph-name="ninesuperior" unicode="&#x2079;" horiz-adv-x="383" 
d="M48 459h88q9 -23 46 -23q30 0 47.5 20.5t22.5 54.5h-4q-32 -33 -81 -33q-53 0 -90.5 36.5t-37.5 93.5q0 58 40.5 92t102.5 34q76 0 121.5 -50t45.5 -129q0 -48 -15.5 -90.5t-55.5 -74.5t-98 -32q-52 0 -89 25.5t-43 75.5zM247 602q0 22 -15.5 38.5t-42.5 16.5
q-22 0 -36.5 -13t-14.5 -37q0 -25 15.5 -39t38.5 -14t39 12.5t16 35.5z" />
    <glyph glyph-name="zeroinferior" unicode="&#x2080;" horiz-adv-x="353" 
d="M175 -18q-59 0 -97 50.5t-38 139.5q0 93 41 139.5t98 46.5q59 0 96.5 -49t37.5 -135q0 -88 -39 -140t-99 -52zM176 274q-37 0 -37 -104t41 -104q20 0 27 21.5t7 68.5q0 118 -38 118z" />
    <glyph glyph-name="oneinferior" unicode="&#x2081;" horiz-adv-x="247" 
d="M200 -9h-99v232h-63v77q52 0 80 48h82v-357z" />
    <glyph glyph-name="twoinferior" unicode="&#x2082;" horiz-adv-x="378" 
d="M335 -9h-298v72q67 40 130 87q74 55 74 88q0 32 -44 32q-25 0 -39.5 -14t-14.5 -40q0 -10 2 -22h-89q-5 20 -5 41q0 57 42.5 90t102.5 33q58 0 101 -31t43 -86q0 -50 -36.5 -86t-105.5 -72v-4h137v-88z" />
    <glyph glyph-name="threeinferior" unicode="&#x2083;" horiz-adv-x="370" 
d="M197 143h-56v62h36q55 0 55 35q0 34 -48 34q-28 0 -40 -11t-13 -40h-81q-1 6 -1 20q0 53 38 84t100 31q60 0 102 -28.5t42 -78.5q0 -53 -47 -76v-4q23 -10 35.5 -32.5t12.5 -46.5q0 -46 -43 -78t-104 -32q-60 0 -106.5 32.5t-46.5 90.5q0 18 2 26h84q0 -23 15 -44t51 -21
q50 0 50 38q0 16 -9.5 27.5t-27.5 11.5z" />
    <glyph glyph-name="fourinferior" unicode="&#x2084;" horiz-adv-x="386" 
d="M297 -9h-97v73h-167v71l149 213h115v-203h53v-81h-53v-73zM202 145v96h-4l-66 -96h70z" />
    <glyph glyph-name="fiveinferior" unicode="&#x2085;" horiz-adv-x="368" 
d="M305 260h-158l-5 -52q34 13 63 13q55 0 90.5 -30t35.5 -84q0 -60 -43 -92.5t-105 -32.5q-103 0 -151 75l69 46q20 -22 37 -30.5t44 -8.5q51 0 51 37q0 43 -52 43q-43 0 -57 -16l-70 41l13 179h241z" />
    <glyph glyph-name="sixinferior" unicode="&#x2086;" horiz-adv-x="383" 
d="M337 257h-89q-9 23 -48 23q-29 0 -46.5 -21.5t-21.5 -53.5h4q34 33 80 33q53 0 90.5 -36.5t37.5 -93.5q0 -58 -40.5 -92t-102.5 -34q-75 0 -120.5 50t-45.5 129q0 47 15.5 90t55.5 75t97 32q51 0 88.5 -24.5t45.5 -76.5zM194 58q23 0 37 13t14 37q0 25 -15 39.5t-38 14.5
t-39.5 -13.5t-16.5 -34.5q0 -22 16 -39t42 -17z" />
    <glyph glyph-name="seveninferior" unicode="&#x2087;" horiz-adv-x="375" 
d="M214 -9h-112q2 60 39 133.5t86 135.5h-188v88h299v-81q-96 -103 -124 -276z" />
    <glyph glyph-name="eightinferior" unicode="&#x2088;" horiz-adv-x="389" 
d="M332 261q0 -43 -47 -69v-4q28 -7 46.5 -30t18.5 -58q0 -60 -50.5 -89t-119.5 -29q-61 0 -101 24.5t-40 76.5q0 62 56 83v4q-50 26 -50 76q0 55 44.5 83.5t104.5 28.5q56 0 97 -25.5t41 -71.5zM161 140q-30 -11 -30 -38q0 -21 16.5 -32.5t42.5 -11.5q24 0 42.5 9t18.5 22
q0 28 -90 51zM215 216q28 12 28 34q0 34 -56 34q-43 0 -43 -26q0 -34 71 -42z" />
    <glyph glyph-name="nineinferior" unicode="&#x2089;" horiz-adv-x="383" 
d="M48 83h88q9 -23 46 -23q30 0 47.5 20.5t22.5 54.5h-4q-32 -33 -81 -33q-53 0 -90.5 36.5t-37.5 93.5q0 58 40.5 92t102.5 34q76 0 121.5 -50t45.5 -129q0 -48 -15.5 -90.5t-55.5 -74.5t-98 -32q-52 0 -89 25.5t-43 75.5zM247 226q0 22 -15.5 38.5t-42.5 16.5
q-22 0 -36.5 -13t-14.5 -37q0 -25 15.5 -39t38.5 -14t39 12.5t16 35.5z" />
    <glyph glyph-name="uni20A9" unicode="&#x20a9;" horiz-adv-x="813" 
d="M643 0h-144l-68 321h-73l-70 -321h-145l-58 321h-71v98h53l-53 295h134l50 -295h74l59 295h135l59 -295h80l58 295h123l-59 -295h59v-98h-79zM565 220h3l18 101h-41zM231 219h3l19 102h-39zM394 498l-13 -79h30l-14 79h-3z" />
    <glyph glyph-name="uni20AA" unicode="&#x20aa;" horiz-adv-x="597" 
d="M412 236h-98v269q0 61 -64 61h-94v-566h-99v714h204q86 0 118.5 -45.5t32.5 -162.5v-270zM185 478h98v-269q0 -61 64 -61h94v566h99v-714h-204q-86 0 -118.5 45.5t-32.5 162.5v270z" />
    <glyph glyph-name="dong" unicode="&#x20ab;" horiz-adv-x="513" 
d="M444 171h-115v33h-3q-37 -47 -116 -47q-78 0 -127.5 56.5t-49.5 146.5q0 84 45.5 138t128.5 54q69 0 108 -40h3v84h-243v64h243v54h126v-54h48v-64h-48v-425zM453 0h-406v102h406v-102zM238 464q-80 0 -80 -105q0 -49 20 -80.5t63 -31.5q58 0 77 57v109q-26 51 -80 51z
" />
    <glyph glyph-name="Euro" unicode="&#x20ac;" horiz-adv-x="728" 
d="M460 -18q-136 0 -234.5 80.5t-125.5 207.5h-73l16 64h48q-1 9 -1 30q0 28 2 41h-64l16 66h60q33 117 130 190t230 73q111 0 201 -53l-74 -147q-53 45 -125 45q-59 0 -106.5 -28t-71.5 -76l2 -4h270l-34 -66h-260q-4 -16 -4 -43q0 -19 2 -28h226l-33 -64h-177l-2 -3
q21 -60 70.5 -95t113.5 -35q86 0 148 62l108 -115q-110 -102 -258 -102z" />
    <glyph glyph-name="uni20AD" unicode="&#x20ad;" horiz-adv-x="694" 
d="M666 326h-253l227 -326h-194l-229 326h-3v-326h-148v326h-66v98h66v290h148v-289l253 289h200l-279 -290h278v-98z" />
    <glyph glyph-name="uni20AE" unicode="&#x20ae;" horiz-adv-x="558" 
d="M483 412l-125 -31v-79l125 31v-81l-125 -31v-221h-156v182l-125 -31v81l125 31v79l-125 -31v81l125 31v136h-188v155h532v-155h-188v-97l125 31v-81z" />
    <glyph glyph-name="uni20B1" unicode="&#x20b1;" horiz-adv-x="741" 
d="M720 367h-64q-16 -89 -75.5 -141t-137.5 -52h-171v-174h-166v367h-88v58h88v46h-88v58h88v185h343q77 0 128 -52.5t72 -132.5h71v-58h-61q3 -21 3 -46h58v-58zM498 425v46h-229v-46h229zM420 323q45 0 66 44h-217v-44h151zM415 566h-146v-37h210q-23 37 -64 37z" />
    <glyph glyph-name="uni20B2" unicode="&#x20b2;" horiz-adv-x="835" 
d="M177 -89h-115l107 148q-63 52 -97 131.5t-34 170.5q0 165 105.5 269t269.5 104q117 0 205 -55l54 75h115l-280 -386h268v-368h-137v96h-4q-33 -50 -96 -82t-148 -32q-77 0 -142 28zM212 355q0 -103 52 -165l260 360q-47 29 -109 29q-90 0 -146.5 -60t-56.5 -164zM575 241
h-160l-75 -105q31 -11 69 -11q65 0 110 32.5t56 83.5z" />
    <glyph glyph-name="uni20B8" unicode="&#x20b8;" horiz-adv-x="514" 
d="M333 0h-152v379h-164v118h480v-118h-164v-379zM497 596h-480v118h480v-118z" />
    <glyph glyph-name="uni20B9" unicode="&#x20b9;" horiz-adv-x="757" 
d="M727 449h-141q-14 -51 -45 -87t-73 -49v-4l149 -309h-180l-146 304v62h51q61 0 75 83h-380v98h377q-18 69 -76 69h-301v98h690v-98h-159q18 -30 24 -69h135v-98z" />
    <glyph glyph-name="uni20BA" unicode="&#x20ba;" horiz-adv-x="654" 
d="M248 149h84q128 0 174 103l135 -84q-47 -76 -124.5 -122t-177.5 -46h-265v239l-66 -16v81l66 16v79l-66 -16v81l66 16v234h174v-191l166 42v-81l-166 -42v-79l166 42v-81l-166 -42v-133z" />
    <glyph glyph-name="uni20BC" unicode="&#x20bc;" horiz-adv-x="738" 
d="M447 0h-146v488q-91 -30 -91 -154v-334h-148v350q0 122 57.5 176t181.5 63v125h146v-125q117 -8 173.5 -58t56.5 -170v-361h-141v337q0 126 -89 153v-490z" />
    <glyph glyph-name="uni20BD" unicode="&#x20bd;" horiz-adv-x="757" 
d="M314 0h-177v77h-116v98h116v79h-116v98h116v362h360q109 0 168 -73t59 -165q0 -98 -68.5 -160t-165.5 -62h-176v-79h349v-98h-349v-77zM460 566h-149v-214h155q40 0 62 27t22 77q0 52 -24 81t-66 29z" />
    <glyph glyph-name="uni20BE" unicode="&#x20be;" horiz-adv-x="706" 
d="M365 382h-76v189q-65 -33 -65 -128q0 -166 177 -306v-137h-333v155h183q-106 57 -151 128.5t-45 171.5q0 238 234 273v79h76v-73h32v73h76v-82q114 -21 159 -93t45 -189v-61h-143v53q0 109 -61 139v-192h-76v208h-32v-208z" />
    <glyph glyph-name="litre" unicode="&#x2113;" horiz-adv-x="452" 
d="M11 233q27 0 52 3v5q0 129 25.5 235.5t83 177.5t139.5 71q122 0 122 -165q0 -130 -68 -226t-190 -138q5 -74 30.5 -111t75.5 -37q15 0 31 3l28 -66q-56 -19 -103 -19q-85 0 -124.5 53t-47.5 153q-34 -4 -54 -4v65zM295 635q-30 0 -54 -37.5t-37.5 -96.5t-21 -118.5
t-8.5 -115.5q77 39 118 114t41 174q0 80 -38 80z" />
    <glyph glyph-name="trademark" unicode="&#x2122;" horiz-adv-x="848" 
d="M797 321h-91v204h-4l-69 -201h-99l-73 201h-4v-204h-90v393h132l81 -254h5l85 254h127v-393zM217 321h-98v318h-95v75h284v-75h-91v-318z" />
    <glyph glyph-name="uni2126" unicode="&#x2126;" horiz-adv-x="730" 
d="M662 0h-244v137q45 32 63 88t18 157q0 51 -5 85t-19 64t-42.5 44.5t-73.5 14.5q-76 0 -101.5 -45.5t-25.5 -154.5q0 -197 81 -253v-137h-245v155h129q-76 62 -109 122t-33 167q0 65 13.5 114t46.5 90.5t96 63.5t155 22t155 -22t95.5 -63.5t46 -90.5t13.5 -115
q0 -103 -32.5 -164t-109.5 -124h128v-155z" />
    <glyph glyph-name="onethird" unicode="&#x2153;" horiz-adv-x="750" 
d="M208 367h-99v232h-63v77q52 0 80 48h82v-357zM154 -20h-116l485 754h114zM578 143h-56v62h36q55 0 55 35q0 34 -48 34q-28 0 -40 -11t-13 -40h-81q-1 6 -1 20q0 53 38 84t100 31q60 0 102 -28.5t42 -78.5q0 -53 -47 -76v-4q23 -10 35.5 -32.5t12.5 -46.5q0 -46 -43 -78
t-104 -32q-60 0 -106.5 32.5t-46.5 90.5q0 18 2 26h84q0 -23 15 -44t51 -21q50 0 50 38q0 16 -9.5 27.5t-27.5 11.5z" />
    <glyph glyph-name="twothirds" unicode="&#x2154;" horiz-adv-x="818" 
d="M334 367h-298v72q67 40 130 87q74 55 74 88q0 32 -44 32q-25 0 -39.5 -14t-14.5 -40q0 -10 2 -22h-89q-5 20 -5 41q0 57 42.5 90t102.5 33q59 0 101.5 -31t42.5 -86q0 -50 -36.5 -86t-105.5 -72v-4h137v-88zM231 -20h-116l485 754h114zM646 143h-56v62h36q55 0 55 35
q0 34 -48 34q-28 0 -40 -11t-13 -40h-81q-1 6 -1 20q0 53 38 84t100 31q60 0 102 -28.5t42 -78.5q0 -53 -47 -76v-4q23 -10 35.5 -32.5t12.5 -46.5q0 -46 -43 -78t-104 -32q-60 0 -106.5 32.5t-46.5 90.5q0 18 2 26h84q0 -23 15 -44t51 -21q50 0 50 38q0 16 -9.5 27.5
t-27.5 11.5z" />
    <glyph glyph-name="oneeighth" unicode="&#x215b;" horiz-adv-x="759" 
d="M208 367h-99v232h-63v77q52 0 80 48h82v-357zM154 -20h-116l485 754h114zM704 261q0 -43 -47 -69v-4q28 -7 46.5 -30t18.5 -58q0 -60 -50.5 -89t-119.5 -29q-61 0 -101 24.5t-40 76.5q0 62 56 83v4q-50 26 -50 76q0 55 44.5 83.5t104.5 28.5q56 0 97 -25.5t41 -71.5z
M533 140q-30 -11 -30 -38q0 -21 16.5 -32.5t42.5 -11.5q24 0 42.5 9t18.5 22q0 28 -90 51zM587 216q28 12 28 34q0 34 -56 34q-43 0 -43 -26q0 -34 71 -42z" />
    <glyph glyph-name="threeeighths" unicode="&#x215c;" horiz-adv-x="815" 
d="M201 519h-56v62h36q55 0 55 35q0 34 -48 34q-28 0 -40 -11t-13 -40h-81q-1 6 -1 20q0 53 38 84t100 31q60 0 102 -28.5t42 -78.5q0 -53 -47 -76v-4q23 -10 35.5 -32.5t12.5 -46.5q0 -46 -43 -78t-104 -32q-60 0 -106.5 32.5t-46.5 90.5q0 18 2 26h84q0 -23 15 -44t51 -21
q50 0 50 38q0 16 -9.5 27.5t-27.5 11.5zM219 -20h-116l485 754h114zM760 261q0 -43 -47 -69v-4q28 -7 46.5 -30t18.5 -58q0 -60 -50.5 -89t-119.5 -29q-61 0 -101 24.5t-40 76.5q0 62 56 83v4q-50 26 -50 76q0 55 44.5 83.5t104.5 28.5q56 0 97 -25.5t41 -71.5zM589 140
q-30 -11 -30 -38q0 -21 16.5 -32.5t42.5 -11.5q24 0 42.5 9t18.5 22q0 28 -90 51zM643 216q28 12 28 34q0 34 -56 34q-43 0 -43 -26q0 -34 71 -42z" />
    <glyph glyph-name="fiveeighths" unicode="&#x215d;" horiz-adv-x="804" 
d="M309 636h-158l-5 -52q34 13 63 13q55 0 90.5 -30t35.5 -84q0 -60 -43 -92.5t-105 -32.5q-103 0 -151 75l69 46q20 -22 37 -30.5t44 -8.5q51 0 51 37q0 43 -52 43q-43 0 -57 -16l-70 41l13 179h241zM208 -20h-116l485 754h114zM749 261q0 -43 -47 -69v-4q28 -7 46.5 -30
t18.5 -58q0 -60 -50.5 -89t-119.5 -29q-61 0 -101 24.5t-40 76.5q0 62 56 83v4q-50 26 -50 76q0 55 44.5 83.5t104.5 28.5q56 0 97 -25.5t41 -71.5zM578 140q-30 -11 -30 -38q0 -21 16.5 -32.5t42.5 -11.5q24 0 42.5 9t18.5 22q0 28 -90 51zM632 216q28 12 28 34
q0 34 -56 34q-43 0 -43 -26q0 -34 71 -42z" />
    <glyph glyph-name="seveneighths" unicode="&#x215e;" horiz-adv-x="787" 
d="M211 367h-112q2 60 39 133.5t86 135.5h-188v88h299v-81q-96 -103 -124 -276zM182 -20h-116l485 754h114zM732 261q0 -43 -47 -69v-4q28 -7 46.5 -30t18.5 -58q0 -60 -50.5 -89t-119.5 -29q-61 0 -101 24.5t-40 76.5q0 62 56 83v4q-50 26 -50 76q0 55 44.5 83.5
t104.5 28.5q56 0 97 -25.5t41 -71.5zM561 140q-30 -11 -30 -38q0 -21 16.5 -32.5t42.5 -11.5q24 0 42.5 9t18.5 22q0 28 -90 51zM615 216q28 12 28 34q0 34 -56 34q-43 0 -43 -26q0 -34 71 -42z" />
    <glyph glyph-name="partialdiff" unicode="&#x2202;" horiz-adv-x="593" 
d="M37 189q0 91 63 156.5t155 65.5q51 0 102 -21.5t82 -61.5h5q11 57 11 92q0 85 -43 139.5t-116 54.5q-23 0 -52 -8v107q37 8 78 8q117 0 175 -76t58 -212q0 -53 -8 -108t-29 -117.5t-53.5 -111t-86.5 -80t-123 -31.5q-98 0 -158 58t-60 146zM267 107q98 0 149 132
q-23 37 -63 56.5t-82 19.5q-52 0 -80 -29.5t-28 -77.5q0 -47 27.5 -74t76.5 -27z" />
    <glyph glyph-name="uni2206" unicode="&#x2206;" horiz-adv-x="783" 
d="M12 0l334 714h97l317 -714h-748zM508 155l-124 308h-4l-124 -308h252z" />
    <glyph glyph-name="product" unicode="&#x220f;" horiz-adv-x="627" 
d="M561 -173h-134v771h-228v-771h-133v887h495v-887z" />
    <glyph glyph-name="summation" unicode="&#x2211;" horiz-adv-x="571" 
d="M528 -121h-484v92l206 326l-206 326v91h484v-127h-321l186 -290l-186 -292h321v-126z" />
    <glyph glyph-name="minus" unicode="&#x2212;" horiz-adv-x="537" 
d="M471 297h-406v103h406v-103z" />
    <glyph glyph-name="radical" unicode="&#x221a;" horiz-adv-x="612" 
d="M357 0h-163l-86 259h-76v102h172l70 -208h4l175 561h131z" />
    <glyph glyph-name="infinity" unicode="&#x221e;" horiz-adv-x="658" 
d="M66 349q0 92 36.5 131t105.5 39q103 0 121 -86q19 86 123 86q68 0 104 -38.5t36 -131.5t-36 -132t-104 -39q-103 0 -123 86q-18 -86 -122 -86q-68 0 -104.5 39.5t-36.5 131.5zM421 398q-19 0 -30 -2t-21.5 -13.5t-10.5 -33.5q0 -32 16.5 -41t46.5 -9q34 0 51 9.5t17 40.5
t-16.5 40t-52.5 9zM171 349q0 -31 16 -40.5t50 -9.5q19 0 30.5 2.5t21.5 14t10 33.5t-10.5 33.5t-21.5 13.5t-31 2q-22 0 -34 -2.5t-21.5 -13.5t-9.5 -33z" />
    <glyph glyph-name="integral" unicode="&#x222b;" horiz-adv-x="445" 
d="M111 -213h-82v139h62q30 0 41 13t11 46v552q0 90 52 133.5t137 43.5h84v-138h-65q-29 0 -39.5 -12.5t-10.5 -45.5v-553q0 -90 -52.5 -134t-137.5 -44z" />
    <glyph glyph-name="approxequal" unicode="&#x2248;" horiz-adv-x="648" 
d="M538 304h43q0 -160 -131 -160q-12 0 -24.5 1.5t-21 3.5t-22.5 6.5t-20 6.5t-22 8.5t-21 8.5q-70 27 -122 27q-75 0 -87 -63h-44q0 160 131 160q12 0 24.5 -1.5t21.5 -3.5t23 -6.5t19.5 -6.5t22.5 -8.5t21 -8.5q70 -27 121 -27q76 0 88 63zM538 520h43q0 -160 -131 -160
q-12 0 -24.5 1.5t-21 3.5t-22.5 6.5t-20 6.5t-22 8.5t-21 8.5q-70 27 -122 27q-75 0 -87 -63h-44q0 160 131 160q12 0 24.5 -1.5t21.5 -3.5t23 -6.5t19.5 -6.5t22.5 -8.5t21 -8.5q70 -27 121 -27q76 0 88 63z" />
    <glyph glyph-name="notequal" unicode="&#x2260;" horiz-adv-x="537" 
d="M84 -20h-116l133 208h-35v103h102l74 114h-176v104h242l146 225h114l-145 -225h49v-104h-115l-73 -114h188v-103h-255z" />
    <glyph glyph-name="lessequal" unicode="&#x2264;" horiz-adv-x="537" 
d="M472 84l-406 224v86l406 225v-122l-294 -145l294 -146v-122zM471 -36h-406v103h406v-103z" />
    <glyph glyph-name="greaterequal" unicode="&#x2265;" horiz-adv-x="537" 
d="M472 308l-406 -224v122l295 146l-295 145v122l406 -225v-86zM471 -36h-406v103h406v-103z" />
    <glyph glyph-name="lozenge" unicode="&#x25ca;" horiz-adv-x="564" 
d="M359 0h-145l-174 357l174 357h145l165 -357zM285 145l104 212l-104 214l-105 -214z" />
    <glyph glyph-name="zerooldstyle" unicode="&#xf730;" horiz-adv-x="582" 
d="M549 263q0 -135 -72 -208t-182 -73q-122 0 -192.5 85.5t-70.5 207.5q0 125 75 201.5t187 76.5q111 0 183 -77.5t72 -212.5zM410 268q0 78 -33 118.5t-88 40.5t-86 -39.5t-31 -115.5q0 -75 31 -119.5t89 -44.5q57 0 87.5 42.5t30.5 117.5z" />
    <glyph glyph-name="oneoldstyle" unicode="&#xf731;" horiz-adv-x="266" 
d="M209 0h-152v535h152v-535z" />
    <glyph glyph-name="twooldstyle" unicode="&#xf732;" horiz-adv-x="627" 
d="M589 -58v-153q-31 -20 -81 -20q-53 0 -160.5 28.5t-159.5 28.5q-62 0 -131 -28v127q44 25 75 44t74 47t72.5 51t61 53.5t51 58.5t32 61t12.5 66q0 97 -100 97q-59 0 -92 -33.5t-33 -97.5q0 -26 3 -46h-137q-7 47 -7 78q0 114 76.5 181.5t184.5 67.5q48 0 93 -14.5
t82.5 -42.5t60 -74.5t22.5 -104.5q0 -62 -26 -120t-71 -103t-95.5 -80t-108.5 -62v-4q59 0 127 -14.5t102 -14.5q51 0 73 23z" />
    <glyph glyph-name="threeoldstyle" unicode="&#xf733;" horiz-adv-x="606" 
d="M295 147q-35 0 -80 -9v80l151 167h-318v150h510v-117l-164 -175q83 -4 128 -59.5t45 -150.5q0 -125 -74 -194.5t-198 -69.5q-123 0 -195 66.5t-72 174.5q0 20 1 30h133q4 -62 33 -95t101 -33q61 0 90.5 28t29.5 93q0 60 -28 87t-93 27z" />
    <glyph glyph-name="fouroldstyle" unicode="&#xf734;" horiz-adv-x="637" 
d="M504 -213h-149v213h-324v119l297 416h176v-398h97v-137h-97v-213zM359 137v233l-169 -233h169z" />
    <glyph glyph-name="fiveoldstyle" unicode="&#xf735;" horiz-adv-x="605" 
d="M519 385h-303l-11 -158q62 37 131 37q102 0 166 -59.5t64 -167.5q0 -121 -77.5 -194.5t-191.5 -73.5q-80 0 -153 38.5t-114 111.5l107 79q35 -47 72 -68.5t86 -21.5q60 0 90 30t30 85q0 111 -116 111q-39 0 -72.5 -12t-49.5 -32l-108 70l23 375h433z" />
    <glyph glyph-name="sixoldstyle" unicode="&#xf736;" horiz-adv-x="631" 
d="M332 621q-67 0 -104.5 -59t-43.5 -146h4q68 84 172 84q103 0 165.5 -73.5t62.5 -186.5q0 -120 -71.5 -189t-183.5 -69q-135 0 -216.5 100.5t-81.5 259.5q0 55 10 110t33 110t57 96.5t86.5 67.5t116.5 26q92 0 158.5 -51t78.5 -152h-136q-10 38 -41 55t-66 17zM318 372
q-47 0 -83.5 -30t-43.5 -86q1 -57 36.5 -101t94.5 -44q50 0 82.5 33.5t32.5 92.5q0 60 -33 97.5t-86 37.5z" />
    <glyph glyph-name="sevenoldstyle" unicode="&#xf737;" horiz-adv-x="618" 
d="M338 -213h-172q6 140 78.5 309.5t163.5 288.5h-367v150h536v-137q-186 -213 -239 -611z" />
    <glyph glyph-name="eightoldstyle" unicode="&#xf738;" horiz-adv-x="641" 
d="M567 555q0 -105 -98 -152v-4q57 -18 93.5 -66t36.5 -120q0 -79 -46.5 -133t-112 -76t-143.5 -22q-51 0 -95.5 11t-81.5 34t-58 63t-21 94q0 68 31.5 116t85.5 65v4q-105 55 -105 164q0 72 41.5 123.5t100.5 73.5t126 22q100 0 173 -51t73 -146zM260 322q-37 -12 -57 -40
t-20 -66q0 -52 36 -78.5t92 -26.5q55 0 95.5 23.5t40.5 60.5q0 79 -187 127zM364 444q29 12 47.5 37t18.5 58q0 47 -36.5 67.5t-83.5 20.5q-44 0 -74 -18.5t-30 -57.5q0 -85 158 -107z" />
    <glyph glyph-name="nineoldstyle" unicode="&#xf739;" horiz-adv-x="632" 
d="M298 -98q47 0 81.5 35.5t49.5 82t19 98.5h-4q-66 -81 -168 -81q-98 0 -165.5 73.5t-67.5 187.5q0 117 73 186t184 69q135 0 216 -100.5t81 -261.5q0 -55 -9.5 -111t-32.5 -112.5t-57 -100t-87 -71t-118 -27.5q-91 0 -158 51t-78 153h135q10 -37 41 -54t65 -17zM315 165
q48 0 84 29t42 84q0 57 -36 100.5t-95 43.5q-50 0 -82.5 -33t-32.5 -92t33 -95.5t87 -36.5z" />
    <glyph glyph-name="zero.lnum" unicode="&#xf762;" horiz-adv-x="692" 
d="M341 -18q-153 0 -226.5 95.5t-73.5 272.5q0 199 84 291.5t224 92.5q147 0 224.5 -96t77.5 -279q0 -178 -76.5 -277.5t-233.5 -99.5zM347 123q137 0 137 236q0 126 -36 179.5t-102 53.5q-139 0 -139 -232q0 -237 140 -237z" />
    <glyph glyph-name="one.lnum" unicode="&#xf763;" horiz-adv-x="692" 
d="M571 0h-450v148h140v334h-132v130q70 0 109 29.5t51 72.5h139v-566h143v-148z" />
    <glyph glyph-name="two.lnum" unicode="&#xf764;" horiz-adv-x="692" 
d="M633 0h-586v121q222 120 335 220q93 83 93 150q0 43 -31 68.5t-81 25.5q-59 0 -97 -34.5t-38 -93.5q0 -18 6 -50h-150q-9 41 -9 75q0 117 83 184.5t201 67.5q114 0 199.5 -62.5t85.5 -172.5q0 -127 -122 -226q-15 -12 -33.5 -24.5t-33.5 -22t-38 -21.5l-34.5 -18
t-36.5 -18.5t-32 -16.5v-4h319v-148z" />
    <glyph glyph-name="three.lnum" unicode="&#xf765;" horiz-adv-x="692" 
d="M380 314h-117v104h84q123 0 123 85q0 89 -120 89q-64 0 -96.5 -30.5t-32.5 -97.5h-136q-2 22 -2 38q0 107 75 169.5t197 62.5q118 0 199.5 -56.5t81.5 -156.5q0 -113 -98 -155v-4q49 -19 76 -64t27 -98q0 -92 -79.5 -155t-210.5 -63q-58 0 -110 13.5t-95.5 42t-69.5 77.5
t-26 114q0 27 4 51h140q0 -74 38.5 -114.5t111.5 -40.5q57 0 93.5 25t36.5 75q0 40 -24.5 64.5t-69.5 24.5z" />
    <glyph glyph-name="four.lnum" unicode="&#xf766;" horiz-adv-x="692" 
d="M553 0h-163v155h-357v120l326 439h194v-422h106v-137h-106v-155zM393 292v248h-4l-186 -248h190z" />
    <glyph glyph-name="five.lnum" unicode="&#xf767;" horiz-adv-x="692" 
d="M589 565h-333l-12 -142h4q63 37 140 37q113 0 183 -59.5t70 -167.5q0 -121 -85 -186t-208 -65q-89 0 -168.5 37t-128.5 113l118 78q41 -49 79 -69.5t97 -20.5q130 0 130 102q0 54 -33.5 81t-92.5 27q-40 0 -78.5 -11.5t-57.5 -32.5l-119 70l27 358h474z" />
    <glyph glyph-name="six.lnum" unicode="&#xf768;" horiz-adv-x="692" 
d="M368 603q-73 0 -115 -55.5t-49 -135.5h4q72 82 185 82q108 0 182.5 -71.5t74.5 -185.5q0 -118 -81 -186.5t-209 -68.5q-153 0 -235.5 97.5t-82.5 255.5q0 57 11 112t36 107.5t62 92t94.5 63.5t127.5 24q105 0 177.5 -51.5t84.5 -150.5h-149q-11 35 -44 53t-74 18z
M352 370q-53 0 -93 -29t-46 -82q0 -56 39.5 -100t104.5 -44q55 0 91 33.5t36 92.5q0 61 -37.5 95t-94.5 34z" />
    <glyph glyph-name="seven.lnum" unicode="&#xf769;" horiz-adv-x="692" 
d="M376 0h-187q7 134 84.5 288.5t178.5 272.5v4h-400v149h588v-136q-208 -217 -264 -578z" />
    <glyph glyph-name="eight.lnum" unicode="&#xf76a;" horiz-adv-x="692" 
d="M617 539q0 -52 -26.5 -85t-77.5 -59v-4q140 -44 140 -178q0 -79 -51.5 -133t-124 -76t-158.5 -22q-77 0 -137.5 18.5t-101.5 65t-41 116.5q0 66 34.5 112t93.5 63v4q-59 28 -87 62.5t-28 91.5q0 73 46 124.5t110.5 73t137.5 21.5q51 0 98 -12t86.5 -34.5t63 -61
t23.5 -87.5zM286 313q-92 -23 -92 -97q0 -52 40.5 -78.5t101.5 -26.5q59 0 104.5 23t45.5 61q0 71 -200 118zM388 436q79 26 79 86q0 46 -41 66.5t-91 20.5q-47 0 -81.5 -18t-34.5 -56q0 -32 28 -53.5t60.5 -30t80.5 -15.5z" />
    <glyph glyph-name="nine.lnum" unicode="&#xf76b;" horiz-adv-x="692" 
d="M487 303h-4q-70 -81 -185 -81q-109 0 -182.5 71t-73.5 183q0 118 82.5 188t209.5 70q150 0 233 -98t83 -255q0 -57 -11 -111.5t-36 -107.5t-62 -92.5t-94 -63.5t-127 -24q-66 0 -120 20t-93.5 67t-48.5 115h148q11 -35 43.5 -52t73.5 -17q74 0 114.5 53t49.5 135z
M341 350q54 0 93 29.5t45 81.5q0 56 -39.5 99.5t-104.5 43.5q-55 0 -90.5 -32.5t-35.5 -91.5t36.5 -94.5t95.5 -35.5z" />
    <glyph glyph-name="CR" horiz-adv-x="197" 
 />
    </font>
</defs>
</svg>
